<svg width="30" height="30" viewBox="0 0 30 30" fill="none" xmlns="http://www.w3.org/2000/svg">
<path d="M14.1286 0C14.7156 0 15.3025 0 15.8836 0C16.5762 0.0938898 17.2747 0.164307 17.9673 0.293406C23.925 1.42595 28.7615 6.37277 29.7711 12.3524C29.865 12.9157 29.9237 13.4849 30 14.0541C30 14.6762 30 15.304 30 15.9261C29.9824 16.02 29.9648 16.1138 29.9472 16.2077C29.8063 17.0645 29.73 17.933 29.5128 18.7721C27.2296 27.6388 17.486 32.4037 9.07491 28.7772C2.43053 25.9136 -1.22036 18.7369 0.370304 11.6658C1.69096 5.80357 6.46881 1.26164 12.4206 0.222988C12.9841 0.12323 13.5593 0.0704174 14.1286 0ZM13.4712 6.65444C13.4712 8.76696 13.4712 10.856 13.4712 12.9451C13.4419 12.9627 13.4125 12.9861 13.3832 13.0037C12.4147 12.012 11.4404 11.0203 10.4484 10.0051C9.68535 10.768 8.95165 11.5074 8.17686 12.2761C10.4719 14.5412 12.7434 16.7828 15.0384 19.0479C17.2982 16.7769 19.5463 14.5177 21.8061 12.2468C21.0547 11.5132 20.3034 10.7856 19.47 9.96993C18.5543 10.9147 17.6328 11.8712 16.6467 12.8922C16.6467 10.7563 16.6467 8.70828 16.6467 6.64857C15.5784 6.65444 14.5512 6.65444 13.4712 6.65444ZM20.5852 19.4059C16.8521 19.4059 13.1425 19.4059 9.43882 19.4059C9.43882 20.4445 9.43882 21.4656 9.43882 22.4866C13.166 22.4866 16.8697 22.4866 20.5852 22.4866C20.5852 21.4538 20.5852 20.4445 20.5852 19.4059Z" fill="#0059B1"/>
</svg>
