<svg width="606" height="266" viewBox="0 0 606 266" fill="none" xmlns="http://www.w3.org/2000/svg">
<path d="M235.2 183.8C225.4 183.8 220.8 183 218.8 181C217.1 179.4 217.1 176.7 217.2 172.6V141.3V141.1C217.2 140.7 217.2 140.4 217.5 140.1C218.4 139.2 221.4 138.8 226.5 138.8C257.7 138.8 257.7 156 257.7 164.3C257.6 167.5 256.5 183.8 235.2 183.8ZM217.1 130.3V128.9V106.5V104.9C217.1 101.4 217.1 99.3 218.2 98.2C219.1 97.3 221 96.9 224.5 96.9C236.8 96.9 250 103.9 250 119.3C250 124.6 250 133.4 227.2 133.4C221.3 133.4 218.2 133.2 217.4 132.4C217.1 132.1 217.1 131.5 217.1 130.3ZM250.2 135.2C249.3 134.9 248.3 134.6 247.8 134.3C248 134.1 248.4 133.9 248.8 133.6C252.3 131.4 260.4 126.2 260.4 115C260.4 109.5 258.2 91.4 230 91.4C223.6 91.4 219.1 91.6 215.4 91.8L208.3 92L206.1 92.1C205.9 92.1 205.7 92.1 205.5 92.1C205.4 92.1 195.3 92 195.3 92L185.8 91.5C184.6 91.5 183.8 92.6 183.8 94.1C183.8 95.6 185.5 96.2 187.3 96.8C189.8 97.7 192.6 98.6 192.6 101.7C192.6 103.3 192.3 104.6 191.7 106L166.9 167C166 169.1 165.1 171.5 164.5 171.5C163.7 171.5 162.4 168.6 162 167.6L150.6 139.5C149.8 137.4 148.9 134.4 148.9 133.2C148.9 132.1 149 131 150.1 128.2L159.7 106C163.5 97.1 166.1 96 167.5 95.3C168.5 94.9 169.1 94.5 169.1 92.9C169.1 92.1 168.3 91.5 167.6 91.5L164.9 91.7C163.3 91.9 161.3 92 157.7 92L148.9 91.5C148 91.5 145.6 91.5 145.6 93.3C145.6 94.9 147.2 95.6 148.9 96.3C151.1 97.2 153.4 98.2 153.4 101.1V101.2C153.4 102.4 152.8 104.5 152.2 105.9L145.6 121.8C145.2 122.6 144.6 124 144.2 124.6C143.9 124.1 143.4 122.9 142.9 121.6L135.8 103.7C135.1 102.1 134.9 101.4 134.9 99.8C134.9 97.5 136.5 96.7 138.1 95.9C139.3 95.3 140.4 94.8 140.4 93.5C140.4 92.2 139.9 91.3 139 91.3L134.9 91.5C132.6 91.7 129.7 91.8 125.9 91.8L121.7 91.6C118.7 91.4 115 91.2 112.2 91.2C111.2 91.2 109.6 91.2 109.6 93.2C109.6 95.6 111.8 95.9 114 96.3C117 96.7 120.8 97.3 122.8 102.1L136.4 134.8L136.6 135.4C137.1 136.8 137.7 138.2 137.7 138.8C137.7 139.5 137.2 141.4 136.1 144.2L126.1 168.1C125.5 169.8 124.9 170.2 124.7 170.2C124.4 170.2 123.7 169.1 122.9 167L97.1002 103.2C96.6002 102 96.3002 100.7 96.3002 100C96.3002 97.6 98.2002 96.6 99.8002 95.7C101 95.1 102.1 94.5 102.1 93.3C102.1 91.4 101.1 91.1 100.5 91.1L90.7002 91.6L78.8002 91.1C77.0002 91.1 75.2002 92 75.2002 93.8C75.2002 95.2 76.5002 95.7 77.9002 96.3C80.1002 97.1 83.1002 98.3 85.0002 103L114.7 176.8L116.8 182.2C119.1 188 120 190.4 121.9 190.4C123.8 190.4 124.9 189.4 125.8 186.6L141 148.9C141.3 148.3 141.5 148.3 141.7 148.3C141.8 148.4 141.9 148.6 142.1 149.2L157 184.9C159 189.4 159.6 190.4 161.2 190.4C163.6 190.4 164.7 187.7 165.6 185.6L200.5 103.3C201.2 101.5 201.9 100.2 202.6 99.2C204 100.4 205 102.3 205 105.1V171.9C205 181.6 201.1 182.6 199.4 183L199.2 183.1L198.6 183.3C196.4 184.1 194.8 184.6 194.8 186.2C194.8 188.2 198.7 188.2 198.7 188.2L217.6 187.7L226.2 188L235.3 188.3C262.8 188.3 268.8 167.1 268.8 159C269 141.5 255.9 137.1 250.2 135.2ZM426.2 91.4L420.5 91.6L412.6 91.9L406.2 91.6L400.2 91.3C399 91.3 398.2 92.1 398.2 93.2C398.2 95.1 400.2 95.6 402.5 96.2C407 97.3 413.2 98.9 413.2 110.3V167C413.2 167.4 413.2 167.6 413.1 167.8C412.9 167.6 412.6 167.3 412.1 166.7L347.4 94.6L346.9 93.9C346.1 92.8 345 91.3 343.5 91.3L337.3 91.8L330.9 91.3C330 91.3 328.3 92 328.3 93.2C328.3 95.1 330.1 95.6 332.2 96.1C336.9 97.2 344.7 99.2 344.7 118.6V168.7C344.7 180.9 339.8 182.4 336.2 183.4C334.4 183.9 332.7 184.4 332.7 186.4C332.7 186.9 332.7 188.4 335 188.4L337.4 188.3C340 188.2 344.5 187.9 347.7 187.9C351.6 187.9 354.5 188.1 356.9 188.2L361.4 188.4C362.2 188.4 363.4 188.1 363.4 186.1C363.4 184.3 361.5 184 359.5 183.7C355.9 183.1 351.4 182.4 351.4 175V119.5C351.4 117.2 351.7 117 351.8 116.9C352.1 116.9 352.6 117.2 354 118.9L354.4 119.3L412.7 184.9C415.3 187.7 416.9 188.9 418.3 188.9C420 188.9 420.1 186.5 420.1 182.5V104C420.1 98.1 423 96.9 425.3 95.9C426.8 95.3 428.1 94.7 428.1 93C428.1 92 427.4 91.4 426.2 91.4ZM333.6 168C333 168 332.5 168.5 331.7 169.5C328.8 173 321 182 295.9 182C291.2 182 288.6 181.5 287.3 180.2C286 178.9 286 176.6 286.1 173.2V171.3V146.3V145.6C286.1 144.5 286.1 143.5 286.6 142.9C286.9 142.6 287.4 142.4 288.1 142.4H308.2C314.8 142.4 315.7 146.7 316.3 150.1C316.7 152.3 317.1 154.4 319.2 154.4C320.5 154.4 321.2 153.6 321.2 152.1L320.9 141.4L321.2 127.7C321.2 126.2 320.6 124.6 319.2 124.6C317.7 124.6 317.3 126 316.8 127.7C315.9 130.8 314.6 135.5 305.4 135.5H290.7C288.2 135.5 286.9 135.5 286.4 135C286 134.6 286 133.6 286 132V105.6C286 102 286 100.1 286.9 99.2C288 98.1 290.7 98.1 296.2 98.1H298.3H300.5C306.6 98 318 97.8 320.9 101.7C321.8 102.9 321.9 104.9 322 106.6C322.1 109 322.3 111.5 324.6 111.5C326 111.5 327.9 109.8 327.9 94.8C327.9 93.9 327.9 91.3 326 91.3L314.4 91.6L306.6 91.8L300.2 91.7C294.4 91.5 285.7 91.3 268.2 91.3C264.8 91.3 262.9 91.7 262.9 93.5C262.9 95.3 265.3 95.8 266.7 96.1L267.3 96.2C274.2 97.2 274.2 103.4 274.2 109.4V171.3C274.2 177.9 273.9 181.1 270.7 182.6L267.2 184.1C265.5 184.8 264.7 185.1 264.4 186.5C264.4 188.5 266.3 188.5 267 188.5L277 188.2L283.6 188C289.5 187.8 295.5 188 301.3 188.2L314.6 188.5H315.5C321 188.5 324 188.5 328.3 183.7C333 178.6 335.2 174.2 335.2 170.2C335.2 169.3 334.8 168 333.6 168Z" fill="#008998"/>
<path d="M438 127.8C441.1 106.9 454.5 95.2 476 95.2C491.4 95.2 501.6 101.9 511.1 118.3L511.5 119.2C512.2 120.8 513.1 123 514.7 123C515.2 123 515.6 122.8 516 122.5C516.9 121.5 516.7 119.4 516.4 116L516.1 110.8L516 109.2C515.6 101.2 515.5 99.3 513.6 99.3C512.7 99.3 512.1 99.7 511.5 100.1C511.1 100.4 510.7 100.6 510.4 100.6C509.4 100.6 508.1 99.8 506.3 98.6C501.4 95.6 492.4 90.1 473.9 90.1C454.5 90.1 438.4 100.6 430.2 116.8L438 127.8Z" fill="#008998"/>
<path d="M504 131.1C502.9 133.7 500.2 135.1 497.9 134.2C495.7 133.2 494.7 130.4 495.9 127.7C497 125.1 499.7 123.7 501.9 124.6C504.2 125.6 505.1 128.5 504 131.1Z" fill="#FAC70D"/>
<path d="M458.5 116.8C459.1 119.6 457.6 122.3 455.2 122.7C452.8 123.2 450.5 121.3 449.9 118.5C449.3 115.7 450.8 113.1 453.2 112.6C455.5 112.2 457.9 114.1 458.5 116.8Z" fill="#FAC70D"/>
<path d="M448.4 176.1C459.5 164.7 458.5 153 458.5 153C467.5 162.3 462.4 183 462.4 183C481.2 158.2 465.4 138.9 465.4 138.9C483.4 126.3 480.6 100.9 480.6 100.9C476.7 116.6 469 127.1 455.5 127.5C440.5 127.9 430.2 113.5 423.9 102.7C431.3 132 442.4 132.1 447.1 140.9C450.6 147.6 449 160.6 444.8 172.3L448.4 176.1Z" fill="#FAC70D"/>
<path d="M504.3 178.6C501.4 172.9 496.3 163.3 493 160.8C493 160.8 480.9 174.3 478.5 183C478.5 183 481.6 156.1 487.6 148.5C487.6 148.5 475.6 135.3 481.9 111.3C482.9 126.2 486.8 136.8 495.2 138.7C506.1 141.3 518.5 129.2 523.4 120.3C523.4 120.3 521 139.4 500.5 149.8C500.5 149.8 506.2 157.4 506.6 176.9L504.3 178.6Z" fill="#FAC70D"/>
<path d="M437.4 133.9C437.3 134.9 437.3 136.3 437.3 137.4C437.3 160.6 450.7 184.1 476.4 184.1C497.6 184.1 510.6 170.4 512.5 164.7C512.9 163.5 513.9 162.5 514.9 162.5C515.4 162.5 515.9 162.8 516.2 163.2C516.6 163.6 516.7 164.2 516.6 164.7L513.5 178.3C513.2 179.5 502.6 189.5 472.7 189.5C444.3 189.5 424.4 169.9 424.4 141.7C424.4 134.2 425.8 127.2 428.3 120.9C430.5 125.7 432.4 128.4 437.4 133.9Z" fill="#008998"/>
<path d="M169.7 19.8C175.5 19.8 181 21.4 186 24.7C186.4 24.9 186.7 25.1 186.9 25.1C187.1 25.1 187.2 25 187.4 24.9L187.9 24.4C188.1 24.2 188.3 24.1 188.6 24.1C189.1 24.1 189.4 24.5 189.4 25.4V29L189.9 34.7C190 35.3 190 35.7 190 36.1C190 37 189.7 37.5 189.2 37.5C188.6 37.5 188.2 36.9 187.9 35.7C187 32 185.1 29 182.2 26.8C178.3 23.7 174.1 22.2 169.7 22.2C163.9 22.2 159.1 24.5 155.4 29C151.7 33.5 149.9 39.3 149.9 46.4C149.9 53.5 151.7 59.4 155.2 64C158.7 68.6 163.3 70.9 168.8 70.9C172.6 70.9 176.1 69.8 179.5 67.6C182.9 65.4 185.1 62.8 186 59.7C186.5 58.2 187 57.4 187.7 57.4C188.3 57.4 188.6 57.9 188.5 58.9C188.5 59.8 188.3 60.7 188 61.7L187.2 64.2L186.9 65.9C186.8 66.5 186.6 67 186.4 67.3C186.1 67.6 185.4 68.1 184.3 68.8C179.1 71.8 173.7 73.3 167.9 73.3C160.6 73.3 154.8 71.1 150.6 66.7C146.4 62.3 144.3 56.3 144.3 48.7C144.3 40.4 146.7 33.6 151.5 28.2C156.1 22.5 162.2 19.8 169.7 19.8Z" fill="#008998"/>
<path d="M208 55.8C211.8 55.8 215 54.9 217.6 53.2C220.2 51.4 221.5 49.3 221.5 46.7C221.5 44.3 220.3 43.2 217.9 43.2C215.8 43.2 213.8 44.4 211.7 46.9C210 49.1 208.7 52 208 55.8ZM207.8 57.2C207.7 58.3 207.6 59.2 207.6 59.8C207.6 62.4 208.5 64.6 210.2 66.4C211.9 68.2 214 69.1 216.4 69.1C219.5 69.1 222 68.1 223.9 66.2C224.5 65.6 224.9 65.3 225.1 65.3C225.5 65.3 225.6 65.5 225.6 66C225.6 66.8 224.7 68 222.9 69.4C220 71.6 216.8 72.7 213.3 72.7C210.2 72.7 207.8 71.7 206 69.8C204.2 67.9 203.3 65.2 203.3 61.9C203.3 56.8 205 52.1 208.4 47.7C211.8 43.3 215.4 41.1 219.4 41.1C221.3 41.1 222.9 41.6 224.1 42.7C225.3 43.7 225.9 45.1 225.9 46.7C225.9 49.7 223.9 52.3 220 54.6C216.9 56.3 212.9 57.2 207.8 57.2Z" fill="#008998"/>
<path d="M250.9 49.2C253.7 44 256.6 41.5 259.7 41.5C261.5 41.5 262.3 42.1 262.3 43.3C262.3 43.6 262.2 44 262.1 44.5C261.9 45 261.8 45.4 261.8 45.6L261.3 47.4C261.1 48.2 260.7 48.6 260.1 48.7C259.8 48.7 259.5 48.5 259.3 47.9C258.7 46.5 257.8 45.7 256.6 45.7C255.4 45.7 254.4 47 253.5 49.6C252.6 52.2 251.9 56.3 251.2 61.9L250.1 70.8V71.2C250 72.2 249.2 72.7 247.7 72.7C246.4 72.7 245.7 72.3 245.7 71.5C245.7 71.3 245.7 71.1 245.7 70.8L247.5 56C247.6 55.2 247.7 54.1 247.7 53C247.7 49.3 246.8 47.4 245.1 47.4C244.3 47.4 243.6 47.8 243 48.7C242.4 49.5 242 50.6 241.8 51.8C241.7 52.8 241.4 53.2 240.9 53.2C240.3 53.2 240 52.6 240 51.4C240 48.8 240.6 46.7 241.9 45C242.5 44.2 243.2 43.5 244.1 42.9C245 42.3 245.7 42 246.2 42C248.2 41.7 249.6 44.2 250.9 49.2Z" fill="#008998"/>
<path d="M285.8 46.3L283.8 61.6C283.7 62.3 283.7 63.1 283.7 63.9C283.7 65.1 284 66.1 284.6 66.9C285.2 67.7 286 68.1 286.9 68.1C288.5 68.1 290.2 67.2 291.9 65.3C292.4 64.8 292.8 64.6 293.1 64.6C293.5 64.6 293.7 64.8 293.7 65.2C293.7 66.6 292.5 68.1 290.2 69.9C287.9 71.7 285.8 72.5 284 72.5C282.6 72.5 281.4 71.8 280.5 70.5C279.6 69.2 279.2 67.4 279.2 65.3C279.2 64.3 279.3 63.1 279.5 61.6L281.3 47.2C281.4 46.6 281.5 46.2 281.5 45.8C281.5 45.6 281.5 45.4 281.5 45.3C281.5 44.7 281.1 44.5 280.2 44.5H278.1C277.5 44.5 277.2 44.3 277.2 43.8C277.2 43.3 277.7 42.7 278.8 42.2C281.5 40.7 283.7 38.7 285.4 36.1C285.8 35.4 286.2 35.1 286.7 35.1C287.3 35.1 287.5 35.3 287.5 35.8C287.5 36 287.4 36.4 287.3 36.8C287.3 37 287.1 37.5 286.9 38.3L286.6 39.5L286.4 40.5C286.3 40.7 286.3 40.9 286.3 41C286.3 41.6 286.8 41.9 287.8 41.9H288.1L293.3 41.7C294.2 41.7 294.6 42 294.6 42.7C294.6 43.8 294 44.3 292.7 44.3L288.2 44.1H287.7C287 44.1 286.5 44.2 286.3 44.5C286 44.8 285.9 45.4 285.8 46.3Z" fill="#008998"/>
<path d="M319.1 26C319.3 26 319.5 26.3 319.7 26.7C320.1 27.5 320.4 27.9 320.5 28.1L321.3 29.4C321.5 29.7 321.6 30 321.6 30.2C321.6 30.4 321.4 30.7 321 31.1C320.4 31.7 319.8 32.4 319 33.4C318.7 33.8 318.4 34 318.2 34C317.9 34 317.6 33.8 317.4 33.3C316.9 32.2 316.4 31.4 316 30.8C315.8 30.5 315.7 30.2 315.7 30C315.7 29.7 315.8 29.5 316.1 29.2L317.2 28.1C317.3 28 317.6 27.6 318.2 26.9C318.6 26.2 318.9 26 319.1 26ZM312.6 56.7L314.2 47.3C314.3 46.6 314.4 46 314.4 45.5C314.4 44.5 313.7 44 312.2 44H310.2C309.1 44 308.6 43.8 308.6 43.2C308.6 42.6 309.2 42.3 310.2 42.3C312.5 42.3 314.7 42.1 316.9 41.7C317.7 41.5 318.4 41.5 318.8 41.5C319.3 41.5 319.6 41.8 319.6 42.4V42.8L317.5 53.2C316.5 58.4 315.9 62.3 315.9 65C315.9 66.5 316.3 67.3 317.1 67.4C318.2 67.5 319.4 66.4 320.5 64.3C320.8 63.7 321.1 63.4 321.4 63.4C321.8 63.4 322 63.7 322 64.2C321.9 65.8 320.9 67.6 319.1 69.6C317.3 71.6 315.6 72.5 314.2 72.5C313.4 72.5 312.8 71.9 312.3 70.8C311.8 69.7 311.6 68.2 311.6 66.5C311.5 64.5 311.9 61.2 312.6 56.7Z" fill="#008998"/>
<path d="M345.2 44.3H340.2C339 44.3 338.3 43.9 338.3 43.2C338.3 42.2 339 41.7 340.5 41.7H345.6L345.8 40.7C347 33.8 349.2 28.3 352.3 24.1C353.6 22.4 354.8 21.2 356 20.5C357.1 19.8 358.5 19.5 360.2 19.5C361.2 19.5 361.9 19.6 362.3 19.8C362.7 20 362.9 20.5 362.9 21.1C362.9 24.2 362.6 25.8 362 25.8C361.8 25.8 361.5 25.7 361.3 25.4L360.4 24.4C359.5 23.3 358.4 22.8 357 22.8C355.6 22.8 354.4 24.2 353.3 26.9C352.2 29.6 351.2 34.1 350.3 40.2L350.1 41.6H355.8C357 41.6 357.6 42 357.6 42.6C357.6 43.7 356.9 44.2 355.5 44.2H349.8L346.3 72.3C345.8 76.5 344.6 79.6 342.7 81.6C340.6 83.9 338.4 85 336.3 85C335 85 334.4 84.5 334.4 83.5C334.4 82.5 334.6 81.5 335.1 80.3C335.6 79.1 336 78.6 336.3 78.6C336.6 78.6 336.8 78.9 336.9 79.5C337.2 81.2 337.9 82.1 338.9 82.1C340.2 82.1 341 80.4 341.4 76.9L341.7 74.3L343.8 57C344 52.8 344.6 48.5 345.2 44.3Z" fill="#008998"/>
<path d="M381.9 26C382.1 26 382.3 26.3 382.5 26.7C382.9 27.5 383.2 27.9 383.3 28.1L384.1 29.4C384.3 29.7 384.4 30 384.4 30.2C384.4 30.4 384.2 30.7 383.8 31.1C383.2 31.7 382.6 32.4 381.8 33.4C381.5 33.8 381.2 34 381 34C380.7 34 380.4 33.8 380.2 33.3C379.7 32.2 379.2 31.4 378.8 30.8C378.6 30.5 378.5 30.2 378.5 30C378.5 29.7 378.6 29.5 378.9 29.2L380 28.1C380.1 28 380.5 27.6 381 26.9C381.3 26.2 381.6 26 381.9 26ZM375.4 56.7L377 47.3C377.1 46.6 377.2 46 377.2 45.5C377.2 44.5 376.5 44 375 44H373C371.9 44 371.4 43.8 371.4 43.2C371.4 42.6 372 42.3 373 42.3C375.3 42.3 377.5 42.1 379.7 41.7C380.5 41.5 381.2 41.5 381.6 41.5C382.1 41.5 382.4 41.8 382.4 42.4V42.8L380.3 53.2C379.3 58.4 378.7 62.3 378.7 65C378.7 66.5 379.1 67.3 379.9 67.4C381 67.5 382.2 66.4 383.3 64.3C383.6 63.7 383.9 63.4 384.2 63.4C384.6 63.4 384.8 63.7 384.8 64.2C384.7 65.8 383.7 67.6 381.9 69.6C380.1 71.6 378.4 72.5 377 72.5C376.2 72.5 375.6 71.9 375.1 70.8C374.6 69.7 374.4 68.2 374.4 66.5C374.2 64.5 374.6 61.2 375.4 56.7Z" fill="#008998"/>
<path d="M405.3 55.8C409.1 55.8 412.3 54.9 414.9 53.2C417.5 51.4 418.8 49.3 418.8 46.7C418.8 44.3 417.6 43.2 415.2 43.2C413.1 43.2 411.1 44.4 409 46.9C407.3 49.1 406 52 405.3 55.8ZM405.1 57.2C405 58.3 404.9 59.2 404.9 59.8C404.9 62.4 405.8 64.6 407.5 66.4C409.2 68.2 411.3 69.1 413.7 69.1C416.8 69.1 419.3 68.1 421.2 66.2C421.8 65.6 422.2 65.3 422.4 65.3C422.8 65.3 422.9 65.5 422.9 66C422.9 66.8 422 68 420.2 69.4C417.3 71.6 414.1 72.7 410.6 72.7C407.5 72.7 405.1 71.7 403.3 69.8C401.5 67.9 400.6 65.2 400.6 61.9C400.6 56.8 402.3 52.1 405.7 47.7C409.1 43.3 412.8 41.1 416.7 41.1C418.6 41.1 420.2 41.6 421.4 42.7C422.6 43.7 423.2 45.1 423.2 46.7C423.2 49.7 421.2 52.3 417.3 54.6C414.3 56.3 410.2 57.2 405.1 57.2Z" fill="#008998"/>
<path d="M457.8 56.9L459 47.2C459 46.8 459.1 46.4 459.1 46.2C459.1 44.2 457.6 43.1 454.6 43.1C452.2 43.1 450 44.4 447.9 46.9C446.4 48.6 445.2 50.9 444.3 53.7C443.3 56.5 442.8 59.1 442.8 61.5C442.8 63.8 443.3 65.6 444.3 67C445.3 68.4 446.7 69 448.4 69C450.8 69 452.9 67.9 454.8 65.6C456.3 63.7 457.3 60.7 457.8 56.9ZM456.9 64.9C454.1 70.1 450.5 72.8 446.2 72.8C443.8 72.8 441.9 71.9 440.5 70.2C439.1 68.5 438.4 66.1 438.4 63C438.4 57.6 440.1 52.7 443.6 48.3C447 43.9 450.8 41.6 454.9 41.6C456.2 41.6 457.8 42 459.6 42.9L461.9 24.4C462 23.4 462.1 22.7 462.1 22.3C462.1 21.4 461.4 21 460.1 21H458.3C457.3 21 456.8 20.8 456.8 20.3C456.8 19.8 457.3 19.5 458.3 19.4C461.2 19.2 463.2 19 464.5 18.8C465.2 18.6 465.8 18.6 466.2 18.6C466.7 18.6 466.9 18.9 466.9 19.5C466.9 19.7 466.9 19.9 466.9 20L461.8 61.3C461.6 62.8 461.5 64.1 461.5 65C461.5 67.2 462.1 68.4 463.3 68.4C464.7 68.4 466 67.3 467.3 65.2L468 64.1C468.3 63.7 468.5 63.5 468.8 63.5C469.2 63.5 469.4 63.7 469.4 64.1C469.4 65.3 468.7 66.8 467.3 68.6C465.4 71.2 463.4 72.5 461.2 72.5C459.9 72.5 458.9 72.1 458.4 71.3C457.8 70.5 457.4 69 457.1 66.8C457 66.2 456.9 65.6 456.9 64.9Z" fill="#008998"/>
<path d="M52.4002 215.3L53.9002 221C54.1002 221.8 54.3002 222.5 54.5002 223.1L55.2002 225.3L56.0002 227.7C56.2002 228.3 56.3002 228.6 56.3002 228.8C56.4002 229.1 56.5002 229.2 56.6002 229.2C56.9002 229.2 58.3002 226.9 60.7002 222.3C63.2002 217.6 65.3002 213.3 67.2002 209.3C68.3002 207 69.0002 205.5 69.3002 204.9C70.1002 203.4 70.5002 202.2 70.5002 201.3C70.5002 200.8 70.3002 200.4 69.8002 200C69.3002 199.6 68.7002 199.5 68.1002 199.5C67.1002 199.5 66.7002 199.3 66.7002 198.9C66.7002 198.5 67.0002 198.2 67.5002 198.2C67.6002 198.2 68.0002 198.3 68.8002 198.3C69.6002 198.4 70.7002 198.4 72.0002 198.4C73.2002 198.4 74.2002 198.4 75.1002 198.3L75.9002 198.2H76.3002H76.7002C77.3002 198.2 77.6002 198.4 77.6002 198.9C77.6002 199.2 77.3002 199.4 76.7002 199.5C75.6002 199.6 74.7002 200.2 73.9002 201.2C73.2002 202.2 71.7002 204.9 69.6002 209.3C65.4002 217.8 62.1002 224.4 59.5002 228.9L56.4002 234.3C55.8002 235.4 55.3002 235.9 55.0002 235.9C54.7002 235.9 54.4002 235.4 54.2002 234.5C54.0002 233.9 53.8002 233 53.4002 231.9C52.5002 229.2 51.8002 226.9 51.3002 225.1L49.9002 220.1L45.1002 228.8C44.6002 229.7 44.2002 230.5 43.7002 231.3C43.0002 232.4 42.7002 233.1 42.6002 233.2L41.9002 234.5C41.4002 235.4 40.9002 235.9 40.6002 235.9C40.3002 235.9 40.0002 235.4 39.7002 234.4L31.6002 203C31.3002 201.9 31.0002 201 30.5002 200.6C30.1002 200.1 29.5002 199.9 28.7002 199.8C28.0002 199.7 27.7002 199.5 27.7002 199.2C27.7002 198.7 28.0002 198.5 28.7002 198.5H29.1002L29.5002 198.6L30.1002 198.7L30.9002 198.8C31.4002 198.8 32.2002 198.9 33.3002 198.9C34.6002 198.9 35.6002 198.9 36.4002 198.8L37.1002 198.7H37.5002C37.7002 198.7 37.8002 198.7 37.9002 198.7C38.3002 198.7 38.6002 198.9 38.6002 199.2C38.6002 199.6 38.3002 199.8 37.6002 199.8C36.3002 199.9 35.6002 200.8 35.6002 202.2C35.6002 202.9 35.9002 204.4 36.5002 206.7L41.9002 227.9L42.2002 228.7C42.4002 229.2 42.5002 229.5 42.6002 229.5C42.8002 229.5 43.0002 229.2 43.4002 228.5C43.5002 228.3 43.6002 228.1 43.8002 227.9L44.3002 227L49.3002 217.9L45.7002 204C45.0002 201.4 44.0002 200.1 42.5002 199.9C41.6002 199.8 41.2002 199.6 41.2002 199.2C41.2002 198.8 41.5002 198.6 42.1002 198.6C42.3002 198.6 42.6002 198.6 42.9002 198.7C44.0002 198.8 45.3002 198.9 46.6002 198.9C47.8002 198.9 48.8002 198.9 49.6002 198.8L50.3002 198.7H50.7002H51.1002C51.6002 198.7 51.9002 198.9 51.9002 199.3C51.9002 199.5 51.7002 199.7 51.4002 199.7C50.1002 200 49.4002 200.8 49.4002 202.1C49.4002 203 49.6002 204.1 49.9002 205.4L50.5002 207.6L51.9002 213L55.1002 206.8C56.3002 204.4 56.9002 202.8 56.9002 201.7C56.9002 201.2 56.7002 200.8 56.2002 200.4C55.8002 200 55.2002 199.8 54.6002 199.8C53.9002 199.8 53.5002 199.6 53.5002 199.2C53.5002 198.8 53.8002 198.6 54.3002 198.6C54.5002 198.6 54.7002 198.6 55.0002 198.7C56.1002 198.8 57.2002 198.9 58.5002 198.9C59.6002 198.9 60.6002 198.9 61.3002 198.8L62.0002 198.7H62.4002H62.8002C63.2002 198.7 63.5002 198.9 63.5002 199.3C63.5002 199.6 63.1002 199.8 62.3002 199.9C61.7002 200 61.2002 200.3 60.8002 200.8C60.3002 201.3 59.8002 202.3 59.0002 203.6L57.7002 206L52.4002 215.3Z" fill="#008998"/>
<path d="M81.5998 214.5C79.4998 214.5 77.7998 215.7 76.3998 218C74.9998 220.3 74.2998 223.2 74.2998 226.6C74.2998 231.6 75.7998 234.2 78.8998 234.2C80.7998 234.2 82.3998 233 83.6998 230.5C84.9998 228 85.6998 225.1 85.6998 221.6C85.7998 216.9 84.3998 214.5 81.5998 214.5ZM81.5998 213.2C83.9998 213.2 85.8998 214 87.2998 215.6C88.6998 217.2 89.3998 219.3 89.3998 222C89.3998 225.8 88.2998 229 86.1998 231.7C84.0998 234.4 81.4998 235.7 78.4998 235.7C76.1998 235.7 74.3998 234.9 72.8998 233.2C71.4998 231.5 70.7998 229.3 70.7998 226.6C70.7998 224.6 71.1998 222.6 72.0998 220.5C72.8998 218.5 73.9998 216.8 75.2998 215.6C76.9998 214 79.0998 213.2 81.5998 213.2Z" fill="#008998"/>
<path d="M98.8001 218.9C100 217.1 101.4 215.8 102.9 214.8C104.4 213.8 105.9 213.3 107.4 213.3C109.7 213.3 110.8 214.8 110.8 217.8V218.8C111.9 217.1 113.2 215.7 114.6 214.8C116 213.8 117.3 213.3 118.6 213.3C119.9 213.3 120.9 213.8 121.6 214.9C122.3 216 122.7 217.4 122.7 219.2C122.7 219.9 122.7 220.5 122.6 221.2L122 229.9L121.9 231L122 231.5C122.2 231.9 122.5 232.1 122.9 232.1C123.8 232.1 124.7 231.4 125.6 230C125.8 229.7 126 229.5 126.3 229.5C126.6 229.5 126.8 229.7 126.8 230.1C126.8 230.7 126.3 231.7 125.2 232.9C123.8 234.5 122.4 235.3 120.9 235.3C119.5 235.3 118.8 234 118.8 231.5C118.8 231.1 118.8 230.5 118.9 229.7L119.5 221.1C119.5 220.6 119.5 220.1 119.5 219.7C119.5 216.9 118.6 215.5 116.6 215.5C115.3 215.5 114.1 216.4 113 218.3C112 220.2 111.2 222.6 110.9 225.7L109.9 233.9C109.8 234.4 109.7 234.8 109.4 235C109.2 235.2 108.7 235.3 108 235.3C107.1 235.3 106.7 235 106.7 234.4V233.9L108.2 221.9C108.3 221.2 108.3 220.4 108.3 219.4C108.3 218.2 108 217.2 107.4 216.4C106.8 215.7 106 215.3 105 215.3C103.6 215.3 102.3 216.2 101.2 218C100 219.8 99.3001 222 99.0001 224.7L97.9001 233.8C97.8001 234.3 97.7001 234.7 97.4001 234.9C97.2001 235.1 96.7001 235.2 96.0001 235.2C95.1001 235.2 94.7001 234.9 94.7001 234.3C94.7001 234.2 94.7001 234 94.7001 233.8L96.3001 220.9C96.4001 220.4 96.4001 219.9 96.4001 219.5C96.4001 217.7 96.0001 216.8 95.2001 216.8C94.4001 216.7 93.7001 217.5 93.0001 219.2C92.8001 219.6 92.7001 219.8 92.5001 219.8C92.2001 219.8 92.1001 219.5 92.1001 219C92.1001 217.8 92.6001 216.5 93.6001 215.2C94.6001 213.8 95.6001 213.1 96.4001 213.1C98.0001 213.4 98.8001 215.3 98.8001 218.9Z" fill="#008998"/>
<path d="M131.6 223.6C134.3 223.6 136.6 223 138.5 221.7C140.4 220.4 141.3 218.9 141.3 217C141.3 215.3 140.5 214.5 138.8 214.5C137.3 214.5 135.9 215.4 134.4 217.2C133 218.8 132.1 220.9 131.6 223.6ZM131.5 224.6C131.4 225.4 131.4 226 131.4 226.5C131.4 228.3 132 229.9 133.2 231.2C134.4 232.5 135.9 233.1 137.7 233.1C139.9 233.1 141.7 232.4 143 231.1C143.4 230.7 143.7 230.5 143.8 230.5C144.1 230.5 144.2 230.7 144.2 231C144.2 231.6 143.6 232.4 142.3 233.4C140.3 235 138 235.8 135.4 235.8C133.2 235.8 131.5 235.1 130.2 233.7C128.9 232.3 128.3 230.4 128.3 228.1C128.3 224.5 129.5 221.1 131.9 218C134.3 214.9 136.9 213.3 139.7 213.3C141.1 213.3 142.2 213.7 143.1 214.4C144 215.1 144.4 216.1 144.4 217.3C144.4 219.4 143 221.3 140.2 222.9C138 224 135.1 224.6 131.5 224.6Z" fill="#008998"/>
<path d="M153.8 218.7C155 217 156.4 215.7 157.9 214.8C159.4 213.8 160.9 213.4 162.3 213.4C163.4 213.4 164.3 214 165.1 215.1C165.8 216.3 166.2 217.7 166.2 219.5C166.2 220.5 166.1 221.8 166 223.4L165.4 230.4C165.4 230.6 165.4 230.8 165.4 230.9C165.4 231.8 165.7 232.3 166.2 232.3C167.1 232.3 168 231.7 168.8 230.5C169.2 230 169.5 229.7 169.8 229.7C170.1 229.7 170.3 229.9 170.3 230.2C170.3 231.2 169.5 232.3 168 233.6C166.5 234.9 165.3 235.6 164.2 235.6C162.9 235.6 162.3 234.4 162.3 232C162.3 231.5 162.3 230.7 162.4 229.8L163.1 221.5C163.1 221.1 163.2 220.7 163.2 220.3C163.2 218.9 162.9 217.8 162.4 216.9C161.9 216.1 161.2 215.6 160.3 215.6C158.8 215.6 157.4 216.5 156.3 218.4C155.2 220.3 154.4 222.8 154 225.9L153 234.1C152.9 234.6 152.8 235 152.5 235.2C152.2 235.4 151.8 235.5 151.1 235.5C150.2 235.5 149.7 235.2 149.8 234.6L149.9 234.1L150.8 227.1C150.9 226 151.1 224.9 151.2 223.9C151.4 222 151.6 220.6 151.6 219.7C151.6 217.9 151.2 217.1 150.4 217.1C150.1 217.1 149.7 217.3 149.3 217.8C148.9 218.2 148.6 218.7 148.4 219.3C148.2 220 147.9 220.3 147.6 220.3C147.2 220.3 147.1 220.1 147.1 219.6C147.1 218.4 147.6 217.1 148.7 215.7C149.8 214.3 150.8 213.6 151.7 213.6C152.4 213.6 152.9 214 153.3 214.8C153.7 215.6 153.9 216.6 153.9 217.8V218.7H153.8Z" fill="#008998"/>
<path d="M179 197C179.6 196.9 180.2 197.4 181 198.5C181.8 199.6 182.1 201 182.1 202.5C182.1 204.6 181.2 206.8 179.3 209C177.9 210.7 176.8 211.5 176.1 211.5C175.7 211.5 175.5 211.3 175.5 210.9C175.5 210.7 175.8 210.3 176.5 209.7C178.1 208.1 179 206.4 179 204.6C179 203.2 178.5 202.1 177.4 201.2C176.7 200.7 176.4 200.3 176.4 200.2C176.4 200 176.5 199.8 176.7 199.5L177.4 198.7C177.6 198.5 177.8 198.2 178.1 197.8C178.4 197.3 178.7 197 179 197Z" fill="#008998"/>
<path d="M189.7 220.3L193.5 224.4C194.7 225.7 195.3 227.3 195.3 229.1C195.3 230.9 194.6 232.5 193.1 233.7C191.7 235 189.9 235.6 187.8 235.6C186.2 235.6 184.9 235.3 183.8 234.6C182.7 234 182.1 233.2 182.1 232.3C182.1 231.2 182.6 230.6 183.7 230.6C184.3 230.6 184.9 231 185.5 231.9L186.1 232.9C186.6 233.8 187.3 234.2 188.3 234.2C189.4 234.2 190.3 233.9 191 233.2C191.8 232.5 192.2 231.7 192.2 230.8C192.2 229.3 191.5 227.9 190 226.4L187 223.3C185.6 221.9 184.9 220.3 184.9 218.7C184.9 217 185.5 215.6 186.7 214.6C187.9 213.6 189.5 213.1 191.6 213.1C194.5 213.1 195.9 213.9 195.9 215.6C195.9 216.7 195.3 217.3 194.2 217.3C193.6 217.3 193.2 217 192.8 216.5L192.2 215.6C191.7 214.8 190.9 214.4 190 214.4C188.5 214.4 187.7 215.2 187.7 216.9C187.8 217.9 188.4 219 189.7 220.3Z" fill="#008998"/>
<path d="M223.6 214.7L227.1 215C229.6 215.2 231.6 214.6 233.2 213.2C234.8 211.8 235.6 209.8 235.6 207.4C235.6 205.1 234.9 203.2 233.4 201.9C231.9 200.6 230 199.9 227.4 199.9C225.7 199.9 224.7 200 224.2 200.4C223.8 200.7 223.5 201.6 223.3 203L222.1 212.5L222 213.1C222 213.5 221.9 213.7 221.9 213.8C221.9 214.4 222.1 214.7 222.6 214.7H223.6ZM227 216.3L223.6 216H223.1C222.2 216 221.7 216.4 221.6 217.1L221.5 218.1L220.1 230L219.9 231.8C219.9 232.6 220.3 233.1 221.1 233.5C221.9 233.9 223.3 234 225.3 234C228.3 234 230.8 233.2 232.6 231.5C234.4 229.8 235.3 227.5 235.3 224.7C235.3 222.2 234.6 220.3 233.1 218.9C231.7 217.4 229.6 216.5 227 216.3ZM216.2 230.3L219.4 204.1C219.5 203.4 219.5 202.9 219.5 202.5C219.5 200.9 218.7 199.9 217 199.6C216 199.4 215.5 199.1 215.5 198.9C215.5 198.5 215.8 198.3 216.3 198.3C216.6 198.3 217 198.4 217.5 198.5C218.4 198.7 219.2 198.7 219.8 198.7C220.5 198.7 221.9 198.6 224.2 198.4C225.5 198.3 226.9 198.2 228.1 198.2C230.6 198.2 232.5 198.4 233.9 198.8C235.3 199.2 236.5 199.9 237.5 200.9C238.9 202.4 239.7 204.2 239.7 206.4C239.7 208.2 239.1 209.9 238 211.5C236.9 213 235.3 214.2 233.4 215.1C233 215.3 232.8 215.5 232.8 215.7C232.8 215.9 233 216 233.5 216.1C235.3 216.5 236.8 217.5 238 219.1C239.2 220.7 239.8 222.4 239.8 224.4C239.8 227.2 238.6 229.8 236.2 232C234.8 233.3 233.3 234.2 231.7 234.7C230.1 235.2 228 235.5 225.5 235.5C224.3 235.5 223.3 235.5 222.3 235.4C219.9 235.2 218.6 235.1 218.4 235.1C217.8 235.1 217 235.2 216.1 235.3C215.1 235.4 214.3 235.5 213.9 235.5C213.2 235.5 212.9 235.3 212.9 235C212.9 234.7 213.2 234.5 213.8 234.3C215.2 233.9 216 233.1 216.2 231.8V230.3Z" fill="#008998"/>
<path d="M258.6 224.3C256.3 227.8 254.5 230.3 253.2 231.6C252.2 232.6 251.1 233.5 249.9 234.2C248.7 235 247.7 235.3 247.1 235.3C246.5 235.3 246.1 235 245.7 234.4C245.3 233.8 245.2 233 245.2 232.1C245.2 230.7 245.4 228.8 245.9 226.5L247 220.9C247.3 219.5 247.4 218.6 247.4 218C247.4 217.3 247.2 217 246.8 216.9C246.4 216.9 246 217.1 245.6 217.6C245.1 218.1 244.7 218.7 244.4 219.4C244.1 220 243.8 220.3 243.5 220.3C243.2 220.3 243 220.1 243 219.7C243 218.3 243.6 216.8 244.8 215.3C246 213.8 247.3 213.1 248.5 213.1C249.9 213.1 250.6 214.2 250.6 216.5C250.6 217.1 250.5 217.7 250.4 218.3L248.9 227.6C248.9 227.9 248.8 228.3 248.7 228.9L248.6 230.1C248.6 230.4 248.5 230.6 248.5 230.9C248.5 231.7 248.8 232 249.3 232C249.9 232 250.8 231.4 252 230.2C253.2 229 254.4 227.5 255.7 225.6C258 222.3 259.6 218.7 260.6 214.8C260.8 214.1 261 213.7 261.2 213.5C261.4 213.3 261.7 213.2 262.2 213.2C263.2 213.2 263.6 213.6 263.6 214.3C263.6 214.5 263.6 214.7 263.5 215L262.1 221.3C261.2 225.4 260.8 228.4 260.8 230.4C260.8 231.3 261.2 231.7 261.9 231.7C263 231.7 264 230.7 265.1 228.7C265.3 228.3 265.6 228 265.9 228C266.3 228 266.4 228.2 266.4 228.6C266.4 229.9 265.6 231.3 263.9 232.9C262.3 234.4 260.7 235.2 259.3 235.2C258.1 235.2 257.5 234.3 257.5 232.4C257.5 231 257.7 229.3 258 227.3L258.3 225.8C258.4 225.7 258.5 225.1 258.6 224.3Z" fill="#008998"/>
<path d="M274.5 220.3L278.3 224.4C279.5 225.7 280.1 227.3 280.1 229.1C280.1 230.9 279.4 232.5 277.9 233.7C276.5 235 274.7 235.6 272.6 235.6C271 235.6 269.7 235.3 268.6 234.6C267.5 234 266.9 233.2 266.9 232.3C266.9 231.2 267.4 230.6 268.5 230.6C269.1 230.6 269.7 231 270.3 231.9L270.9 232.9C271.4 233.8 272.1 234.2 273.1 234.2C274.2 234.2 275.1 233.9 275.8 233.2C276.6 232.5 277 231.7 277 230.8C277 229.3 276.3 227.9 274.9 226.4L271.9 223.3C270.5 221.9 269.8 220.3 269.8 218.7C269.8 217 270.4 215.6 271.6 214.6C272.8 213.6 274.4 213.1 276.5 213.1C279.4 213.1 280.8 213.9 280.8 215.6C280.8 216.7 280.2 217.3 279.1 217.3C278.5 217.3 278.1 217 277.7 216.5L277.1 215.6C276.6 214.8 275.8 214.4 274.9 214.4C273.4 214.4 272.6 215.2 272.6 216.9C272.6 217.9 273.2 219 274.5 220.3Z" fill="#008998"/>
<path d="M291.2 202.3C291.4 202.3 291.5 202.5 291.7 202.8C292 203.4 292.2 203.7 292.2 203.8L292.8 204.7C293 204.9 293 205.1 293 205.2C293 205.4 292.9 205.6 292.6 205.8C292.2 206.2 291.7 206.7 291.2 207.4C291 207.7 290.8 207.8 290.6 207.8C290.4 207.8 290.2 207.6 290 207.3C289.6 206.5 289.3 205.9 289 205.5C288.8 205.3 288.8 205.1 288.8 204.9C288.8 204.7 288.9 204.5 289.1 204.3L289.8 203.5C289.9 203.4 290.1 203.1 290.5 202.6C290.8 202.5 291 202.3 291.2 202.3ZM286.6 224.3L287.7 217.6C287.8 217.1 287.8 216.7 287.8 216.3C287.8 215.6 287.3 215.2 286.2 215.2H284.7C283.9 215.2 283.5 215 283.5 214.7C283.5 214.3 283.9 214.1 284.6 214.1C286.3 214.1 287.9 213.9 289.4 213.6C290 213.5 290.5 213.4 290.8 213.4C291.2 213.4 291.3 213.6 291.3 214.1V214.4L289.8 221.9C289.1 225.6 288.7 228.4 288.7 230.3C288.7 231.4 289 231.9 289.5 232C290.3 232.1 291.1 231.3 291.9 229.8C292.1 229.4 292.3 229.2 292.5 229.2C292.8 229.2 292.9 229.4 292.9 229.8C292.8 231 292.1 232.3 290.8 233.6C289.5 235 288.3 235.7 287.3 235.7C286.8 235.7 286.3 235.3 286 234.5C285.7 233.7 285.5 232.7 285.5 231.4C285.8 229.8 286 227.5 286.6 224.3Z" fill="#008998"/>
<path d="M303.2 218.7C304.4 217 305.8 215.7 307.3 214.8C308.8 213.8 310.3 213.4 311.7 213.4C312.8 213.4 313.7 214 314.5 215.1C315.2 216.3 315.6 217.7 315.6 219.5C315.6 220.5 315.5 221.8 315.4 223.4L314.8 230.4C314.8 230.6 314.8 230.8 314.8 230.9C314.8 231.8 315.1 232.3 315.6 232.3C316.5 232.3 317.4 231.7 318.2 230.5C318.6 230 318.9 229.7 319.2 229.7C319.5 229.7 319.7 229.9 319.7 230.2C319.6 231.2 318.9 232.3 317.4 233.6C315.9 234.9 314.7 235.6 313.7 235.6C312.4 235.6 311.8 234.4 311.8 232C311.8 231.5 311.8 230.7 311.9 229.8L312.6 221.5C312.6 221.1 312.6 220.7 312.6 220.3C312.6 218.9 312.3 217.8 311.8 216.9C311.3 216.1 310.6 215.6 309.7 215.6C308.2 215.6 306.8 216.5 305.7 218.4C304.6 220.3 303.8 222.8 303.4 225.9L302.4 234.1C302.3 234.6 302.2 235 301.9 235.2C301.6 235.4 301.2 235.5 300.5 235.5C299.6 235.5 299.1 235.2 299.2 234.6L299.3 234.1L300.2 227.1C300.3 226 300.5 224.9 300.6 223.9C300.8 222 301 220.6 301 219.7C301 217.9 300.6 217.1 299.8 217.1C299.5 217.1 299.1 217.3 298.7 217.8C298.3 218.2 298 218.7 297.8 219.3C297.6 220 297.3 220.3 297 220.3C296.6 220.3 296.5 220.1 296.5 219.6C296.5 218.4 297 217.1 298.1 215.7C299.2 214.3 300.2 213.6 301.2 213.6C301.8 213.6 302.4 214 302.8 214.8C303.2 215.6 303.4 216.6 303.4 217.8V218.7H303.2Z" fill="#008998"/>
<path d="M324.5 223.6C327.2 223.6 329.5 223 331.4 221.7C333.2 220.4 334.2 218.9 334.2 217C334.2 215.3 333.4 214.5 331.7 214.5C330.2 214.5 328.7 215.4 327.3 217.2C325.9 218.8 325 220.9 324.5 223.6ZM324.4 224.6C324.3 225.4 324.3 226 324.3 226.5C324.3 228.3 324.9 229.9 326.1 231.2C327.3 232.5 328.8 233.1 330.6 233.1C332.8 233.1 334.6 232.4 335.9 231.1C336.3 230.7 336.6 230.5 336.7 230.5C337 230.5 337.1 230.7 337.1 231C337.1 231.6 336.5 232.4 335.2 233.4C333.2 235 330.9 235.8 328.3 235.8C326.1 235.8 324.4 235.1 323.1 233.7C321.8 232.3 321.2 230.4 321.2 228.1C321.2 224.5 322.4 221.1 324.8 218C327.2 214.9 329.8 213.3 332.6 213.3C334 213.3 335.1 213.7 336 214.4C336.9 215.1 337.3 216.1 337.3 217.3C337.3 219.4 335.9 221.3 333.1 222.9C330.9 224 328 224.6 324.4 224.6Z" fill="#008998"/>
<path d="M346 220.3L349.8 224.4C351 225.7 351.6 227.3 351.6 229.1C351.6 230.9 350.9 232.5 349.4 233.7C348 235 346.2 235.6 344.1 235.6C342.5 235.6 341.2 235.3 340.1 234.6C339 234 338.4 233.2 338.4 232.3C338.4 231.2 338.9 230.6 340 230.6C340.6 230.6 341.2 231 341.8 231.9L342.4 232.9C342.9 233.8 343.6 234.2 344.6 234.2C345.7 234.2 346.6 233.9 347.3 233.2C348.1 232.5 348.5 231.7 348.5 230.8C348.5 229.3 347.8 227.9 346.3 226.4L343.3 223.3C341.9 221.9 341.2 220.3 341.2 218.7C341.2 217 341.8 215.6 343 214.6C344.2 213.6 345.8 213.1 347.9 213.1C350.8 213.1 352.2 213.9 352.2 215.6C352.2 216.7 351.6 217.3 350.5 217.3C349.9 217.3 349.5 217 349.1 216.5L348.5 215.6C348 214.8 347.2 214.4 346.3 214.4C344.8 214.4 344 215.2 344 216.9C344.1 217.9 344.7 219 346 220.3Z" fill="#008998"/>
<path d="M361.1 220.3L364.9 224.4C366.1 225.7 366.7 227.3 366.7 229.1C366.7 230.9 366 232.5 364.5 233.7C363.1 235 361.3 235.6 359.2 235.6C357.6 235.6 356.3 235.3 355.2 234.6C354.1 234 353.5 233.2 353.5 232.3C353.5 231.2 354 230.6 355.1 230.6C355.7 230.6 356.3 231 356.9 231.9L357.5 232.9C358 233.8 358.7 234.2 359.7 234.2C360.8 234.2 361.7 233.9 362.4 233.2C363.2 232.5 363.6 231.7 363.6 230.8C363.6 229.3 362.9 227.9 361.4 226.4L358.4 223.3C357 221.9 356.3 220.3 356.3 218.7C356.3 217 356.9 215.6 358.1 214.6C359.3 213.6 360.9 213.1 363 213.1C365.9 213.1 367.3 213.9 367.3 215.6C367.3 216.7 366.7 217.3 365.6 217.3C365 217.3 364.6 217 364.2 216.5L363.6 215.6C363.1 214.8 362.3 214.4 361.4 214.4C359.9 214.4 359.1 215.2 359.1 216.9C359.3 217.9 359.9 219 361.1 220.3Z" fill="#008998"/>
<path d="M387.6 230.3L390.8 204.1C390.9 203.4 390.9 202.9 390.9 202.5C390.9 200.9 390.1 199.9 388.4 199.6C387.4 199.4 386.9 199.1 386.9 198.9C386.9 198.5 387.2 198.3 387.7 198.3C388.3 198.3 389 198.3 389.9 198.4C391.7 198.6 395 198.6 400 198.6C404.7 198.6 408.1 198.5 410.3 198.3C411.3 198.2 412 198.2 412.5 198.2C413 198.2 413.3 198.4 413.3 198.9L413.2 201.5L413.3 205.6C413.3 206.2 413.1 206.5 412.7 206.5C412.3 206.5 412 206.1 412 205.4C411.9 203.4 411.4 202.1 410.4 201.6C409.4 201 407.3 200.7 404 200.7H401.8L396.9 200.6C396.1 200.6 395.7 200.7 395.4 200.9C395.2 201.1 395 201.6 394.9 202.4L393.5 214.1C393.5 214.3 393.4 214.5 393.4 214.6C393.4 215 393.8 215.2 394.6 215.2H402.1C404.5 215.2 406 214.1 406.6 211.9C406.7 211.5 406.9 211.2 407.2 211.2C407.6 211.2 407.8 211.4 407.8 211.9C407.8 212.5 407.7 213.4 407.4 214.5C407.2 215.8 407 217.4 406.9 219.3C406.8 220.6 406.7 221.5 406.6 221.9C406.5 222.3 406.3 222.5 406 222.5C405.6 222.5 405.5 222.3 405.5 221.8V220.6C405.5 218.6 404.1 217.6 401.3 217.6H394.9C394.1 217.6 393.6 217.7 393.4 217.8C393.2 217.9 393.1 218.3 393 218.9L391.6 230.5C391.6 230.7 391.6 230.9 391.6 231.1C391.6 232 391.9 232.6 392.4 232.8C392.9 233.1 394.1 233.2 395.9 233.2C403.8 233.2 408.7 231.8 410.6 228.9C411 228.2 411.4 227.9 411.7 227.9C412.1 227.9 412.2 228.1 412.2 228.5C412.2 229.1 411.9 229.9 411.3 230.9C410.7 232 410.1 232.9 409.4 233.7C408.7 234.5 407.9 235 407.3 235.3C406.6 235.6 405.5 235.7 403.9 235.7C403.1 235.7 401.6 235.6 399.2 235.5C397.5 235.4 395.8 235.3 394.1 235.3C392.2 235.3 390.5 235.4 388.9 235.5C387.3 235.6 386.1 235.7 385.1 235.7C384.4 235.7 384.1 235.5 384.1 235.2C384.1 234.9 384.4 234.7 385.1 234.5C386.1 234.3 386.7 233.9 387 233.5C387.2 232.8 387.4 231.9 387.6 230.3Z" fill="#008998"/>
<path d="M421.1 218.7C422.3 217 423.7 215.7 425.3 214.8C426.8 213.8 428.3 213.4 429.7 213.4C430.8 213.4 431.7 214 432.5 215.1C433.2 216.3 433.6 217.7 433.6 219.5C433.6 220.5 433.5 221.8 433.4 223.4L432.8 230.4C432.8 230.6 432.8 230.8 432.8 230.9C432.8 231.8 433.1 232.3 433.6 232.3C434.5 232.3 435.4 231.7 436.2 230.5C436.6 230 436.9 229.7 437.2 229.7C437.5 229.7 437.7 229.9 437.7 230.2C437.6 231.2 436.9 232.3 435.4 233.6C433.9 234.9 432.7 235.6 431.7 235.6C430.4 235.6 429.8 234.4 429.8 232C429.8 231.5 429.8 230.7 429.9 229.8L430.6 221.5C430.6 221.1 430.6 220.7 430.6 220.3C430.6 218.9 430.3 217.8 429.8 216.9C429.3 216.1 428.6 215.6 427.7 215.6C426.2 215.6 424.8 216.5 423.7 218.4C422.6 220.3 421.8 222.8 421.4 225.9L420.4 234.1C420.3 234.6 420.2 235 419.9 235.2C419.6 235.4 419.2 235.5 418.5 235.5C417.6 235.5 417.1 235.2 417.2 234.6L417.3 234.1L418.2 227.1C418.3 226 418.5 224.9 418.6 223.9C418.8 222 419 220.6 419 219.7C419 217.9 418.6 217.1 417.8 217.1C417.5 217.1 417.1 217.3 416.7 217.8C416.3 218.2 416 218.7 415.8 219.3C415.6 220 415.3 220.3 415 220.3C414.6 220.3 414.5 220.1 414.5 219.6C414.5 218.4 415 217.1 416.1 215.7C417.2 214.3 418.2 213.6 419.2 213.6C419.8 213.6 420.4 214 420.8 214.8C421.2 215.6 421.4 216.6 421.4 217.8V218.7H421.1Z" fill="#008998"/>
<path d="M446.5 216.8L445.1 227.7C445 228.2 445 228.7 445 229.3C445 230.2 445.2 230.9 445.7 231.5C446.1 232.1 446.7 232.4 447.3 232.4C448.5 232.4 449.7 231.7 450.9 230.4C451.2 230 451.5 229.9 451.8 229.9C452.1 229.9 452.2 230 452.2 230.3C452.2 231.3 451.4 232.4 449.7 233.7C448 235 446.5 235.6 445.2 235.6C444.2 235.6 443.3 235.1 442.7 234.2C442.1 233.2 441.8 232 441.8 230.5C441.8 229.8 441.9 228.9 442 227.8L443.3 217.5C443.4 217.1 443.4 216.7 443.5 216.5C443.5 216.3 443.5 216.2 443.5 216.1C443.5 215.7 443.2 215.5 442.6 215.5H441C440.6 215.5 440.4 215.3 440.4 215C440.4 214.6 440.8 214.2 441.5 213.8C443.5 212.7 445 211.3 446.2 209.4C446.5 208.9 446.8 208.7 447.1 208.7C447.5 208.7 447.7 208.9 447.7 209.2C447.7 209.4 447.7 209.6 447.5 209.9C447.5 210 447.4 210.4 447.2 210.9L447 211.8L446.8 212.5C446.8 212.7 446.8 212.8 446.8 212.9C446.8 213.3 447.2 213.5 447.9 213.5H448.1L451.8 213.4C452.4 213.4 452.7 213.6 452.7 214.1C452.7 214.9 452.2 215.3 451.3 215.3L448.1 215.2H447.7C447.2 215.2 446.9 215.3 446.7 215.5C446.7 215.8 446.5 216.2 446.5 216.8Z" fill="#008998"/>
<path d="M457.6 223.6C460.3 223.6 462.6 223 464.5 221.7C466.4 220.4 467.3 218.9 467.3 217C467.3 215.3 466.4 214.5 464.8 214.5C463.3 214.5 461.8 215.4 460.4 217.2C459 218.8 458.1 220.9 457.6 223.6ZM457.5 224.6C457.4 225.4 457.4 226 457.4 226.5C457.4 228.3 458 229.9 459.2 231.2C460.4 232.5 461.9 233.1 463.6 233.1C465.8 233.1 467.6 232.4 468.9 231.1C469.3 230.7 469.6 230.5 469.7 230.5C470 230.5 470.1 230.7 470.1 231C470.1 231.6 469.5 232.4 468.2 233.4C466.2 235 463.9 235.8 461.3 235.8C459.1 235.8 457.4 235.1 456.1 233.7C454.8 232.3 454.2 230.4 454.2 228.1C454.2 224.5 455.4 221.1 457.8 218C460.2 214.9 462.8 213.3 465.6 213.3C467 213.3 468.1 213.7 469 214.4C469.9 215.1 470.3 216.1 470.3 217.3C470.3 219.4 468.9 221.3 466.1 222.9C464 224 461.1 224.6 457.5 224.6Z" fill="#008998"/>
<path d="M479.7 218.9C481.7 215.2 483.8 213.4 486 213.4C487.3 213.4 487.9 213.8 487.9 214.7C487.9 214.9 487.9 215.2 487.7 215.5C487.6 215.9 487.5 216.1 487.5 216.2L487.2 217.5C487.1 218.1 486.8 218.4 486.4 218.4C486.2 218.4 486 218.2 485.8 217.8C485.4 216.8 484.7 216.3 483.9 216.3C483.1 216.3 482.3 217.2 481.7 219.1C481.1 220.9 480.6 223.9 480.1 227.9L479.3 234.2V234.5C479.2 235.2 478.7 235.6 477.6 235.6C476.7 235.6 476.2 235.3 476.2 234.7C476.2 234.6 476.2 234.4 476.2 234.2L477.5 223.6C477.6 223 477.6 222.3 477.6 221.4C477.6 218.7 477 217.4 475.8 217.4C475.3 217.4 474.8 217.7 474.3 218.3C473.9 218.9 473.6 219.6 473.4 220.5C473.3 221.2 473.1 221.5 472.8 221.5C472.4 221.5 472.2 221.1 472.2 220.2C472.2 218.4 472.7 216.9 473.6 215.7C474 215.1 474.6 214.6 475.2 214.2C475.8 213.8 476.3 213.5 476.7 213.5C477.7 213.5 478.7 215.3 479.7 218.9Z" fill="#008998"/>
<path d="M496.6 215.2L494.6 231.5C494.6 231.8 494.6 232.1 494.6 232.5C494.6 233.4 495.4 233.9 496.9 233.9C499.5 233.9 501.6 232.7 503.5 230.3C505.3 227.9 506.2 225 506.2 221.7C506.2 219.6 505.6 218 504.3 216.8C503 215.6 501.2 215.1 498.9 215.1C498.2 215 497.5 215 496.6 215.2ZM496.8 213.8C498.5 213.5 499.8 213.4 500.8 213.4C503.6 213.4 505.8 214.1 507.4 215.4C509 216.7 509.8 218.5 509.8 220.8C509.8 222.8 509.3 224.8 508.3 227C507.3 229.1 506.1 230.8 504.5 232.2C502.2 234.3 499.6 235.3 496.9 235.3C496.3 235.3 495.9 235.3 495.6 235.2C495.2 235.1 495 235.1 494.8 235.1C494.4 235.1 494.1 235.3 494.1 235.8L494 236.4L493.5 240.5C493.5 240.7 493.4 241 493.4 241.4C493.4 242.1 493.6 242.6 493.9 242.8C494.2 243 494.9 243.3 496 243.4L496.8 243.5C497.3 243.6 497.6 243.8 497.6 244.1C497.6 244.6 497.2 244.8 496.5 244.8C496.1 244.8 495.6 244.8 495.2 244.7L494.7 244.6C494.1 244.5 493.3 244.5 492.2 244.5C491.1 244.5 490.3 244.5 489.7 244.6L489.1 244.7C488.8 244.7 488.5 244.7 488.3 244.7C487.6 244.7 487.2 244.5 487.2 244C487.2 243.7 487.4 243.5 487.9 243.4C488.7 243.2 489.3 243 489.5 242.6C489.7 242.3 489.9 241.4 490.1 240.1L493.1 215.9C492.4 216.1 491.7 216.3 491.3 216.5L490.5 216.8L490.1 216.9C489.9 217 489.8 217 489.7 217C489.5 217 489.4 216.9 489.4 216.7V216.5L489.5 216.1C489.6 215.9 489.8 215.7 490.3 215.6C490.4 215.6 490.8 215.4 491.5 215.1C491.8 215 492.1 214.9 492.6 214.7L493.3 214.5L493.4 213.4C493.7 210.7 494.1 208.9 494.7 208C495.2 207.1 496.1 206.6 497.3 206.6C497.7 206.6 497.9 206.8 497.9 207.1C497.9 207.3 497.8 207.7 497.6 208.4C497.3 209.4 497 210.4 496.9 211.4L496.8 213.8Z" fill="#008998"/>
<path d="M518.9 218.9C520.9 215.2 523 213.4 525.2 213.4C526.5 213.4 527.1 213.8 527.1 214.7C527.1 214.9 527 215.2 526.9 215.5C526.8 215.9 526.7 216.1 526.7 216.2L526.4 217.5C526.3 218.1 526 218.4 525.6 218.4C525.4 218.4 525.2 218.2 525 217.8C524.6 216.8 523.9 216.3 523.1 216.3C522.3 216.3 521.5 217.2 520.9 219.1C520.3 220.9 519.7 223.9 519.3 227.9L518.5 234.2V234.5C518.4 235.2 517.9 235.6 516.8 235.6C515.8 235.6 515.4 235.3 515.4 234.7C515.4 234.6 515.4 234.4 515.4 234.2L516.7 223.6C516.8 223 516.8 222.3 516.8 221.4C516.8 218.7 516.2 217.4 515 217.4C514.5 217.4 514 217.7 513.5 218.3C513 218.9 512.8 219.6 512.6 220.5C512.5 221.2 512.3 221.5 512 221.5C511.6 221.5 511.4 221.1 511.4 220.2C511.4 218.4 511.9 216.9 512.8 215.7C513.2 215.1 513.8 214.6 514.4 214.2C515 213.8 515.5 213.5 515.9 213.5C517 213.5 518 215.3 518.9 218.9Z" fill="#008998"/>
<path d="M535.2 202.3C535.4 202.3 535.5 202.5 535.7 202.8C536 203.4 536.2 203.7 536.2 203.8L536.8 204.7C537 204.9 537 205.1 537 205.2C537 205.4 536.9 205.6 536.6 205.8C536.2 206.2 535.7 206.7 535.1 207.4C534.9 207.7 534.7 207.8 534.5 207.8C534.3 207.8 534.1 207.6 533.9 207.3C533.5 206.5 533.2 205.9 532.9 205.5C532.7 205.3 532.7 205.1 532.7 204.9C532.7 204.7 532.8 204.5 533 204.3L533.8 203.5C533.9 203.4 534.1 203.1 534.5 202.6C534.8 202.5 535 202.3 535.2 202.3ZM530.5 224.3L531.6 217.6C531.7 217.1 531.7 216.7 531.7 216.3C531.7 215.6 531.2 215.2 530.1 215.2H528.6C527.8 215.2 527.4 215 527.4 214.7C527.4 214.3 527.8 214.1 528.6 214.1C530.2 214.1 531.8 213.9 533.4 213.6C534 213.5 534.5 213.4 534.8 213.4C535.2 213.4 535.4 213.6 535.4 214.1V214.4L533.9 221.9C533.2 225.6 532.8 228.4 532.8 230.3C532.8 231.4 533.1 231.9 533.6 232C534.4 232.1 535.2 231.3 536 229.8C536.2 229.4 536.4 229.2 536.6 229.2C536.9 229.2 537 229.4 537 229.8C536.9 231 536.2 232.3 534.9 233.6C533.6 235 532.4 235.7 531.4 235.7C530.9 235.7 530.4 235.3 530.1 234.5C529.8 233.7 529.6 232.7 529.6 231.4C529.7 229.8 530 227.5 530.5 224.3Z" fill="#008998"/>
<path d="M546.3 220.3L550.1 224.4C551.3 225.7 551.9 227.3 551.9 229.1C551.9 230.9 551.2 232.5 549.7 233.7C548.3 235 546.5 235.6 544.4 235.6C542.8 235.6 541.5 235.3 540.4 234.6C539.3 234 538.7 233.2 538.7 232.3C538.7 231.2 539.2 230.6 540.3 230.6C540.9 230.6 541.5 231 542.1 231.9L542.7 232.9C543.2 233.8 543.9 234.2 544.9 234.2C546 234.2 546.9 233.9 547.6 233.2C548.4 232.5 548.8 231.7 548.8 230.8C548.8 229.3 548.1 227.9 546.6 226.4L543.6 223.3C542.2 221.9 541.5 220.3 541.5 218.7C541.5 217 542.1 215.6 543.3 214.6C544.5 213.6 546.1 213.1 548.2 213.1C551.1 213.1 552.5 213.9 552.5 215.6C552.5 216.7 551.9 217.3 550.8 217.3C550.2 217.3 549.8 217 549.4 216.5L548.8 215.6C548.3 214.8 547.5 214.4 546.6 214.4C545.1 214.4 544.3 215.2 544.3 216.9C544.5 217.9 545.1 219 546.3 220.3Z" fill="#008998"/>
<path d="M558.5 223.6C561.2 223.6 563.5 223 565.4 221.7C567.2 220.4 568.2 218.9 568.2 217C568.2 215.3 567.4 214.5 565.7 214.5C564.2 214.5 562.7 215.4 561.3 217.2C559.9 218.8 559 220.9 558.5 223.6ZM558.4 224.6C558.3 225.4 558.3 226 558.3 226.5C558.3 228.3 558.9 229.9 560.1 231.2C561.3 232.5 562.8 233.1 564.6 233.1C566.8 233.1 568.6 232.4 569.9 231.1C570.3 230.7 570.6 230.5 570.7 230.5C571 230.5 571.1 230.7 571.1 231C571.1 231.6 570.5 232.4 569.2 233.4C567.2 235 564.9 235.8 562.3 235.8C560.1 235.8 558.4 235.1 557.1 233.7C555.8 232.3 555.2 230.4 555.2 228.1C555.2 224.5 556.4 221.1 558.8 218C561.2 214.9 563.8 213.3 566.6 213.3C568 213.3 569.1 213.7 570 214.4C570.9 215.1 571.3 216.1 571.3 217.3C571.3 219.4 569.9 221.3 567.1 222.9C564.9 224 562 224.6 558.4 224.6Z" fill="#008998"/>
<path d="M3.2002 66.7C3.2002 31.5 31.0002 3 65.3002 3H541.2C575.5 3 603.3 31.5 603.3 66.7V199.3C603.3 234.4 575.5 263 541.2 263H65.3002C31.0002 263 3.2002 234.5 3.2002 199.3V66.7V66.7Z" stroke="#008998" stroke-width="5.2399" stroke-miterlimit="10"/>
</svg>
