<svg width="29" height="30" viewBox="0 0 29 30" fill="none" xmlns="http://www.w3.org/2000/svg">
<g clip-path="url(#clip0_716_586)">
<path d="M14.5 0C6.4931 0 0 6.717 0 15C0 23.283 6.4931 30 14.5 30C22.5069 30 29 23.283 29 15C29 6.717 22.5069 0 14.5 0ZM10.2865 22.6758H6.75506V11.6851H10.2865V22.6758ZM8.52087 10.1843H8.49786C7.31284 10.1843 6.54642 9.34044 6.54642 8.28575C6.54642 7.20726 7.33629 6.38672 8.54433 6.38672C9.75237 6.38672 10.4958 7.20726 10.5188 8.28575C10.5188 9.34044 9.75237 10.1843 8.52087 10.1843ZM23.02 22.6758H19.489V16.796C19.489 15.3184 18.9777 14.3106 17.7 14.3106C16.7245 14.3106 16.1435 14.9904 15.8881 15.6466C15.7948 15.8814 15.772 16.2096 15.772 16.5381V22.6758H12.2408C12.2408 22.6758 12.287 12.7162 12.2408 11.6851H15.772V13.2413C16.2413 12.4924 17.0809 11.4272 18.9545 11.4272C21.2778 11.4272 23.02 12.998 23.02 16.3737V22.6758Z" fill="white"/>
</g>
<defs>
<clipPath id="clip0_716_586">
<rect width="29" height="30" fill="white"/>
</clipPath>
</defs>
</svg>
