<svg width="61" height="51" viewBox="0 0 61 51" fill="none" xmlns="http://www.w3.org/2000/svg">
<path d="M61 43.2486C60.732 43.3826 60.464 43.5836 60.196 43.7176C56.1764 45.9284 52.1567 48.0722 48.1371 50.283C47.6011 50.551 47.2662 50.618 46.7972 50.216C45.1894 49.0101 43.5815 47.6702 41.5717 47.1343C40.0308 46.7323 38.423 46.3304 36.8821 46.3304C29.1778 46.3973 22.1434 44.3205 15.712 40.0999C11.2904 37.2192 6.80178 34.4054 2.31318 31.5247C2.1122 31.3907 1.91122 31.2567 1.71024 31.1227C0.236368 30.1848 -0.232589 28.5769 0.571339 27.2371C1.37527 25.9642 3.18411 25.4952 4.59098 26.2991C5.93086 27.0361 7.20375 27.84 8.54363 28.5769C10.9554 29.9838 13.3002 31.3907 15.712 32.7306C16.1809 32.9985 16.6499 33.1325 17.1859 33.3335C17.2529 33.1325 17.3198 32.9985 17.3198 32.9315C17.5208 30.9217 18.7937 29.7158 20.8705 29.7158C26.2301 29.7828 31.6566 29.8498 37.0161 29.9838C39.6289 30.0508 42.2416 30.0508 44.7874 30.4528C48.74 31.0557 52.0228 33.0655 54.7025 35.9463C56.7793 38.1571 58.7222 40.5019 60.732 42.8467C60.866 42.9807 60.933 43.1146 61 43.2486Z" fill="white"/>
<path d="M28.843 4.25812C30.2499 2.65026 31.9248 1.44437 34.0016 0.774428C35.4085 0.305469 36.8823 0.0374935 38.4232 0.30547C42.6438 1.1094 44.8546 5.73199 42.7108 9.48365C41.1699 12.1634 39.4281 14.6422 37.0833 16.786C35.6094 18.1259 34.2026 19.4658 32.7957 20.8726C31.3888 22.2125 29.9819 23.6194 28.5751 25.0263C28.4411 24.8253 28.2401 24.6243 28.0391 24.4233C24.2874 19.5997 20.4688 14.8432 16.7171 10.0866C14.9083 7.8088 14.7073 5.12904 16.1812 2.78425C17.655 0.506452 20.2008 -0.498459 23.0816 0.238475C25.2254 0.774428 26.9002 1.91333 28.3071 3.58818C28.5081 3.78916 28.6421 3.99014 28.843 4.25812Z" fill="white"/>
</svg>
