<svg width="47" height="113" viewBox="0 0 47 113" fill="none" xmlns="http://www.w3.org/2000/svg">
<path d="M23.5127 100.934C22.9812 100.934 22.4498 100.934 21.9183 100.934C21.9183 100.219 21.9183 99.5038 21.9183 98.7886C21.9183 98.431 21.7412 98.2522 21.3869 98.0734C19.261 97.3582 17.6667 96.1066 16.4266 94.1398C13.2379 88.5969 10.0491 82.8753 6.86039 77.3324C6.68324 76.9748 6.32893 76.6172 5.97463 76.2596C2.60874 73.5776 0.660064 70.0016 0.660064 65.7104C0.482911 62.1343 0.660064 58.3795 0.660064 54.8035C0.660064 54.6247 0.660064 54.4459 0.660064 54.2671C6.15178 54.2671 11.4663 54.2671 16.9581 54.2671C16.9581 53.9095 16.9581 53.7307 16.9581 53.3731C16.9581 51.4063 16.9581 49.6182 16.9581 47.6514C16.9581 46.7574 17.4895 45.8634 17.6667 44.9694C17.8438 44.6118 17.8438 44.2542 17.8438 44.0754C17.8438 40.857 17.8438 37.6386 17.8438 34.2413C17.8438 34.0625 17.8438 33.7049 17.8438 33.3473C23.1584 32.8109 27.5872 34.4201 30.9531 38.5326C31.3074 38.8902 31.6617 39.2478 32.016 39.6054C33.0789 40.3206 33.6104 41.3934 33.9647 42.645C34.1418 42.4662 34.319 42.4662 34.319 42.4662C35.7362 41.5722 37.1534 41.3934 38.5706 42.1086C39.9879 42.8238 40.8736 44.0754 40.8736 45.8634C40.8736 47.115 40.8736 48.3666 40.8736 49.6182C41.0508 49.4394 41.2279 49.4394 41.4051 49.4394C44.0624 48.1878 46.7196 49.9758 46.7196 52.8367C46.7196 65.8892 46.7196 78.7628 46.7196 91.8153C46.7196 93.6034 46.3653 95.3914 45.4796 97.0006C45.1253 97.537 44.9481 98.0734 44.4167 98.2522C43.5309 98.7886 43.3537 99.5038 43.5309 100.577C43.5309 100.755 43.5309 100.934 43.5309 101.113C42.9994 101.113 42.468 101.113 41.9365 101.113C41.9365 100.755 41.9365 100.398 41.9365 99.8614C41.4051 99.8614 41.0508 100.04 40.5193 99.8614C40.165 99.6826 39.8107 99.325 39.8107 99.1462C39.8107 98.9674 40.165 98.431 40.5193 98.431C43.3537 97.8946 44.5938 96.4642 44.9481 93.4245C44.9481 92.8881 45.1253 92.1729 45.1253 91.6365C45.1253 78.7628 45.1253 65.8892 45.1253 53.0155C45.1253 51.9427 44.771 51.2274 43.7081 50.8698C42.8223 50.5122 41.7594 50.691 41.2279 51.4062C40.8736 51.9427 40.6965 52.4791 40.6965 53.0155C40.6965 59.0947 40.6965 65.174 40.6965 71.2532C40.6965 71.432 40.6965 71.7896 40.6965 71.9684C40.5193 72.1472 40.165 72.5048 39.9879 72.5048C39.8107 72.5048 39.4564 72.1472 39.2792 71.9684C39.1021 71.7896 39.2792 71.432 39.2792 71.0744C39.2792 62.8495 39.2792 54.8035 39.2792 46.5786C39.2792 46.0422 39.2792 45.5058 39.1021 45.1482C38.7478 43.8966 37.6849 43.1814 36.4448 43.3602C35.2047 43.539 34.319 44.433 34.319 45.8634C34.319 47.4726 34.319 49.0818 34.319 50.5122C34.319 57.4855 34.319 64.6376 34.319 71.6108C34.319 71.9684 34.319 72.1472 34.319 72.5048C34.319 73.22 33.9647 73.3988 33.4332 73.3988C32.7246 73.3988 32.5475 73.0412 32.5475 72.326C32.5475 66.068 32.5475 59.6311 32.5475 53.3731C32.5475 49.9758 32.5475 46.5786 32.5475 43.3602C32.5475 41.5722 31.1302 40.3206 29.3587 40.3206C27.5872 40.3206 26.17 41.751 26.17 43.3602C26.17 46.7574 26.17 50.1546 26.17 53.5519C26.17 59.6311 26.17 65.8892 26.17 71.9684C26.17 72.326 25.9928 73.0412 25.8157 73.0412C25.2842 73.22 24.7528 73.22 24.0442 73.0412C23.867 73.0412 23.6898 72.6836 23.6898 72.326C23.6898 71.9684 23.6898 71.6108 23.6898 71.2532C23.6898 63.2071 23.6898 55.3399 23.6898 47.2938C23.6898 45.8634 22.8041 44.7906 21.564 44.6118C20.324 44.433 19.261 45.1482 18.7296 46.221C18.5524 46.5786 18.5524 47.115 18.5524 47.4726C18.5524 55.8763 18.5524 64.4587 18.5524 72.8624C18.5524 73.7564 18.3753 74.6504 18.021 75.5444C17.4895 76.6172 16.2495 76.9748 15.3637 76.0808C15.0094 75.7232 14.8322 75.5444 14.6551 75.008C13.2379 72.5048 11.6435 70.0016 10.2263 67.6772C9.51767 66.4256 8.10046 65.8892 6.68324 66.4256C5.44317 66.962 4.73456 68.2136 4.91172 69.644C4.91172 69.8228 5.08887 70.1804 5.26602 70.3592C9.34052 78.0476 13.415 85.7361 18.021 93.067C19.0839 94.6762 20.5011 95.749 22.2726 96.2854C23.3355 96.643 23.3355 96.643 23.3355 97.7158C23.5127 98.9674 23.5127 100.04 23.5127 100.934Z" fill="white"/>
<path d="M16.7809 52.4791C11.4663 52.4791 6.15178 52.4791 0.837209 52.4791C0.837209 48.3667 0.305752 44.0755 2.60873 40.3207C5.26601 35.8506 9.16336 33.5262 14.3008 33.3474C15.1865 33.3474 15.8951 33.3474 16.7809 33.3474C16.7809 39.7843 16.7809 46.0423 16.7809 52.4791Z" fill="white"/>
<path d="M42.6451 112.02C35.9133 112.02 29.3587 112.02 22.8041 112.02C22.8041 108.98 22.8041 105.762 22.8041 102.722C29.3587 102.722 36.0905 102.722 42.6451 102.722C42.6451 105.762 42.6451 108.802 42.6451 112.02Z" fill="white"/>
<path d="M18.3753 26.3741C17.8438 26.3741 17.3124 26.3741 16.7809 26.3741C16.7809 26.0165 16.7809 25.6589 16.7809 25.3013C16.7809 24.4073 16.7809 23.5133 16.7809 22.7981C16.6038 20.8313 15.1865 19.5797 13.2379 19.5797C10.5806 19.5797 7.9233 19.5797 5.26602 19.5797C2.96304 19.5797 1.36867 18.5069 0.48291 16.3612C-0.402851 14.3944 -0.0485463 12.4276 1.36867 10.6396C2.43159 9.388 3.8488 8.85159 5.26602 8.85159C12.175 8.85159 19.261 8.85159 26.17 8.85159C27.7644 8.85159 29.1816 8.13639 29.8902 6.70598C30.9531 4.20276 29.1816 1.52074 26.5243 1.52074C24.0442 1.52074 21.564 1.52074 19.0839 1.52074C18.9067 1.52074 18.5524 1.52074 18.3753 1.52074C18.1981 1.34194 17.8438 0.984338 17.8438 0.805537C17.8438 0.447934 18.1981 0.269133 18.3753 0.090332H18.7296C21.3869 0.090332 24.0442 0.090332 26.7014 0.090332C29.3587 0.090332 31.6617 2.23595 31.8389 4.91797C32.016 7.59998 30.2445 10.1032 27.5872 10.6396C27.0557 10.8184 26.5243 10.8184 26.17 10.8184C19.261 10.8184 12.3521 10.8184 5.44317 10.8184C3.31735 10.8184 1.72298 12.2488 1.54582 14.2156C1.36867 16.54 2.96304 18.3281 5.44317 18.3281C8.10046 18.3281 10.5806 18.3281 13.2379 18.3281C16.4266 18.3281 18.3753 20.2949 18.5524 23.5133C18.3753 24.2285 18.3753 25.3013 18.3753 26.3741Z" fill="white"/>
<path d="M20.1468 28.1621C20.1468 29.4137 20.1468 30.4865 20.1468 31.7381C18.3753 31.7381 16.6038 31.7381 14.8322 31.7381C14.8322 30.4865 14.8322 29.4137 14.8322 28.1621C16.6038 28.1621 18.3753 28.1621 20.1468 28.1621Z" fill="white"/>
</svg>
