<svg width="53" height="50" viewBox="0 0 53 50" fill="none" xmlns="http://www.w3.org/2000/svg">
<path d="M41.115 14.8387C35.876 9.55378 27.3753 9.55378 22.1363 14.8387C16.8973 20.1236 16.8973 28.6987 22.1363 33.9836C26.71 38.5974 33.7601 39.1846 38.9621 35.7546C38.7127 36.202 38.7773 36.7798 39.1562 37.162C39.4981 37.5069 40.0155 37.5908 40.4405 37.4137C40.5791 37.6933 40.7639 37.945 40.9857 38.178L47.8509 45.1033C49.0244 46.2871 50.9463 46.2871 52.1197 45.1033C53.2932 43.9196 53.2932 41.9809 52.1197 40.7971L45.2545 33.8718C45.0327 33.6481 44.774 33.4616 44.5061 33.3218C44.6909 32.8931 44.617 32.3618 44.2658 32.0076C43.887 31.6254 43.3141 31.5695 42.8706 31.8119C46.2709 26.5642 45.6888 19.4525 41.115 14.8387ZM38.7404 31.5975C34.8134 35.5588 28.4379 35.5588 24.5017 31.5975C20.5655 27.6361 20.5748 21.2048 24.5017 17.2341C28.4287 13.2728 34.8042 13.2728 38.7404 17.2341C42.6766 21.1955 42.6766 27.6268 38.7404 31.5975Z" fill="white"/>
<path d="M27.2182 22.1185V25.1944C27.2182 25.4647 27.209 25.6884 27.1812 25.8748C27.1628 26.0612 27.1073 26.2476 27.0242 26.4433C26.8948 26.7696 26.673 27.0212 26.3681 27.1983C26.0632 27.3754 25.6936 27.4686 25.2593 27.4686C24.862 27.4686 24.5386 27.4034 24.2707 27.2822C24.012 27.161 23.7994 26.956 23.6331 26.6764C23.55 26.5272 23.476 26.3501 23.4298 26.1637C23.3744 25.968 23.3467 25.7816 23.3467 25.6045C23.3467 25.4181 23.4021 25.2782 23.5038 25.1757C23.6054 25.0732 23.7348 25.0266 23.9011 25.0266C24.0582 25.0266 24.1783 25.0732 24.2522 25.1664C24.3353 25.2596 24.3908 25.3994 24.437 25.5952C24.4832 25.8002 24.5294 25.968 24.5756 26.0892C24.6218 26.2103 24.6957 26.3129 24.7973 26.4061C24.899 26.4899 25.0561 26.5366 25.2501 26.5366C25.7675 26.5366 26.0355 26.1544 26.0355 25.3808V22.1371C26.0355 21.8948 26.0909 21.7177 26.1926 21.5965C26.2942 21.4754 26.442 21.4194 26.6176 21.4194C26.8024 21.4194 26.941 21.4754 27.0519 21.5965C27.1628 21.7177 27.2182 21.8762 27.2182 22.1185Z" fill="white"/>
<path d="M31.053 21.4006C31.6536 21.4006 32.171 21.5218 32.6053 21.7735C33.0395 22.0158 33.3629 22.37 33.5847 22.8267C33.8064 23.2834 33.9173 23.8147 33.9173 24.4299C33.9173 24.8866 33.8526 25.2967 33.7325 25.6696C33.6124 26.0424 33.4276 26.3593 33.1874 26.6389C32.9471 26.9092 32.6422 27.1236 32.2911 27.2634C31.94 27.4032 31.5334 27.4778 31.0714 27.4778C30.6187 27.4778 30.2121 27.4032 29.8518 27.2541C29.4914 27.105 29.1957 26.8999 28.9463 26.6296C28.706 26.3593 28.5212 26.0331 28.4011 25.6602C28.281 25.2781 28.2163 24.868 28.2163 24.4299C28.2163 23.9825 28.281 23.5631 28.4103 23.1902C28.5397 22.8174 28.7245 22.4912 28.9647 22.2302C29.205 21.9692 29.5007 21.7641 29.8518 21.6243C30.2121 21.4659 30.6094 21.4006 31.053 21.4006ZM32.7254 24.4113C32.7254 23.9825 32.6607 23.6097 32.5221 23.2928C32.3835 22.9759 32.1895 22.7428 31.9307 22.5751C31.672 22.4166 31.3856 22.3327 31.053 22.3327C30.822 22.3327 30.6002 22.3793 30.3969 22.4632C30.1936 22.5564 30.0273 22.6869 29.8795 22.8547C29.7317 23.0225 29.6208 23.2462 29.5376 23.5071C29.4545 23.7774 29.4083 24.0757 29.4083 24.4019C29.4083 24.7375 29.4545 25.0357 29.5376 25.3061C29.6208 25.5764 29.7409 25.8001 29.8887 25.9772C30.0366 26.1542 30.2121 26.2847 30.4154 26.3779C30.6094 26.4618 30.8312 26.5084 31.0622 26.5084C31.3671 26.5084 31.6443 26.4339 31.8938 26.2847C32.1433 26.1356 32.3465 25.8933 32.4944 25.5764C32.6515 25.2688 32.7254 24.8773 32.7254 24.4113Z" fill="white"/>
<path d="M37.4191 27.366H35.645C35.3863 27.366 35.2015 27.3101 35.0906 27.1889C34.9798 27.0771 34.9243 26.8906 34.9243 26.639V22.2209C34.9243 21.9599 34.9798 21.7735 35.0906 21.6617C35.2015 21.5498 35.3863 21.4939 35.6358 21.4939H37.5207C37.7979 21.4939 38.0382 21.5125 38.2414 21.5498C38.4447 21.5871 38.6295 21.6524 38.7866 21.7456C38.9252 21.8294 39.0453 21.932 39.1562 22.0625C39.2578 22.193 39.341 22.3328 39.3964 22.4819C39.4519 22.631 39.4796 22.7988 39.4796 22.9666C39.4796 23.5538 39.1839 23.9826 38.6018 24.2529C39.3687 24.4952 39.7475 24.9799 39.7475 25.6883C39.7475 26.0145 39.6644 26.3128 39.4981 26.5737C39.3317 26.8347 39.11 27.0305 38.8235 27.1516C38.648 27.2262 38.4447 27.2821 38.2137 27.3101C37.9827 27.338 37.724 27.366 37.4191 27.366ZM36.107 22.3887V23.908H37.1881C37.4838 23.908 37.7055 23.88 37.8718 23.8241C38.0289 23.7682 38.1583 23.6656 38.2414 23.5072C38.3061 23.3953 38.3431 23.2742 38.3431 23.1344C38.3431 22.8361 38.2414 22.6404 38.0289 22.5471C37.8164 22.4539 37.5022 22.398 37.068 22.398H36.107V22.3887ZM37.3267 24.7562H36.0978V26.4712H37.3636C38.1583 26.4712 38.5556 26.1823 38.5556 25.6044C38.5556 25.3061 38.454 25.0917 38.2414 24.9612C38.0474 24.8307 37.7425 24.7562 37.3267 24.7562Z" fill="white"/>
<path d="M37.253 49.4282H1.24509C0.644499 49.4282 0.154785 48.9342 0.154785 48.3284V1.09985C0.154785 0.494003 0.644499 0 1.24509 0H37.253C37.8535 0 38.3433 0.494003 38.3433 1.09985V7.1211C38.3433 7.72695 37.8535 8.22095 37.253 8.22095C36.6524 8.22095 36.1626 7.72695 36.1626 7.1211V2.19971H2.3354V47.2378H36.1626V43.1647C36.1626 42.5588 36.6524 42.0648 37.253 42.0648C37.8535 42.0648 38.3433 42.5588 38.3433 43.1647V48.3377C38.3433 48.9436 37.8535 49.4282 37.253 49.4282Z" fill="white"/>
<path d="M30.5816 6.97208H6.28994C5.80946 6.97208 5.42139 6.58061 5.42139 6.09593C5.42139 5.61124 5.80022 5.21045 6.28994 5.21045H30.5909C31.0713 5.21045 31.4594 5.60192 31.4594 6.0866C31.4594 6.57129 31.0621 6.97208 30.5816 6.97208Z" fill="white"/>
<path d="M23.7625 11.7628H6.04966C5.69855 11.7628 5.41211 11.3713 5.41211 10.8867C5.41211 10.402 5.69855 10.0105 6.04966 10.0105H23.7625C24.1137 10.0105 24.4001 10.402 24.4001 10.8867C24.4001 11.3713 24.1137 11.7628 23.7625 11.7628Z" fill="white"/>
<path d="M23.7625 38.9889H6.04966C5.69855 38.9889 5.41211 38.5974 5.41211 38.1127C5.41211 37.628 5.69855 37.2366 6.04966 37.2366H23.7625C24.1137 37.2366 24.4001 37.628 24.4001 38.1127C24.4001 38.5974 24.1137 38.9889 23.7625 38.9889Z" fill="white"/>
<path d="M16.5647 17.5697H5.80018C5.58767 17.5697 5.41211 17.1782 5.41211 16.6935C5.41211 16.2089 5.58767 15.8174 5.80018 15.8174H16.5647C16.7772 15.8174 16.9527 16.2089 16.9527 16.6935C16.9527 17.1782 16.7772 17.5697 16.5647 17.5697Z" fill="white"/>
<path d="M16.5647 25.2875H5.80018C5.58767 25.2875 5.41211 24.896 5.41211 24.4113C5.41211 23.9266 5.58767 23.5352 5.80018 23.5352H16.5647C16.7772 23.5352 16.9527 23.9266 16.9527 24.4113C16.9527 24.896 16.7772 25.2875 16.5647 25.2875Z" fill="white"/>
<path d="M16.5647 33.4525H5.80018C5.58767 33.4525 5.41211 33.061 5.41211 32.5764C5.41211 32.0917 5.58767 31.7002 5.80018 31.7002H16.5647C16.7772 31.7002 16.9527 32.0917 16.9527 32.5764C16.9527 33.0517 16.7772 33.4525 16.5647 33.4525Z" fill="white"/>
<path d="M30.5816 44.5255H6.28994C5.80946 44.5255 5.42139 44.134 5.42139 43.6494C5.42139 43.1647 5.80946 42.7732 6.28994 42.7732H30.5909C31.0713 42.7732 31.4594 43.1647 31.4594 43.6494C31.4594 44.134 31.0621 44.5255 30.5816 44.5255Z" fill="white"/>
</svg>
