<svg width="97" height="77" viewBox="0 0 97 77" fill="none" xmlns="http://www.w3.org/2000/svg">
<path d="M59.4318 66.9134C59.4318 69.2925 59.4318 71.4734 59.4318 73.8525C59.4318 74.0508 60.0261 74.4473 60.2242 74.4473C62.0072 74.4473 63.7902 74.4473 65.375 74.4473C66.3655 74.4473 66.9599 75.0421 66.7617 75.8351C66.5636 76.2316 66.1674 76.6282 65.7712 76.8264C65.5731 77.0247 65.1769 76.8264 64.7807 76.8264C53.8848 76.8264 42.989 76.8264 31.8951 76.8264C31.697 76.8264 31.4989 76.8264 31.4989 76.8264C30.3102 76.8264 29.7159 76.4299 29.7159 75.6369C29.7159 74.8438 30.3102 74.4473 31.4989 74.4473C33.2818 74.4473 35.2629 74.4473 37.2439 74.4473C37.2439 72.0682 37.2439 69.8873 37.2439 67.5082C37.2439 67.3099 36.8477 67.1117 36.6496 66.9134C36.4515 66.9134 36.0553 66.9134 35.8572 66.9134C26.15 66.9134 16.4428 66.9134 6.5375 66.9134C2.77348 66.9134 0.198106 64.336 0 60.3708C0 51.0526 0 41.7344 0 32.4161C0 23.8909 0 15.1675 0 6.64228C0 3.66838 1.38674 1.28925 4.16023 0.496213C4.95265 0.297953 5.74508 0.0996931 6.33939 0.0996931C30.9045 0.0996931 55.4697 0.0996931 79.8367 0.0996931C83.0064 0.0996931 86.3742 0.297953 89.5439 0.0996931C93.308 -0.0985672 96.4777 2.87534 96.2795 6.84054C96.0814 13.1849 96.2795 19.3309 96.2795 25.6753C96.2795 37.1744 96.2795 48.6735 96.2795 59.9743C96.2795 63.1465 94.8928 65.5256 92.1193 66.3186C91.525 66.5169 90.7326 66.7151 90.1383 66.7151C80.233 66.7151 70.3277 66.7151 60.4223 66.7151C60.2242 66.9134 59.828 66.9134 59.4318 66.9134ZM89.9402 54.423C90.7326 54.423 91.7231 54.423 92.7136 54.423C93.7042 54.423 93.9023 54.2247 93.9023 53.2334C93.9023 37.7691 93.9023 22.3048 93.9023 6.84054C93.9023 4.0649 92.5155 2.47882 89.5439 2.47882C86.3742 2.47882 83.2046 2.47882 79.8367 2.47882C55.4697 2.47882 31.1027 2.47882 6.73561 2.47882C3.76402 2.47882 2.37727 3.86664 2.37727 6.84054C2.37727 22.3048 2.37727 37.9674 2.37727 53.4317C2.37727 54.2248 2.57538 54.423 3.3678 54.423C17.2352 54.423 31.1026 54.423 44.9701 54.423C45.3663 54.423 45.5644 54.423 45.7625 54.423C45.9606 53.2335 46.1587 52.2421 46.3568 51.4491C47.5455 48.0787 49.7246 45.5013 52.3 43.5187C61.0167 36.7778 74.0917 36.7778 82.8083 43.5187C86.7705 46.0961 89.3458 49.6648 89.9402 54.423ZM48.3379 57.0004C48.3379 57.0004 48.3379 56.8021 48.3379 57.0004C42.3947 57.0004 36.6496 57.0004 30.7064 57.0004C23.3765 57.0004 15.8485 57.0004 8.51856 57.0004C6.73561 57.0004 5.15076 57.0004 3.3678 57.0004C2.77349 57.0004 2.57538 57.1987 2.57538 57.7934C2.57538 58.7847 2.57538 59.776 2.57538 60.7673C2.57538 61.9569 2.97159 62.7499 3.96212 63.543C4.75455 64.336 5.94318 64.336 7.13182 64.336C29.1216 64.336 51.1114 64.336 73.1011 64.336C78.8462 64.336 84.3932 64.336 90.1383 64.336C92.7136 64.336 94.2985 62.7499 94.2985 60.1726C94.2985 59.5778 94.2985 58.7847 94.2985 58.19C94.2985 57.0004 94.2985 57.0004 93.1098 57.0004C77.8557 57.0004 62.9977 57.0004 48.3379 57.0004ZM39.6212 74.0508C39.8193 74.0508 40.0174 74.249 40.0174 74.249C45.3663 74.249 50.7152 74.249 56.2621 74.249C56.8564 74.249 57.0545 74.0508 57.0545 73.456C57.0545 71.4734 57.0545 69.4908 57.0545 67.5082C57.0545 66.9134 56.8564 66.7151 56.2621 66.7151C54.8754 66.7151 53.4886 66.7151 52.1019 66.7151C48.3379 66.7151 44.5739 66.7151 40.8098 66.7151C40.4136 66.7151 39.8193 66.5169 39.8193 67.3099C39.6212 69.689 39.6212 71.8699 39.6212 74.0508Z" fill="white"/>
<path d="M27.3386 5.05615C33.2818 5.05615 39.225 5.05615 45.1682 5.05615C48.1398 5.05615 49.5265 6.44397 49.5265 9.41788C49.5265 17.3483 49.5265 25.0804 49.5265 33.0109C49.5265 35.7865 48.1398 37.3726 45.1682 37.3726C33.0837 37.3726 21.1973 37.3726 9.11286 37.3726C6.33938 37.3726 4.95264 35.9848 4.95264 33.2091C4.95264 25.2787 4.95264 17.3483 4.95264 9.41788C4.95264 6.64223 6.33938 5.25441 9.11286 5.25441C15.2542 5.05615 21.1973 5.05615 27.3386 5.05615ZM27.3386 7.43528C24.5651 7.43528 21.9898 7.43528 19.2163 7.43528C15.8485 7.43528 12.4807 7.43528 9.11286 7.43528C7.92423 7.43528 7.52801 7.8318 7.52801 9.02136C7.52801 9.61614 7.52801 10.2109 7.52801 10.6074C7.52801 17.9431 7.52801 25.2787 7.52801 32.8126C7.52801 34.2004 7.92423 34.5969 9.31097 34.5969C10.4996 34.5969 11.8863 34.5969 13.075 34.5969C13.6693 34.5969 13.8674 34.5969 14.0655 34.0022C14.4617 32.4161 15.2542 31.0282 16.4428 29.8387C20.4049 25.6752 25.1595 24.6839 30.5083 25.6752C35.2629 26.6665 39.0269 29.2439 40.6117 34.2004C40.6117 34.3987 41.0079 34.5969 41.4042 34.7952C42.7909 34.7952 44.1776 34.7952 45.3663 34.7952C46.753 34.7952 46.9511 34.3987 46.9511 33.0109C46.9511 25.0804 46.9511 17.15 46.9511 9.21962C46.9511 7.8318 46.5549 7.43528 45.1682 7.43528C39.225 7.43528 33.2818 7.43528 27.3386 7.43528Z" fill="white"/>
<path d="M56.8564 23.4944C56.8564 17.3484 61.8091 12.3918 68.1485 12.3918C74.2898 12.3918 79.2424 17.5466 79.2424 23.6927C79.2424 29.8388 74.0917 34.7953 68.1485 34.597C61.8091 34.597 56.8564 29.6405 56.8564 23.4944Z" fill="white"/>
<path d="M34.2723 16.7535C34.4704 20.5204 31.4988 23.8909 27.7348 24.0891C23.9708 24.2874 20.603 21.3135 20.4049 17.5465C20.2068 13.5813 23.1783 10.2109 27.1405 10.2109C30.9045 9.81438 34.0742 12.7883 34.2723 16.7535Z" fill="white"/>
</svg>
