<svg width="71" height="64" viewBox="0 0 71 64" fill="none" xmlns="http://www.w3.org/2000/svg">
<path d="M70.8517 47.5884C70.7825 47.8243 70.6995 48.0741 70.6303 48.3101C70.0214 50.475 68.1809 51.8211 65.8008 51.8211C58.425 51.835 51.0354 51.8211 43.6596 51.8211C41.9021 51.8211 40.1585 51.8489 38.4011 51.8211C36.5467 51.7933 35.3843 50.2113 35.9794 48.6015C36.353 47.5884 37.1971 47.0472 38.4149 47.0472C47.0638 47.0472 55.7127 47.0472 64.3616 47.0472C66.0914 47.0472 66.0914 47.0472 66.0914 45.3125C66.0914 35.8063 66.0914 26.3001 66.0914 16.7939C66.0914 16.3776 66.0914 15.9751 66.0914 15.531C50.4957 15.531 34.9969 15.531 19.4288 15.531C19.415 15.8225 19.3873 16.0861 19.3873 16.3498C19.3873 18.8062 19.4012 21.2486 19.3873 23.705C19.3873 24.1907 19.3873 24.6903 19.2628 25.1482C18.9584 26.2585 17.8651 26.8968 16.675 26.7581C15.568 26.6193 14.6962 25.6062 14.6823 24.3711C14.6547 22.2201 14.6685 20.069 14.6685 17.918C14.6685 13.9212 14.6547 9.91059 14.6823 5.91382C14.6962 3.62401 16.0662 1.79216 18.1696 1.2093C18.6677 1.07052 19.2074 1.00113 19.7333 1.00113C35.1214 0.987253 50.4957 0.987253 65.8838 1.00113C68.3331 1.00113 70.146 2.48604 70.6995 4.873C70.7272 5.01178 70.7964 5.13667 70.8379 5.26157C70.8517 19.3613 70.8517 33.4748 70.8517 47.5884ZM54.0936 8.18976C54.0659 9.53589 55.1315 10.66 56.4461 10.6877C57.8023 10.7155 58.937 9.60528 58.9508 8.25915C58.9647 6.92689 57.8714 5.81668 56.5568 5.78892C55.2283 5.77504 54.1213 6.8575 54.0936 8.18976ZM49.3609 10.6877C50.6894 10.6877 51.7688 9.5914 51.755 8.24527C51.755 6.89914 50.6756 5.8028 49.3609 5.78892C48.0186 5.77504 46.8839 6.92689 46.9116 8.27303C46.9392 9.61916 48.0325 10.6877 49.3609 10.6877ZM63.6835 5.78892C62.355 5.78892 61.2895 6.87138 61.2756 8.21751C61.2618 9.60528 62.3412 10.7016 63.7112 10.6877C65.0258 10.6739 66.119 9.56364 66.1052 8.23139C66.0914 6.88526 64.9981 5.78892 63.6835 5.78892Z" fill="#0059B1"/>
<path d="M0 45.5068C0.373632 43.9664 0.747265 42.426 1.1209 40.8856C1.21776 40.5109 1.30079 40.1223 1.38382 39.7337C1.63291 38.568 1.64675 38.457 2.79532 38.4847C4.5251 38.5125 5.77054 37.888 6.65619 36.3892C6.93295 35.9174 7.18204 35.5149 7.08517 34.9459C6.96063 34.2243 6.91912 33.4749 6.80841 32.7394C6.73922 32.3092 6.83609 32.0316 7.27891 31.8235C9.09172 30.9769 10.8907 30.0887 12.6897 29.1867C13.0771 28.9924 13.3124 29.0618 13.5753 29.3532C14.0873 29.9083 14.6685 30.4218 15.1667 30.9908C15.5127 31.3932 15.914 31.4765 16.4121 31.5459C18.1696 31.7818 19.4981 31.2406 20.5774 29.8112C21.297 28.8675 21.3801 28.9508 22.4318 29.4642C24.0508 30.2553 25.6561 31.0602 27.2751 31.8235C27.718 32.0316 27.8148 32.2814 27.7456 32.7394C27.6211 33.4749 27.6211 34.2104 27.4827 34.932C27.372 35.5149 27.4966 35.9729 27.9117 36.3614C28.0086 36.4586 28.1054 36.5696 28.1746 36.6806C28.8527 38.0545 30.0428 38.4153 31.4681 38.457C32.8935 38.4986 32.9073 38.5541 33.2394 39.9835C33.6269 41.6627 34.0005 43.3558 34.4018 45.0489C34.5125 45.4929 34.4433 45.8121 33.9867 45.9925C33.8621 46.048 33.7514 46.1313 33.6407 46.2146C31.3851 47.644 31.3713 47.644 30.8869 50.253C30.8316 50.5167 30.9146 50.8497 31.053 51.0856C31.4958 51.8628 32.0078 52.6122 32.4506 53.4032C32.5475 53.5836 32.5337 53.9444 32.423 54.111C31.1499 55.7763 29.8352 57.4277 28.5483 59.0931C28.313 59.3984 28.1054 59.4122 27.7872 59.2735C27.2751 59.0653 26.7216 58.9543 26.2373 58.7045C25.2824 58.2049 24.466 58.413 23.525 58.8432C22.4179 59.3428 21.6983 60.009 21.4908 61.2024C21.4908 61.2302 21.4769 61.2441 21.4631 61.2718C20.8404 63.0621 20.8404 63.0621 18.9999 63.0621C17.4777 63.0621 15.9555 63.0343 14.4333 63.0621C13.9213 63.0759 13.5891 62.951 13.4923 62.4098C13.4646 62.2294 13.3816 62.0629 13.3124 61.8825C12.4544 59.3845 12.4544 59.3845 10.005 58.3992C9.79746 58.3159 9.50686 58.3298 9.29929 58.3992C8.469 58.6628 7.6387 58.9543 6.82225 59.2735C6.46245 59.4122 6.24104 59.3706 6.00579 59.0514C4.76035 57.4416 3.51491 55.8457 2.24179 54.2497C1.96503 53.9167 1.92352 53.653 2.1726 53.2783C2.65694 52.5705 3.1136 51.8489 3.51491 51.0995C3.65329 50.8497 3.68097 50.5028 3.66713 50.1975C3.5841 48.2824 2.69845 46.9085 0.899485 46.1729C0.581206 46.048 0.304442 45.826 0.0138391 45.6456C8.44412e-07 45.5901 0 45.5485 0 45.5068ZM25.4347 33.7941C25.2133 33.5859 25.0749 33.3777 24.8673 33.2667C24.0508 32.8365 23.2067 32.4757 22.3903 32.0316C22.0028 31.8235 21.6983 31.8234 21.4493 32.1981C20.4806 33.6692 19.0968 34.1271 17.4085 33.8496C17.2978 33.8357 17.1732 33.8218 17.0625 33.8496C15.3881 34.141 14.0596 33.6275 13.091 32.1981C13.0633 32.1565 13.0356 32.1149 12.9941 32.101C12.7588 32.0594 12.4821 31.9206 12.2883 32.0039C11.5826 32.2953 10.9322 32.7116 10.2265 32.9753C9.42383 33.2667 9.07788 33.6969 9.35464 34.5712C9.47919 34.9598 9.5207 35.4039 9.49303 35.8063C9.46535 36.1672 9.39616 36.5835 9.18858 36.8749C8.42748 37.9157 7.58335 38.9011 6.80841 39.9419C6.51781 40.3305 6.19952 40.5109 5.71519 40.5247C5.14782 40.5386 4.56661 40.608 3.99925 40.7329C3.77784 40.7884 3.50107 41.0382 3.43188 41.2464C3.19663 42.0929 3.07209 42.9672 2.823 43.7999C2.6431 44.3827 2.76764 44.7297 3.30734 44.9517C4.71884 45.5485 5.52145 46.5754 5.59064 48.1436C5.60448 48.3934 5.67367 48.657 5.7567 48.8791C6.39326 50.4334 6.14417 51.835 5.03711 53.0701C5.00944 53.0979 4.96792 53.1534 4.96792 53.1812C4.96792 53.4448 4.8849 53.7779 5.00944 53.9583C5.56297 54.7493 6.21336 55.4849 6.78073 56.262C7.02982 56.5951 7.27891 56.6506 7.59719 56.4563C9.16091 55.5126 10.6278 55.7485 12.0531 56.7477C12.1085 56.7894 12.1776 56.8171 12.233 56.8449C13.8659 57.3306 14.9038 58.3575 15.1529 60.0922C15.1529 60.12 15.1667 60.1339 15.1667 60.1616C15.2359 60.5363 15.4296 60.689 15.8309 60.6751C16.7719 60.6473 17.7268 60.6473 18.6678 60.6751C19.0691 60.689 19.2905 60.5363 19.3458 60.1616C19.5949 58.3714 20.6743 57.3306 22.3349 56.8032C22.4179 56.7755 22.5148 56.7338 22.584 56.6783C23.954 55.693 25.3793 55.5542 26.86 56.4285C26.9015 56.4563 26.9569 56.4424 26.9845 56.4702C27.3028 56.6506 27.5242 56.5396 27.7318 56.2481C28.2992 55.4849 28.8804 54.7355 29.4893 54.0138C29.766 53.6946 29.8075 53.4171 29.5308 53.1118C28.2715 51.7795 28.23 50.2669 28.825 48.6571C28.8527 48.5877 28.8804 48.5321 28.8804 48.4628C28.9496 46.7142 29.7799 45.4929 31.3989 44.8129C31.7726 44.6603 31.8694 44.3966 31.7587 43.9803C31.5235 43.1337 31.3159 42.2872 31.1775 41.4129C31.0945 40.8578 30.8316 40.6219 30.3334 40.6496C28.6313 40.7745 27.6073 39.8725 26.6248 38.568C25.5592 37.1525 24.466 35.8202 25.4347 33.7941Z" fill="#0059B1"/>
<path d="M44.5313 39.8034C44.5313 40.3863 44.5175 40.9414 44.5313 41.4965C44.5452 41.9822 44.2822 42.232 43.8256 42.2459C43.1337 42.2598 42.4418 42.2598 41.7498 42.2459C41.2378 42.2459 40.9057 41.9684 41.0026 41.4688C41.2655 40.1365 40.6705 39.6508 39.425 39.3038C37.5015 38.7626 36.3668 37.2638 35.7302 35.3903C35.5226 34.7797 35.661 34.5854 36.3114 34.5854C37.2109 34.5716 38.1104 34.5438 39.0099 34.5993C39.2728 34.6132 39.6188 34.8075 39.771 35.0295C40.7812 36.5699 42.9676 37.25 44.642 36.5006C45.154 36.2646 45.5 35.9038 45.5554 35.3071C45.6107 34.641 45.3755 34.0858 44.7943 33.7944C44.1992 33.503 43.5488 33.3503 42.9123 33.156C41.7637 32.8091 40.6013 32.5316 39.4804 32.143C37.6399 31.5046 36.5882 30.1723 36.4913 28.2156C36.3806 26.245 37.1279 24.649 38.83 23.5805C39.2866 23.289 39.8125 23.0531 40.3383 22.9421C40.9196 22.8172 41.0303 22.5396 41.0164 21.9845C40.9749 20.2637 41.0026 20.2637 42.7047 20.2776C44.6005 20.2915 44.6005 20.0833 44.5452 22.1094C44.5313 22.5813 44.7251 22.7062 45.154 22.8172C47.1744 23.2752 48.6413 24.427 49.3886 26.4115C49.6515 27.0915 49.5408 27.2303 48.8212 27.2442C48.3645 27.258 47.894 27.2164 47.4374 27.2442C46.5655 27.3136 45.8598 27.1887 45.2371 26.3838C44.4898 25.4262 42.7047 25.218 41.5838 25.7176C40.9749 25.9952 40.6566 26.4531 40.6705 27.1331C40.6843 27.8131 41.0026 28.3127 41.6391 28.507C42.76 28.854 43.9086 29.1176 45.0295 29.423C45.5692 29.5617 46.0951 29.7144 46.6209 29.8809C50.4264 31.0328 50.7309 35.6679 48.5444 37.8606C47.6034 38.8181 46.4548 39.3455 45.1817 39.6647C44.9742 39.6924 44.7804 39.7479 44.5313 39.8034Z" fill="#0059B1"/>
<path d="M8.96714 45.7561C8.92563 41.1487 12.6343 37.3324 17.1594 37.3185C21.7675 37.2908 25.5453 40.9683 25.5869 45.5341C25.6284 50.3496 21.9889 54.1521 17.3254 54.2076C12.7588 54.2493 9.00866 50.4607 8.96714 45.7561ZM13.6721 45.7145C13.6721 47.7545 15.2774 49.4059 17.2701 49.4059C19.2489 49.4059 20.9095 47.7406 20.8957 45.7284C20.8957 43.7161 19.2351 42.0647 17.2424 42.0647C15.2912 42.0786 13.6721 43.73 13.6721 45.7145Z" fill="#0059B1"/>
</svg>
