<svg width="99" height="88" viewBox="0 0 99 88" fill="none" xmlns="http://www.w3.org/2000/svg">
<path d="M99.0001 65.7384C98.9034 66.0681 98.7874 66.4171 98.6907 66.7468C97.8399 69.7718 95.2682 71.6527 91.9425 71.6527C81.6364 71.6721 71.3111 71.6527 61.005 71.6527C58.5494 71.6527 56.113 71.6915 53.6574 71.6527C51.0664 71.6139 49.4421 69.4033 50.2736 67.154C50.7957 65.7384 51.9751 64.9822 53.6767 64.9822C65.7616 64.9822 77.8466 64.9822 89.9315 64.9822C92.3485 64.9822 92.3485 64.9822 92.3485 62.5583C92.3485 49.2755 92.3485 35.9926 92.3485 22.7098C92.3485 22.1281 92.3485 21.5657 92.3485 20.9452C70.557 20.9452 48.9007 20.9452 27.1478 20.9452C27.1285 21.3524 27.0898 21.7209 27.0898 22.0893C27.0898 25.5215 27.1092 28.9343 27.0898 32.3665C27.0898 33.0452 27.0898 33.7433 26.9158 34.3832C26.4904 35.9345 24.9629 36.8264 23.3 36.6325C21.7531 36.4386 20.535 35.0231 20.5156 33.2973C20.477 30.2917 20.4963 27.2861 20.4963 24.2805C20.4963 18.6959 20.477 13.0919 20.5156 7.50726C20.535 4.30774 22.4492 1.74813 25.3883 0.933704C26.0844 0.739794 26.8385 0.642839 27.5732 0.642839C49.0748 0.623448 70.557 0.623448 92.0585 0.642839C95.4809 0.642839 98.014 2.71768 98.7874 6.05293C98.8261 6.24684 98.9227 6.42136 98.9807 6.59588C99.0001 26.2971 99.0001 46.0178 99.0001 65.7384ZM75.5843 10.6874C75.5456 12.5683 77.0345 14.139 78.8714 14.1778C80.7663 14.2165 82.3519 12.6653 82.3712 10.7843C82.3905 8.9228 80.863 7.37152 79.0261 7.33273C77.1698 7.31334 75.623 8.82584 75.5843 10.6874ZM68.9714 14.1778C70.8277 14.1778 72.3359 12.6459 72.3165 10.7649C72.3165 8.88402 70.8083 7.35212 68.9714 7.33273C67.0958 7.31334 65.5103 8.9228 65.549 10.8037C65.5876 12.6847 67.1152 14.1778 68.9714 14.1778ZM88.9841 7.33273C87.1278 7.33273 85.639 8.84523 85.6196 10.7262C85.6003 12.6653 87.1085 14.1971 89.0228 14.1778C90.8597 14.1584 92.3872 12.6071 92.3679 10.7456C92.3485 8.86462 90.821 7.33273 88.9841 7.33273Z" fill="white"/>
<path d="M0 62.8292C0.52207 60.6768 1.04414 58.5244 1.56621 56.372C1.70156 55.8484 1.81758 55.3055 1.93359 54.7625C2.28164 53.1337 2.30098 52.9786 3.90586 53.0174C6.32284 53.0561 8.06308 52.1835 9.30057 50.0893C9.68729 49.43 10.0353 48.8677 9.89999 48.0727C9.72596 47.0643 9.66796 46.0172 9.51327 44.9895C9.41659 44.3884 9.55194 44.0005 10.1707 43.7097C12.7037 42.5268 15.2174 41.2858 17.731 40.0254C18.2724 39.7539 18.6011 39.8509 18.9685 40.2581C19.684 41.0337 20.4961 41.7512 21.1922 42.5462C21.6756 43.1086 22.2363 43.2249 22.9324 43.3219C25.388 43.6515 27.2443 42.8953 28.7525 40.898C29.758 39.5794 29.874 39.6957 31.3435 40.4132C33.6058 41.5185 35.8488 42.6432 38.1111 43.7097C38.7298 44.0005 38.8652 44.3496 38.7685 44.9895C38.5945 46.0172 38.5945 47.0449 38.4011 48.0533C38.2464 48.8677 38.4205 49.5076 39.0005 50.0505C39.1359 50.1863 39.2712 50.3414 39.3679 50.4965C40.3154 52.4162 41.9783 52.9204 43.9699 52.9786C45.9615 53.0367 45.9808 53.1143 46.4449 55.1116C46.9863 57.4579 47.5083 59.8236 48.0691 62.1893C48.2238 62.8098 48.1271 63.2558 47.489 63.5079C47.315 63.5854 47.1603 63.7018 47.0056 63.8181C43.8538 65.8154 43.8345 65.8154 43.1578 69.4609C43.0804 69.8294 43.1964 70.2947 43.3898 70.6244C44.0085 71.7103 44.724 72.7574 45.3427 73.8627C45.4781 74.1148 45.4587 74.6189 45.304 74.8516C43.5251 77.1785 41.6882 79.4861 39.89 81.813C39.5613 82.2396 39.2712 82.259 38.8265 82.0651C38.1111 81.7742 37.3376 81.6191 36.6609 81.27C35.3267 80.572 34.1859 80.8628 32.871 81.4639C31.3242 82.162 30.3187 83.0928 30.0287 84.7604C30.0287 84.7992 30.0093 84.8186 29.99 84.8574C29.1199 87.3588 29.1199 87.3588 26.5482 87.3588C24.4213 87.3588 22.2943 87.32 20.1674 87.3588C19.4519 87.3782 18.9879 87.2037 18.8525 86.4474C18.8138 86.1954 18.6978 85.9627 18.6011 85.7106C17.4023 82.2202 17.4023 82.2202 13.9799 80.8434C13.6898 80.7271 13.2838 80.7465 12.9937 80.8434C11.8336 81.2119 10.6734 81.6191 9.5326 82.0651C9.02987 82.259 8.72049 82.2008 8.39178 81.7548C6.65155 79.5055 4.91132 77.2755 3.13242 75.0455C2.7457 74.5801 2.68769 74.2117 3.03574 73.6882C3.7125 72.6992 4.35058 71.6909 4.91132 70.6438C5.10468 70.2947 5.14335 69.81 5.12402 69.3834C5.008 66.7074 3.7705 64.7877 1.25683 63.76C0.812108 63.5854 0.425391 63.2752 0.0193371 63.0231C1.17988e-06 62.9455 0 62.8874 0 62.8292ZM35.5394 46.4632C35.23 46.1723 35.0367 45.8815 34.7466 45.7263C33.6058 45.1252 32.4263 44.6211 31.2855 44.0005C30.7441 43.7097 30.3187 43.7097 29.9707 44.2332C28.6171 46.2887 26.6836 46.9286 24.3246 46.5408C24.1699 46.5214 23.9959 46.502 23.8412 46.5408C21.5015 46.948 19.6453 46.2305 18.2918 44.2332C18.2531 44.1751 18.2144 44.1169 18.1564 44.0975C17.8277 44.0393 17.441 43.8454 17.1703 43.9618C16.1842 44.369 15.2754 44.9507 14.2892 45.3191C13.1678 45.7263 12.6844 46.3275 13.0711 47.5491C13.2451 48.092 13.3031 48.7125 13.2644 49.2749C13.2258 49.7791 13.1291 50.3608 12.839 50.768C11.7756 52.2223 10.5961 53.5991 9.51327 55.0534C9.10722 55.5964 8.66248 55.8484 7.98573 55.8678C7.19296 55.8872 6.38085 55.9842 5.58808 56.1587C5.2787 56.2363 4.89198 56.5853 4.7953 56.8762C4.46659 58.059 4.29257 59.2806 3.94452 60.4441C3.69316 61.2585 3.86718 61.7433 4.62128 62.0536C6.59354 62.8874 7.71503 64.3223 7.81171 66.5135C7.83104 66.8625 7.92772 67.231 8.04374 67.5412C8.93319 69.713 8.58514 71.6715 7.03827 73.3973C6.9996 73.4361 6.94159 73.5136 6.94159 73.5524C6.94159 73.9208 6.82558 74.3862 6.9996 74.6383C7.77304 75.7436 8.68182 76.7713 9.4746 77.8572C9.82264 78.3226 10.1707 78.4002 10.6154 78.1287C12.8004 76.8101 14.85 77.1398 16.8416 78.5359C16.9189 78.5941 17.0156 78.6329 17.0929 78.6716C19.3746 79.3503 20.8248 80.7853 21.1728 83.2091C21.1728 83.2479 21.1922 83.2673 21.1922 83.3061C21.2888 83.8296 21.5595 84.0429 22.1203 84.0236C23.4351 83.9848 24.7693 83.9848 26.0841 84.0236C26.6449 84.0429 26.9543 83.8296 27.0316 83.3061C27.3796 80.8047 28.8878 79.3503 31.2082 78.6135C31.3242 78.5747 31.4595 78.5165 31.5562 78.439C33.4705 77.0622 35.4621 76.8683 37.531 78.0899C37.589 78.1287 37.6664 78.1093 37.705 78.1481C38.1497 78.4002 38.4591 78.245 38.7492 77.8378C39.5419 76.7713 40.354 75.7242 41.2048 74.7159C41.5915 74.2699 41.6496 73.8821 41.2628 73.4555C39.5033 71.5939 39.4453 69.4803 40.2767 67.231C40.3154 67.134 40.354 67.0564 40.354 66.9595C40.4507 64.5162 41.6109 62.8098 43.8732 61.8596C44.3953 61.6463 44.5306 61.2779 44.3759 60.6962C44.0472 59.5133 43.7572 58.3305 43.5638 57.1089C43.4478 56.3332 43.0804 56.0036 42.3843 56.0423C40.006 56.2169 38.5751 54.9565 37.2023 53.1337C35.7134 51.1558 34.1859 49.2943 35.5394 46.4632Z" fill="white"/>
<path d="M62.223 54.8601C62.223 55.6745 62.2037 56.4501 62.223 57.2257C62.2424 57.9044 61.875 58.2535 61.2369 58.2729C60.2701 58.2923 59.3033 58.2923 58.3365 58.2729C57.6211 58.2729 57.157 57.8851 57.2924 57.187C57.6597 55.3254 56.8283 54.6467 55.0881 54.162C52.4004 53.4057 50.8148 51.3115 49.9254 48.6937C49.6353 47.8405 49.8287 47.569 50.7375 47.569C51.9943 47.5496 53.2512 47.5109 54.508 47.5884C54.8754 47.6078 55.3588 47.8793 55.5715 48.1895C56.983 50.3419 60.0381 51.2921 62.3777 50.245C63.0931 49.9153 63.5765 49.4112 63.6539 48.5774C63.7312 47.6466 63.4025 46.871 62.5904 46.4637C61.759 46.0565 60.8502 45.8432 59.9607 45.5718C58.3558 45.087 56.7316 44.6992 55.1654 44.1562C52.5937 43.2642 51.1242 41.4027 50.9889 38.6686C50.8342 35.915 51.8783 33.6851 54.2566 32.192C54.8947 31.7848 55.6295 31.4551 56.3642 31.3C57.1763 31.1255 57.331 30.7376 57.3117 29.962C57.2537 27.5575 57.2924 27.5575 59.6707 27.5769C62.3197 27.5963 62.3197 27.3054 62.2424 30.1365C62.223 30.7958 62.4937 30.9703 63.0931 31.1255C65.9162 31.7654 67.9658 33.3748 69.0099 36.1477C69.3773 37.0979 69.2226 37.2918 68.2171 37.3112C67.5791 37.3306 66.9216 37.2724 66.2836 37.3112C65.0654 37.4081 64.0793 37.2336 63.2092 36.109C62.165 34.771 59.6707 34.4801 58.1045 35.1782C57.2537 35.566 56.809 36.2059 56.8283 37.1561C56.8476 38.1062 57.2924 38.8043 58.1818 39.0758C59.748 39.5606 61.3529 39.929 62.9191 40.3556C63.6732 40.5495 64.408 40.7628 65.1427 40.9955C70.4601 42.6049 70.8855 49.0815 67.8304 52.1453C66.5156 53.4833 64.9107 54.2202 63.1318 54.6661C62.8418 54.7049 62.5711 54.7825 62.223 54.8601Z" fill="white"/>
<path d="M12.5298 63.1782C12.4718 56.7404 17.6538 51.4079 23.9766 51.3885C30.4155 51.3497 35.6942 56.4884 35.7522 62.868C35.8102 69.5967 30.7249 74.9098 24.2087 74.9874C17.8278 75.0455 12.5878 69.7518 12.5298 63.1782ZM19.104 63.1201C19.104 65.9706 21.347 68.2781 24.1313 68.2781C26.8964 68.2781 29.2167 65.9512 29.1973 63.1395C29.1973 60.3278 26.877 58.0202 24.0927 58.0202C21.3663 58.0396 19.104 60.3472 19.104 63.1201Z" fill="white"/>
</svg>
