<svg width="65" height="69" viewBox="0 0 65 69" fill="none" xmlns="http://www.w3.org/2000/svg">
<path d="M33.3748 59.2044C32.7641 58.3119 32.1065 57.4664 31.5428 56.5739C28.1138 51.6417 24.6377 46.7095 21.3026 41.7303C18.3903 37.3618 15.9477 32.7114 13.8808 27.8262C8.99561 16.3647 16.5113 3.11821 28.5365 0.346778C28.5835 0.346778 28.6775 0.346778 28.7244 0.299805C28.7714 0.346778 28.8184 0.393751 28.8653 0.440724C28.7714 0.487698 28.6775 0.487698 28.5835 0.534672C26.6106 2.03782 25.4363 3.96373 25.0605 6.40634C25.0135 6.78213 24.8256 7.017 24.5438 7.20489C15.1021 13.1235 13.8339 26.417 22.1012 33.8388C27.1743 38.3952 33.1869 39.5226 39.5753 36.986C45.5409 34.6373 49.1109 30.0809 49.9564 23.6925C50.8489 17.1632 48.4532 11.8553 43.2392 7.81554C43.0513 7.67462 42.8634 7.39279 42.8164 7.15792C42.6285 4.66833 41.5951 2.55453 39.7162 0.910458C39.6692 0.863485 39.5753 0.863485 39.5283 0.816512C39.5753 0.769539 39.5753 0.722565 39.6222 0.675591C40.139 0.863485 40.7026 1.05138 41.2193 1.23927C49.4867 4.48044 54.9825 13.0766 54.4189 21.7666C54.231 24.4911 53.2915 26.9807 52.2111 29.4703C50.0034 34.5904 47.185 39.3347 44.0847 43.9381C40.6557 49.0112 37.0857 53.9904 33.5627 59.0165C33.5627 59.0635 33.4687 59.1105 33.3748 59.2044Z" fill="white"/>
<path d="M19.8935 25.8532C19.9874 24.8667 19.9404 23.8803 20.1283 22.8938C20.739 20.3573 22.2421 18.6662 24.9196 18.1965C25.9061 18.0086 26.9395 17.8677 27.9259 17.6798C28.4426 17.5859 28.7714 17.7738 28.9593 18.2905C30.3216 22.0483 31.6838 25.7592 33.046 29.5171C33.1869 29.9399 33.3748 30.3156 33.8915 30.3156C34.4082 30.3156 34.5961 29.9399 34.7371 29.5171C36.0993 25.8062 37.4615 22.0483 38.8237 18.3374C39.0586 17.6328 39.2465 17.5389 39.9511 17.6798C40.8436 17.8207 41.6891 17.9616 42.5816 18.1026C45.6818 18.5723 47.7957 21.1089 47.8896 24.2091C47.9366 26.088 47.138 27.6382 46.2455 29.1413C44.1787 32.5704 41.1724 34.7781 37.3206 35.8585C30.6973 37.6905 23.3695 34.4963 20.2223 28.3428C20.1283 28.1549 20.0814 27.92 20.0814 27.6851C20.0814 27.0745 20.0814 26.4169 20.0814 25.8062C19.9404 25.8532 19.9404 25.8532 19.8935 25.8532Z" fill="white"/>
<path d="M18.2493 49.105C16.7462 49.4808 15.29 49.7626 13.8338 50.1384C11.1094 50.843 8.4319 51.7825 6.03626 53.2856C5.37863 53.7084 4.721 54.2251 4.15732 54.8357C3.07693 56.0101 3.07693 57.2784 4.15732 58.4057C4.95587 59.2043 5.94231 59.9089 6.92875 60.4726C10.1229 62.2106 13.552 63.197 17.122 63.8546C27.8789 65.8275 38.6828 65.8275 49.3927 63.4789C52.352 62.8212 55.2174 61.9287 57.8949 60.4726C58.8343 59.9558 59.7268 59.2982 60.4784 58.5936C61.7937 57.3253 61.7467 55.9161 60.4784 54.6009C59.351 53.4735 57.9418 52.7219 56.4857 52.0643C53.5263 50.7491 50.4261 49.9035 47.2789 49.2929C47.091 49.2459 46.8561 49.1989 46.5743 49.152C47.1849 48.1655 47.7956 47.273 48.3593 46.3336C48.4062 46.2396 48.6411 46.2396 48.7351 46.2396C53.0096 47.1791 57.1903 48.3534 60.9012 50.796C61.9346 51.5006 62.874 52.3462 63.6256 53.3796C65.0348 55.3525 65.0818 57.7011 63.7196 59.674C62.4983 61.506 60.7133 62.6803 58.7874 63.6667C55.4053 65.4048 51.7883 66.4382 48.1244 67.0958C37.1326 69.1157 26.1409 69.1157 15.1961 66.814C11.6261 66.0624 8.10308 65.029 4.95587 63.1031C3.78153 62.3985 2.65417 61.5529 1.76168 60.6135C-0.633964 58.1239 -0.540018 55.0236 1.76168 52.5341C3.17088 51.0309 4.86192 49.9975 6.69388 49.152C9.60623 47.7897 12.7065 46.8972 15.8537 46.2396C15.9946 46.1926 16.2765 46.2396 16.3234 46.3336C17.075 47.273 17.6387 48.1655 18.2493 49.105Z" fill="white"/>
<path d="M26.7514 7.7215C26.7514 3.77573 29.9925 0.581543 33.9853 0.581543C37.8371 0.581543 41.0783 3.82271 41.0783 7.7215C41.0783 11.7142 37.8371 14.9084 33.8913 14.9084C29.9456 14.8615 26.7514 11.6673 26.7514 7.7215Z" fill="white"/>
<path d="M33.9385 17.3042C34.2673 17.3042 34.5961 17.3042 34.9249 17.3042C35.8174 17.3512 36.2871 18.2437 35.8174 19.0422C35.8174 19.0892 35.7704 19.0892 35.7704 19.1362C34.8779 20.0287 34.8779 21.0621 35.1128 22.2364C35.2537 22.8471 35.3007 23.5047 35.3477 24.1623C35.3477 24.3033 35.3477 24.4442 35.3007 24.5851C34.9719 25.4776 34.6431 26.3231 34.3142 27.2156C34.2673 27.4035 34.0794 27.4974 33.9385 27.6384C33.7975 27.4974 33.6096 27.4035 33.5627 27.2156C33.2339 26.3701 32.8581 25.4776 32.5762 24.5851C32.4823 24.2093 32.5762 23.7866 32.6232 23.4108C32.7171 22.6122 32.8581 21.7667 32.905 20.9681C32.905 20.6393 32.8111 20.3105 32.6702 20.0287C32.5293 19.6999 32.2474 19.418 32.0595 19.0892C31.5898 18.2907 32.0125 17.4451 32.952 17.3512C33.2339 17.2573 33.6096 17.3042 33.9385 17.3042Z" fill="white"/>
</svg>
