<svg width="89" height="95" viewBox="0 0 89 95" fill="none" xmlns="http://www.w3.org/2000/svg">
<path d="M23.9334 16.6553C25.9171 8.76388 30.2814 3.23987 38.0179 0.477859C40.5968 -0.508572 41.5887 0.477859 41.5887 3.04258C41.5887 6.39644 41.5887 9.75031 41.5887 13.3015C41.5887 15.6689 42.3822 16.2608 44.7626 16.2608C47.1431 16.2608 47.9366 15.6689 47.9366 13.3015C47.9366 9.75031 47.9366 6.19916 47.9366 2.64801C47.9366 0.477859 49.1269 -0.311286 51.1106 0.280572C58.4504 2.64801 63.013 7.77745 65.1951 15.077C65.3935 15.4716 65.3935 15.8662 65.5919 16.2608C66.3854 15.8662 66.9805 15.6689 67.774 15.2743C69.9561 14.6825 71.9398 15.077 73.5268 16.6553C75.3122 18.4309 77.0976 20.2065 78.8829 21.982C80.8667 23.9549 81.065 26.9142 79.4781 29.2816C78.4862 30.8599 77.2959 32.4382 76.1057 34.2138C75.9073 34.6084 75.9073 35.2002 75.9073 35.7921C76.1057 36.3839 76.5024 36.7785 76.5024 37.3704C76.8992 39.5405 78.2878 40.3297 80.4699 40.527C81.6602 40.527 83.0488 40.9215 84.239 41.1188C87.0163 41.7107 89 44.0781 89 46.8401C89 49.4048 88.8016 51.9695 88.6032 54.7315C88.4049 57.4936 86.2228 59.4664 83.4455 60.0583C81.6602 60.4529 80.0732 60.6501 78.2878 60.8474C77.4943 61.0447 76.8992 61.242 76.7008 62.0311C76.5024 62.623 76.3041 63.2149 76.1057 63.8067C74.9155 65.385 75.3122 66.766 76.7008 68.147C77.6927 69.1334 78.2878 70.3172 79.0813 71.5009C80.6683 74.0656 80.4699 76.8276 78.2878 78.9977C76.7008 80.7733 74.9155 82.5489 73.1301 84.1272C70.948 86.2973 67.9724 86.4946 65.3935 84.719C64.0049 83.7326 62.4179 82.7462 61.2277 81.7598C60.4342 81.1679 59.6407 80.9706 58.8472 81.5625C58.6488 81.7598 58.4504 81.7598 58.0537 81.957C55.4748 82.3516 54.483 83.9299 54.483 86.4946C54.483 87.6783 54.0862 88.8621 53.8878 90.0458C53.2927 92.8078 50.9122 94.5834 48.135 94.5834C45.7545 94.5834 43.374 94.5834 40.7952 94.5834C37.8196 94.5834 35.6375 92.6105 35.0423 89.6512C34.6456 87.6783 34.4472 85.9028 33.8521 83.9299C33.8521 83.5353 33.257 83.1407 33.0586 82.9435C32.2651 82.5489 31.4716 82.5489 30.6781 81.957C29.2895 80.9706 28.0992 81.3652 26.909 82.3516C25.7188 83.338 24.3301 84.1272 23.1399 84.9163C20.7594 86.4946 17.7838 86.2973 15.6017 84.3245C13.8163 82.5489 12.031 80.9706 10.444 79.195C8.46024 77.2222 8.26187 74.2629 9.65048 71.8954C10.6424 70.3172 11.8326 68.7389 13.0228 67.1606C13.4196 66.5687 13.618 65.9769 13.2212 65.385C12.8245 64.7931 12.4277 64.2013 12.4277 63.4121C12.031 61.4393 10.8407 61.0447 9.05536 60.8474C7.66674 60.6501 6.4765 60.4528 5.08788 60.2556C2.11228 59.6637 0.12854 57.4936 0.12854 54.337C0.12854 51.9695 0.12854 49.6021 0.12854 47.2347C0.12854 44.2754 2.11228 41.908 5.08788 41.3161C6.87325 40.9215 8.85699 40.7242 10.6424 40.3297C11.2375 40.1324 11.6342 39.7378 12.031 39.1459C12.2293 38.7514 12.2293 38.3568 12.4277 37.9622C14.0147 35.7921 13.2212 34.0165 11.6342 32.2409C10.8407 31.4518 10.2456 30.4654 9.65048 29.4789C8.06349 26.9142 8.26187 24.1522 10.444 21.982C12.031 20.4038 13.618 18.8255 15.2049 17.0499C17.3871 14.8797 19.9659 14.4852 22.9415 16.0635C23.3383 16.458 23.5366 16.458 23.9334 16.6553ZM30.4797 35.9894C30.4797 35.9894 30.4797 35.7921 30.2814 35.7921C30.083 35.5948 30.083 35.5948 29.8846 35.3975C26.7106 32.2409 24.5285 28.2952 24.1318 23.9549C23.9334 21.9821 22.9415 21.1929 21.5529 20.2065C20.561 19.6146 19.5692 19.6146 18.7757 20.601C17.3871 22.1793 15.8001 23.5603 14.4115 24.9413C13.4196 25.9278 13.4196 26.9142 14.2131 28.0979C15.6017 29.8735 16.7919 31.8464 18.1806 33.6219C18.7757 34.6084 18.9741 35.3975 18.3789 36.3839C17.5854 38.3568 16.7919 40.3297 15.9984 42.3025C15.6017 43.289 15.0066 43.8808 13.8163 44.0781C11.6342 44.4727 9.25373 44.8672 7.07162 45.2618C5.48463 45.6564 5.08788 46.051 5.08788 47.6292C5.08788 49.6021 5.08788 51.575 5.08788 53.5478C5.08788 55.1261 5.48463 55.718 7.07162 55.9153C9.25373 56.3098 11.6342 56.7044 13.8163 57.099C15.0066 57.2963 15.6017 57.8881 16.1968 59.0718C16.9903 61.0447 17.7838 63.0176 18.7757 64.9904C19.1724 65.9769 19.3708 66.9633 18.5773 67.7524C17.1887 69.7253 15.8001 71.6982 14.4115 73.4737C13.618 74.4602 13.8163 75.4466 14.6098 76.2357C16.1968 77.6167 17.5854 79.195 19.1724 80.576C20.3627 81.7598 20.9578 81.7598 22.3464 80.7733C24.1318 79.5896 26.1155 78.2086 27.9009 76.8276C28.8927 76.0385 29.8846 76.0385 30.8765 76.6303C32.8602 77.4195 34.6456 78.2086 36.6293 78.9977C37.8196 79.3923 38.4147 80.1815 38.6131 81.3652C39.0098 83.5353 39.4066 85.9028 39.8033 88.0729C40.0017 89.4539 40.7952 90.0458 42.1838 90.0458C44.3659 90.0458 46.548 90.0458 48.7301 90.0458C49.9204 90.0458 50.7139 89.4539 50.9122 88.2702C51.309 85.9028 51.9041 83.338 52.3008 80.9706C52.4992 79.9842 53.0943 79.3923 54.0862 78.9977C56.07 78.2086 58.0537 77.4195 60.0374 76.433C61.2277 75.8412 62.0212 75.8412 63.2114 76.6303C64.9968 78.0113 66.9805 79.3923 68.9642 80.576C69.9561 81.3652 70.948 81.1679 71.7415 80.3787C73.3285 78.8005 74.7171 77.4195 76.3041 75.8412C77.296 74.8547 77.2959 73.8683 76.5024 72.8819C75.1138 70.909 73.7252 69.1334 72.535 67.1606C71.9398 66.3714 71.7415 65.385 72.3366 64.3986C73.1301 62.4257 74.122 60.4528 74.7171 58.2827C75.1138 57.2963 75.9073 56.7044 76.8992 56.5071C79.0813 56.1126 81.2634 55.718 83.4455 55.3234C85.0325 55.1261 85.4293 54.5343 85.4293 52.956C85.4293 50.7858 85.4293 48.813 85.4293 46.6428C85.4293 45.4591 84.8341 44.67 83.6439 44.4727C81.2634 44.0781 78.6846 43.6835 76.3041 43.0917C75.3122 42.8944 74.7171 42.3025 74.5187 41.5134C73.7252 39.5405 72.9317 37.3704 71.9399 35.3975C71.3447 34.2138 71.3447 33.4246 72.1382 32.4382C73.5268 30.6626 74.9155 28.6898 76.1057 26.7169C76.8992 25.5332 76.8992 24.7441 75.9073 23.7576C74.5187 22.3766 72.9317 20.7983 71.5431 19.4173C70.948 18.8255 70.1545 18.0363 69.1626 18.6282C67.9724 19.4173 66.3854 19.6146 66.187 21.3902C65.9886 23.1658 65.5919 25.1386 64.9968 26.9142C64.0049 30.0708 62.0212 32.6355 59.6407 34.8057C68.1708 44.2754 65.7903 56.7044 58.6488 63.2149C51.309 69.9226 39.6049 69.9226 32.0667 63.4121C24.3301 57.8881 21.9497 45.2618 30.4797 35.9894ZM37.4228 5.41001C36.8277 5.80459 36.4309 6.00187 36.0342 6.19916C24.7269 13.3015 26.1155 28.2952 35.6374 34.4111C38.6131 36.3839 39.8033 38.7514 39.8033 42.1052C39.6049 49.0103 39.8033 55.9153 39.8033 62.8203C39.8033 63.8067 40.2 64.3986 41.1919 64.5959C43.7708 64.5959 46.3496 64.5959 48.9285 64.5959C49.9204 64.5959 50.3171 64.004 50.3171 62.8203C50.3171 55.9153 50.3171 48.813 50.3171 41.908C50.3171 38.5541 51.5074 36.1867 54.2846 34.4111C63.4098 28.4925 64.4016 15.8662 56.6651 8.3693C55.4748 7.18559 54.0862 6.39644 52.6976 5.41001C52.3008 8.56659 52.4992 11.3286 52.3008 14.2879C52.3008 17.4445 50.1187 19.8119 46.9448 20.4038C46.1513 20.601 45.1594 20.601 44.3659 20.4038C40.2 20.4038 37.6212 17.839 37.6212 13.696C37.4228 11.1313 37.4228 8.36931 37.4228 5.41001ZM35.0423 61.6366C35.0423 61.4393 35.2407 61.4393 35.2407 61.242C35.2407 54.337 35.2407 47.2347 35.2407 40.3297C35.2407 39.5405 34.6456 38.9487 34.2488 38.1595C27.1074 44.67 27.7025 56.3098 35.0423 61.6366ZM55.6732 38.5541C54.6813 39.1459 54.2846 39.9351 54.2846 41.1188C54.2846 47.6292 54.2846 54.1397 54.2846 60.8474C54.2846 61.0447 54.2846 61.4393 54.2846 61.8339C61.8228 56.7044 62.4179 44.0781 55.6732 38.5541Z" fill="white"/>
</svg>
