<svg width="41" height="41" viewBox="0 0 41 41" fill="none" xmlns="http://www.w3.org/2000/svg">
<g clip-path="url(#clip0_716_573)">
<path d="M39.8985 16.6082C38.7526 10.4942 35.4911 5.85169 30.1722 2.67763C27.5836 1.13292 24.7606 0.290545 21.7553 0.0637515C21.6542 0.0564356 21.5553 0.0219478 21.4542 0C20.6209 0 19.7875 0 18.9542 0C18.2354 0.0992875 17.5125 0.178717 16.7968 0.303088C12.2509 1.09425 8.43202 3.22946 5.34236 6.65122C2.58499 9.70509 0.949529 13.3014 0.376598 17.3816C0.309929 17.8571 0.25993 18.3358 0.202637 18.8134C0.202637 19.6495 0.202637 20.4856 0.202637 21.3217C0.300556 22.0439 0.374516 22.7703 0.501602 23.4872C1.40475 28.5749 3.89961 32.7178 7.94138 35.9045C11.0821 38.3804 14.6676 39.7526 18.6521 40.0704C18.7531 40.0787 18.8521 40.1132 18.9521 40.1352C19.7854 40.1352 20.6188 40.1352 21.4521 40.1352C22.197 40.0327 22.948 39.9637 23.6855 39.8237C29.6722 38.6845 34.2473 35.4822 37.413 30.2722C39.0234 27.6218 39.9037 24.7215 40.1381 21.6248C40.1453 21.5224 40.1808 21.4231 40.2026 21.3217C40.2026 20.4856 40.2026 19.6495 40.2026 18.8134C40.1037 18.0776 40.0349 17.3366 39.8985 16.6082ZM20.7323 9.38633C21.7115 9.49084 22.7136 9.55564 23.6522 9.82633C27.745 11.0063 30.6691 14.8158 30.8576 19.0904C30.8576 19.2074 30.8576 19.3255 30.8576 19.4426C30.8597 19.9881 30.5711 20.3414 30.1086 20.3592C29.6565 20.3759 29.3471 20.0383 29.2961 19.4928C29.244 18.9347 29.2201 18.3692 29.1128 17.8216C28.3638 14.0225 25.0647 11.1651 21.2157 10.9603C21.0334 10.9509 20.8511 10.9498 20.6698 10.9289C20.2052 10.8767 19.9021 10.5569 19.9094 10.1399C19.9177 9.70405 20.2594 9.33512 20.7323 9.38633ZM19.9125 14.473C19.95 14.0142 20.3157 13.7309 20.8532 13.7435C23.9137 13.8177 26.4325 16.349 26.5044 19.4248C26.5169 19.9589 26.2262 20.3268 25.7658 20.3581C25.3189 20.3884 24.9658 20.0561 24.9481 19.5116C24.8783 17.3858 23.3845 15.7815 21.5563 15.4084C21.2896 15.354 21.0157 15.3373 20.7438 15.3101C20.2073 15.2568 19.875 14.9255 19.9125 14.473ZM31.7566 27.673C31.4847 28.3638 31.1784 29.0421 30.9107 29.735C30.3378 31.2149 29.1763 31.7751 27.6919 31.818C26.3398 31.8567 25.0658 31.493 23.8272 30.9913C20.7876 29.7601 18.2021 27.8423 15.853 25.5911C13.254 23.1005 11.0321 20.3215 9.55288 17.0022C8.9487 15.6467 8.51848 14.2441 8.4164 12.7276C8.52473 12.1936 8.5914 11.6469 8.75286 11.1296C8.97578 10.42 9.42267 9.85873 10.1206 9.55146C11.0248 9.15327 11.9279 8.75298 12.8498 8.39763C13.5082 8.14367 14.2218 8.40077 14.5832 9.01008C15.3343 10.2768 16.0728 11.5529 16.7854 12.8426C17.1708 13.5397 16.9281 14.3591 16.2666 14.8053C16.1916 14.8565 16.1114 14.9004 16.0333 14.9475C14.6041 15.8097 14.2905 17.4547 15.2999 18.7789C17.0895 21.1273 19.1469 23.2103 21.5053 24.9807C21.8834 25.265 22.3803 25.4761 22.8459 25.5388C23.9158 25.6831 24.7345 25.2044 25.2929 24.2795C25.9075 23.2594 26.6648 23.0598 27.6867 23.6492C28.8034 24.293 29.919 24.9368 31.0326 25.5859C31.8805 26.0781 32.1191 26.7533 31.7566 27.673Z" fill="#004181"/>
</g>
<defs>
<clipPath id="clip0_716_573">
<rect width="41" height="41" fill="white"/>
</clipPath>
</defs>
</svg>
