<svg width="92" height="88" viewBox="0 0 92 88" fill="none" xmlns="http://www.w3.org/2000/svg">
<path fill-rule="evenodd" clip-rule="evenodd" d="M14.2687 12.6509C21.6711 5.5776 30.6116 1.35286 40.8305 0.2522C53.6046 -1.00434 64.8844 2.44018 74.651 10.4581L74.6539 10.4605C82.5384 16.913 87.6955 25.0436 89.8887 34.7371L89.8905 34.7453L89.8924 34.7535C92.575 46.2498 91.1586 57.1963 85.337 67.5602C79.9467 77.1563 72.1325 83.5346 62.1136 87.705C58.8727 78.8443 55.6334 69.9791 52.3945 61.0042C55.0191 59.9367 57.1633 58.0763 58.8441 56.2311L58.8686 56.2041L58.8924 56.1764C59.9626 54.9304 61.0098 53.5108 61.6583 51.7849L61.6747 51.7415L61.6893 51.6976C62.2433 50.0388 62.6158 48.3671 62.8009 46.5195L62.8044 46.4842L62.807 46.4488C62.9982 43.7768 62.6202 41.0291 61.4243 38.4399C60.4713 36.3498 59.1394 34.4482 57.6008 32.9126L57.5587 32.8705L57.5146 32.8306C55.3809 30.8947 52.8645 29.5498 50.0086 28.7897L49.9324 28.7694L49.855 28.754C47.9523 28.3742 46.0833 28.3744 44.4839 28.3745L44.2936 28.3745L44.1981 28.3819C41.7756 28.5678 39.4262 29.1354 37.2259 30.3325C32.5623 32.8547 29.8001 36.8119 28.8337 41.9726C28.2452 44.7442 28.4599 47.4708 29.2137 50.1037L29.2182 50.1196L29.2229 50.1353C29.8482 52.2153 30.892 53.8471 32.2254 55.368L32.2369 55.3811L32.2486 55.3941C33.7962 57.1102 35.5211 58.8597 38.0639 60.2262L38.1619 60.2789L38.2642 60.3226C38.6623 60.4929 39.0415 60.664 39.4289 60.8414C36.1543 69.9165 32.8793 78.8788 29.6027 87.837C10.5157 80.9674 -1.25266 61.4966 0.106337 42.8096L0.106872 42.8023L0.107363 42.7949C0.895422 30.9974 5.60047 20.8302 14.2573 12.6618L14.263 12.6564L14.2687 12.6509ZM45.9423 4.21504L45.6913 4.19227L45.4409 4.22005C44.7742 4.29398 44.0964 4.33219 43.3387 4.3742L43.3093 4.37583C42.5818 4.41616 41.7774 4.46074 40.9623 4.55114L40.8764 4.56066L40.7915 4.57608C40.2008 4.68327 39.6156 4.76823 38.9775 4.86088C38.6794 4.90416 38.3697 4.94912 38.0426 4.99881C37.0733 5.14601 36.014 5.32679 34.9673 5.60995C32.7653 6.1625 30.7738 7.06603 29.008 7.86718L29.008 7.86722L28.9768 7.88137C25.3643 9.33216 22.1623 11.4786 19.2026 14.082C16.9553 15.9818 14.648 18.2744 12.8372 20.8023L12.7889 20.8686L12.7889 20.8686C11.498 22.6399 10.0679 24.6023 8.97942 26.7749L8.96191 26.8099L8.94549 26.8453C8.12344 28.6229 7.40282 30.5245 6.74256 32.2667C6.56698 32.73 6.39566 33.1821 6.22785 33.6175L6.19889 33.6927L6.17484 33.7695C5.28815 36.6013 4.75163 39.4482 4.57263 42.3065L4.57115 42.3302L4.57012 42.3539C4.40225 46.2073 4.38349 50.3288 5.47838 54.5176L5.48189 54.531L5.48554 54.5444C5.61363 55.0132 5.74295 55.5436 5.88088 56.1094L5.8809 56.1094L5.88091 56.1095C6.1942 57.3945 6.55198 58.862 7.04105 60.2043L7.04756 60.2222L7.05435 60.24C8.4642 63.9335 10.4071 67.4633 12.8897 70.6495C15.8949 74.5302 19.4349 77.7069 23.659 80.3418L23.7597 80.4046L23.8659 80.4576L23.8862 80.4679C24.0699 80.5615 24.8778 80.9729 25.8654 80.7758C27.1414 80.5211 27.7023 79.5312 27.8808 79.1749L27.9138 79.1092L27.9428 79.0416C28.2677 78.285 28.5784 77.3858 28.8621 76.5646L28.8621 76.5645C29.0217 76.1027 29.1727 75.6657 29.3129 75.2924C29.5507 74.6596 29.7896 74.0633 30.0396 73.4394L30.0438 73.429C30.2901 72.8145 30.5474 72.1726 30.8058 71.4849L30.8102 71.4732L30.8144 71.4614C31.4797 69.6357 32.1248 67.8662 32.9289 65.9401L32.9641 65.8557L32.9931 65.769L33.0061 65.7313C33.0782 65.5246 33.3246 64.8178 33.2583 64.024C33.1669 62.9289 32.5745 62.0742 31.7882 61.4857L31.6079 61.3507L31.6034 61.3485L31.5585 61.3037L31.5452 61.2904C31.4711 61.2163 31.3358 61.0811 31.1881 60.9522C31.0821 60.8596 30.9205 60.7257 30.7117 60.5928C29.5812 59.6857 28.6301 58.4877 27.7245 57.132L27.7087 57.1084L27.6924 57.0851C26.7013 55.6721 25.9613 54.0709 25.3406 52.3674L25.3327 52.3457L25.3244 52.3242C24.635 50.5354 24.3257 48.5337 24.1649 46.3482C24.1679 45.7057 24.2038 45.015 24.2441 44.2499L24.2459 44.2172C24.2848 43.4798 24.3275 42.6701 24.3304 41.8853C24.4797 39.7395 25.3055 37.4658 26.388 35.3052C26.8228 34.4372 27.2585 33.7075 27.8684 32.7927C27.9712 32.649 28.0691 32.5114 28.1632 32.3792L28.1633 32.3791L28.1634 32.379C28.8663 31.3914 29.3556 30.704 30.0656 29.9953C31.0634 28.9996 32.2315 28.1196 33.4379 27.3671L33.469 27.3477L33.4996 27.3274C35.2609 26.1555 37.1743 25.2696 39.0907 24.6749C39.4261 24.5906 39.736 24.5085 40.0263 24.4316L40.0266 24.4315C41.0868 24.1507 41.888 23.9384 42.7307 23.9384H42.8439L42.9566 23.9282C44.0326 23.8306 44.9939 23.8611 46.1023 23.8964H46.1024H46.1024C46.7382 23.9166 47.4225 23.9384 48.2045 23.9384C48.8714 23.9384 49.4303 24.0394 50.2352 24.3072L50.2711 24.3192L50.3073 24.33C51.8688 24.7975 53.6136 25.4292 55.2223 26.071C56.8498 26.7508 58.4302 27.8751 59.9698 29.2579L59.9828 29.2696L59.9959 29.2811C62.3147 31.3061 64.0914 33.9427 65.2913 36.9365L65.3088 36.9803L65.328 37.0235C65.9039 38.3167 66.3534 39.7952 66.6586 41.1588C67.0869 43.3136 67.0996 45.5252 66.9458 47.7048C66.6472 50.4799 65.7653 53.1184 64.4387 55.4722C63.134 57.787 61.3795 59.6987 59.2683 61.3542L59.1507 61.4465L59.0449 61.552C58.7645 61.8319 58.3602 62.2948 58.1182 62.9388C57.8527 63.6455 57.8184 64.4905 58.1836 65.307C58.8454 66.9585 59.4554 68.4898 59.9097 70.0009L59.9339 70.0816L59.9636 70.1605C60.2218 70.8478 60.4839 71.557 60.7517 72.2817L60.7518 72.2821C61.4925 74.2866 62.2768 76.4092 63.1444 78.512L63.1793 78.5965L63.2203 78.6783C63.2881 78.8137 63.4146 79.0543 63.6057 79.3011C63.7891 79.538 64.1677 79.9597 64.7981 80.2114C66.11 80.7351 67.1428 80.1204 67.6396 79.7146C68.3789 79.2182 69.1099 78.6913 69.8015 78.1928L69.8201 78.1794C70.5736 77.6363 71.2817 77.1263 71.9824 76.66L72.0528 76.6132L72.1199 76.5617C74.4945 74.7387 76.4638 72.5836 78.2029 70.3294C79.6606 68.5067 80.741 66.5296 81.7059 64.7639L81.7368 64.7074C83.1707 62.1984 84.2417 59.521 84.9557 56.8484L84.9608 56.8295L84.9656 56.8105C85.2319 55.7471 85.4503 54.654 85.6571 53.6017L85.7119 53.3223L85.712 53.3217C85.9025 52.3508 86.0866 51.4121 86.3032 50.4755L86.3206 50.4003L86.3333 50.3241C86.8762 47.0734 86.8699 43.6914 86.518 40.5307L86.5161 40.5136L86.514 40.4966C86.1716 37.7633 85.6491 34.946 84.7533 32.2571C83.8617 29.4166 82.6149 26.7476 81.0141 24.2561C79.4691 21.69 77.7041 19.2107 75.5422 17.0472C72.7505 14.0912 69.7609 11.6334 66.2422 9.52634C64.498 8.48193 62.7194 7.58898 60.7493 6.8674C59.083 6.13663 57.2734 5.60148 55.4947 5.24645L55.2524 5.19809H55.0054C54.6269 5.19809 54.1229 5.14157 53.4509 5.03995C53.2663 5.01204 53.0601 4.97916 52.8425 4.94447C52.3811 4.87087 51.8685 4.78913 51.4023 4.72935C50.0495 4.48925 48.6619 4.40077 47.4311 4.32229C46.9006 4.28846 46.3992 4.25649 45.9423 4.21504Z" fill="white"/>
</svg>
