<svg width="89" height="89" viewBox="0 0 89 89" fill="none" xmlns="http://www.w3.org/2000/svg">
<path d="M43.3702 0.469654C42.927 0.827946 42.8848 0.954361 42.8848 2.21892V3.58886H42.3783C41.4919 3.58886 39.7191 4.11582 38.2839 4.81133C36.5323 5.65437 34.7173 7.42477 33.8731 9.04762C32.2902 12.1879 32.4591 16.1712 34.253 18.342C35.2449 19.5644 36.7011 20.3443 39.909 21.3771L42.8637 22.3465V27.1308V31.894L42.1461 31.5356C40.9009 30.8823 39.8246 29.4913 39.1492 27.5945C38.1995 24.9178 36.9755 23.9061 35.2449 24.3487C34.2107 24.6227 33.7042 25.002 33.2821 25.824C32.5224 27.3415 32.7123 29.3438 33.7886 31.3881C35.076 33.8119 38.2206 35.9826 41.3652 36.5939L42.8848 36.8889V38.2378C42.8848 39.4602 42.927 39.6077 43.3702 39.9449C44.0033 40.4297 44.3621 40.4297 44.9952 39.9449C45.4384 39.5866 45.4807 39.4392 45.4807 38.2378V36.91L46.8314 36.6992C49.5961 36.2145 52.6562 34.2755 54.0281 32.0836C55.1044 30.3975 55.4843 29.0065 55.5054 26.92C55.5054 24.5173 55.1044 23.3581 53.7326 21.8407C52.5718 20.5761 51.6432 20.0914 48.2454 19.0165L45.5862 18.1735L45.5229 13.4525C45.4595 8.18348 45.4384 8.33103 46.7258 9.25838C47.8444 10.0593 48.3931 10.8812 49.1529 12.9467C49.9548 15.0543 50.2292 15.4336 51.3266 15.9183C52.7196 16.5506 54.2391 15.9184 55.02 14.4009C55.3787 13.7054 55.4421 13.3892 55.3788 12.1668C55.1677 8.14131 51.5799 4.727 46.5992 3.73643L45.5018 3.52567V2.17683C45.5018 0.954422 45.4595 0.80687 45.0163 0.469654C44.742 0.258896 44.3832 0.0903282 44.2144 0.0903282C44.0033 0.0903282 43.6445 0.23782 43.3702 0.469654ZM42.8215 17.1197C42.6737 17.2883 40.7321 16.2767 40.0356 15.6865C39.1703 14.9067 38.8327 14.169 38.8327 12.9045C38.8538 10.9023 40.31 9.08977 42.336 8.52072L42.8004 8.41534L42.8637 12.7148C42.8848 15.0964 42.8848 17.0775 42.8215 17.1197ZM47.8233 24.3909C49.2795 25.3604 49.786 26.8568 49.2795 28.6061C48.9207 29.8496 48.0976 30.8612 46.9369 31.4302C45.3962 32.2311 45.4807 32.4419 45.4807 27.5734V23.2528L46.2826 23.5689C46.6836 23.7165 47.4012 24.0958 47.8233 24.3909Z" fill="white"/>
<path d="M72.1148 33.327C71.5661 33.9382 71.756 34.6969 72.8957 36.6992C73.5077 37.753 73.972 38.6171 73.972 38.6382C73.7821 38.8279 56.4973 49.0075 56.4129 49.0075C56.3285 49.0075 51.3267 46.4785 45.3118 43.3803C37.1232 39.1651 34.1263 37.7319 33.5143 37.6687C32.7123 37.5844 32.1425 37.8372 17.0526 45.3192C8.46302 49.5766 1.22411 53.2649 0.970852 53.4757C0.46434 53.9393 0.0211411 54.8667 0.0211411 55.4779C0.0211411 55.6886 0.189978 56.2366 0.401025 56.6581C0.802014 57.5223 1.89946 58.1966 2.89138 58.1966C3.25016 58.2177 8.61075 55.6254 18.2978 50.799L33.1766 43.3803L37.6297 45.6354C40.0779 46.8578 45.143 49.4501 48.8574 51.347C52.5718 53.2649 55.8431 54.8666 56.1385 54.9088C56.4129 54.972 56.9405 54.9089 57.2782 54.7824C57.637 54.6559 62.1111 52.0635 67.2607 49.0075C72.3891 45.9515 76.6523 43.4646 76.7367 43.4646C76.8211 43.4856 77.391 44.3708 78.003 45.4457C78.8261 46.921 79.2482 47.4479 79.6281 47.5955C80.62 47.9538 80.9154 47.5744 84.6721 41.0619C86.6137 37.6687 88.2599 34.6969 88.3232 34.4862C88.4076 34.1911 88.3232 33.875 88.091 33.5589L87.7322 33.0531L80.0924 32.9898C72.8323 32.9898 72.3891 33.0109 72.1148 33.327Z" fill="white"/>
<path d="M72.0726 50.3564L71.6083 50.7989V69.0718C71.6083 86.7967 71.6294 87.3868 71.967 87.7872L72.3258 88.2298L79.6492 88.2931C87.4368 88.3563 87.7956 88.3141 88.1754 87.4922C88.3232 87.1549 88.3865 82.0335 88.3865 69.114C88.3865 50.0613 88.4076 50.3564 87.5634 50.0402C87.3946 49.977 83.9545 49.9348 79.9024 49.9348H72.5369L72.0726 50.3564Z" fill="white"/>
<path d="M24.3971 55.1406L23.9328 55.5832V71.4745C23.9328 86.8389 23.9539 87.3868 24.2915 87.8083L24.6503 88.251L32.1003 88.3142L39.5502 88.3774L40.0779 87.9137L40.5844 87.4711V71.5378V55.6043L40.0779 55.1617L39.5713 54.7191H32.2058H24.8403L24.3971 55.1406Z" fill="white"/>
<path d="M48.2243 62.0115L47.7811 62.3698L47.7177 74.8256L47.6755 87.2605L48.2032 87.8084L48.7519 88.3564L56.2229 88.2933L63.7151 88.23L64.0739 87.7874C64.4116 87.3869 64.4327 86.8812 64.4327 74.91V62.4541L64.0106 62.0747C63.5885 61.6742 63.5252 61.6742 56.1174 61.6742C49.0262 61.6742 48.6252 61.6953 48.2243 62.0115Z" fill="white"/>
<path d="M0.991956 65.7207C-0.02107 66.1212 3.37632e-05 65.8683 3.37632e-05 76.891C3.37632e-05 84.0357 0.0633479 87.176 0.211081 87.4922C0.590965 88.3141 0.949747 88.3563 8.73738 88.2931L16.0607 88.2298L16.4195 87.7872C16.7572 87.3868 16.7783 86.9232 16.7783 77.0175C16.7783 71.327 16.715 66.5216 16.6727 66.353C16.3562 65.5732 15.8708 65.531 8.46302 65.5521C4.55865 65.5521 1.203 65.6153 0.991956 65.7207Z" fill="white"/>
</svg>
