<svg width="71" height="71" viewBox="0 0 71 71" fill="none" xmlns="http://www.w3.org/2000/svg">
<path d="M31.6893 48.0566L39.2266 41.7659C41.2356 40.0944 43.9778 39.625 46.4264 40.505L54.3451 43.3791C54.7266 43.5259 55.1372 43.5847 55.5478 43.5847L70.3876 43.5841V41.2376H63.3489V3.72785C63.3489 1.79196 61.7654 0.208496 59.8295 0.208496H10.558C8.62208 0.208496 7.03861 1.792 7.03861 3.72785V41.2534H-9.15527e-05V43.5999L18.3886 43.6148C18.77 43.6148 19.1367 43.556 19.5033 43.4389L29.343 40.1542C29.46 40.1102 29.5926 40.0954 29.7096 40.0954H37.5844L30.179 46.269C28.273 47.8525 28.009 50.6683 29.5926 52.5744C31.1761 54.4805 33.992 54.7445 35.8981 53.1609L35.9129 53.146L39.8137 49.9054L50.1959 60.2876C50.7093 60.801 50.7093 61.6364 50.1959 62.1498C49.6826 62.6632 48.8472 62.6632 48.3338 62.1498L39.5356 53.3516L37.8785 55.0088L45.5037 62.6341C46.0171 63.1475 46.0171 63.9829 45.5037 64.4963C44.9904 65.0097 44.1549 65.0097 43.6416 64.4963L37.1899 58.0446L35.5327 59.7018L40.8115 64.9806C41.3249 65.494 41.3249 66.3294 40.8115 66.8428C40.2981 67.3562 39.4627 67.3562 38.9494 66.8428L35.3124 63.2058C35.1365 61.3875 33.6409 59.9799 31.8079 59.9063C31.7349 57.9853 30.2096 56.4601 28.2886 56.387C28.2155 54.3631 26.5144 52.7945 24.4905 52.8676C24.1239 52.8825 23.7722 52.9556 23.4346 53.0732C22.8184 51.1522 20.7655 50.0815 18.8303 50.6977C18.2729 50.8736 17.7595 51.1814 17.3489 51.592L15.0024 53.9385C14.3132 54.6277 13.9317 55.5517 13.9317 56.5196L0.000914783 56.5047V58.8512H7.03962L7.03838 67.0766C7.03838 69.0125 8.62189 70.5959 10.5577 70.5959H22.2888V68.2494H10.5577C9.91244 68.2494 9.38482 67.7218 9.38482 67.0765V58.8648H14.7812C14.8543 58.9527 14.928 59.0258 15.0011 59.1144C15.6464 59.7745 16.5264 60.1554 17.4497 60.1851C17.5228 62.1061 19.0481 63.6314 20.969 63.7045C21.0421 65.7283 22.7432 67.2969 24.7671 67.2238C25.1337 67.209 25.4855 67.1359 25.823 67.0182C26.4392 68.9392 28.4921 70.01 30.4274 69.3937C30.6032 69.3349 30.7791 69.2767 30.9407 69.1881L31.4244 69.6718C32.8469 71.1091 35.1637 71.1091 36.6009 69.6718C36.9236 69.3491 37.1725 68.9825 37.3633 68.5571C38.8297 69.9505 41.1464 69.8916 42.5398 68.4252C42.9213 68.0294 43.2 67.5452 43.3758 67.0175C45.2819 67.6777 47.3646 66.68 48.039 64.7739C48.0539 64.7448 48.0539 64.7151 48.0681 64.6711C49.9742 65.3313 52.0712 64.3336 52.7313 62.4126C52.9952 61.6503 53.01 60.7993 52.7462 60.0371H54.8871C56.0458 60.0371 57.1895 59.6853 58.1569 59.0401L59.9021 57.8671C60.0928 57.7352 60.3275 57.6615 60.5622 57.6615H61.0168L61.0162 67.0765C61.0162 67.7218 60.4885 68.2495 59.8433 68.2495H48.1122V70.596H59.8433C61.7791 70.596 63.3626 69.0124 63.3626 67.0766V57.6771H70.4013V55.3306H60.5616C59.8575 55.3306 59.1831 55.5362 58.5965 55.932L56.8513 57.1049C56.2649 57.5006 55.5905 57.7062 54.8863 57.7062H50.9414L44.8998 51.6645C46.9377 51.7234 48.9177 51.0632 50.5012 49.7875L51.1904 49.245L49.724 47.412L49.0347 47.9545C46.5563 49.9485 42.9639 49.7436 40.7203 47.4999L39.9579 46.7376L34.4147 51.3568C33.5056 52.105 32.1711 51.9873 31.4087 51.0782C30.6618 50.1542 30.7789 48.8203 31.688 48.0573L31.6893 48.0566ZM29.7095 37.7481C29.328 37.7481 28.9614 37.8069 28.5948 37.9239L18.7551 41.2087C18.638 41.2526 18.5055 41.2675 18.3885 41.2675H9.38533V3.72763C9.38533 3.08234 9.91296 2.55471 10.5583 2.55471H59.8298C60.4751 2.55471 61.0027 3.08234 61.0027 3.72763V41.2675H55.5475C55.4156 41.2675 55.2688 41.2384 55.1518 41.1944L47.233 38.3203C46.0161 37.8806 44.7107 37.6899 43.4058 37.763H29.7097L29.7095 37.7481ZM17.5976 57.8378C16.8644 57.8378 16.278 57.2514 16.278 56.5181C16.278 56.1664 16.4099 55.8288 16.6594 55.5942L19.0059 53.2477C19.5193 52.7343 20.3547 52.7343 20.8681 53.2477C21.3815 53.761 21.3815 54.5965 20.8681 55.1098L18.5216 57.4563C18.2863 57.6917 17.9494 57.8378 17.5976 57.8378L17.5976 57.8378ZM21.1164 61.3572C20.3831 61.3572 19.7967 60.7707 19.7967 60.0375C19.7967 59.6857 19.9286 59.3482 20.1781 59.1135L23.6975 55.5942C24.2109 55.0808 25.0463 55.0808 25.5597 55.5942C26.0731 56.1075 26.0731 56.943 25.5597 57.4563L22.0403 60.9757C21.8056 61.2104 21.4687 61.3571 21.1163 61.3571L21.1164 61.3572ZM25.5597 64.4808C25.0463 64.9942 24.2109 64.9942 23.6975 64.4808C23.1841 63.9674 23.1841 63.132 23.6975 62.6186L27.2168 59.0993C27.7302 58.5859 28.5656 58.5859 29.079 59.0993C29.5924 59.6127 29.5924 60.4481 29.079 60.9615L25.5597 64.4808ZM30.2527 66.8273C29.7393 67.3407 28.9039 67.3407 28.3905 66.8273C27.8771 66.3139 27.8771 65.4785 28.3905 64.9651L30.737 62.6186C31.2504 62.1052 32.0858 62.1052 32.5992 62.6186C33.1126 63.132 33.1126 63.9674 32.5992 64.4808L30.2527 66.8273ZM34.945 68.0002C34.4316 68.5136 33.5962 68.5136 33.0829 68.0002L32.7453 67.6627L34.2558 66.1523C34.3728 66.0352 34.4756 65.9176 34.5784 65.7857L34.945 66.1523C35.4584 66.6657 35.4584 67.4869 34.945 68.0002L34.945 68.0002Z" fill="white"/>
<path d="M12.9058 28.3633H26.9834V30.7098H12.9058V28.3633Z" fill="white"/>
<path d="M16.4251 33.0562H22.291V35.4027H16.4251V33.0562Z" fill="white"/>
<path d="M43.4066 28.3633H57.4841V30.7098H43.4066V28.3633Z" fill="white"/>
<path d="M46.9261 33.0562H52.7919V35.4027H46.9261V33.0562Z" fill="white"/>
<path d="M26.9822 6.07471H43.4066V8.42121H26.9822V6.07471Z" fill="white"/>
<path d="M12.9058 11.9404H57.4847V14.2869H12.9058V11.9404Z" fill="white"/>
<path d="M12.9058 16.6333H57.4847V18.9798H12.9058V16.6333Z" fill="white"/>
<path d="M12.9059 21.3242H37.5409V23.6707H12.9059V21.3242Z" fill="white"/>
</svg>
