<svg width="116" height="69" viewBox="0 0 116 69" fill="none" xmlns="http://www.w3.org/2000/svg">
<path d="M18.9788 31.4958C24.3337 31.4958 28.6747 27.1634 28.6747 21.8191C28.6747 16.4748 24.3337 12.1425 18.9788 12.1425C13.6239 12.1425 9.28296 16.4748 9.28296 21.8191C9.28296 27.1634 13.6239 31.4958 18.9788 31.4958Z" fill="white"/>
<path d="M0.144775 55.6321H37.8137V44.3983C37.9252 39.2819 34.5818 37.2798 32.5757 36.0563C31.2384 35.2777 27.1148 34.6104 26.1118 35.389C24.1058 41.0615 20.428 52.2953 19.0907 52.2953C17.7533 52.1841 14.4099 39.5043 12.0696 35.5002C11.2894 34.0543 6.49723 35.1665 5.15987 36.1675C3.48817 37.391 0.702008 39.5043 0.256221 43.0636V55.6321H0.144775Z" fill="white"/>
<path d="M18.979 47.401C19.2019 46.9561 20.4278 44.7316 20.5393 43.8418C20.7622 42.5071 19.7591 38.6141 19.8706 38.3917C19.982 37.9468 21.3194 36.8345 21.5423 36.1672C21.6537 36.0559 21.5423 35.7223 21.5423 35.4998C21.4308 35.1661 20.8736 34.61 20.5393 34.4988H18.979H17.4188C17.0844 34.61 16.5272 35.1661 16.4157 35.4998C16.4157 35.611 16.3043 35.9447 16.4157 36.1672C16.6386 36.8345 17.976 37.9468 18.0874 38.3917C18.0874 38.6141 17.1959 42.5071 17.4188 43.8418C17.4188 44.7316 18.6447 46.9561 18.979 47.401Z" fill="white"/>
<path d="M96.397 31.4958C101.752 31.4958 106.093 27.1634 106.093 21.8191C106.093 16.4748 101.752 12.1425 96.397 12.1425C91.0422 12.1425 86.7012 16.4748 86.7012 21.8191C86.7012 27.1634 91.0422 31.4958 96.397 31.4958Z" fill="white"/>
<path d="M77.5623 55.6321H115.231V44.3983C115.343 39.2819 111.999 37.2798 109.993 36.0563C108.656 35.2777 104.532 34.6104 103.529 35.389C101.523 41.0615 97.8455 52.2953 96.5082 52.2953C95.1708 52.1841 91.8274 39.5043 89.487 35.5002C88.7069 34.0543 83.9147 35.1665 82.5774 36.1675C80.9057 37.391 78.1195 39.5043 77.6737 43.0636V55.6321H77.5623Z" fill="white"/>
<path d="M96.3967 47.401C96.6196 46.9561 97.8455 44.7316 97.957 43.8418C98.1799 42.5071 97.1769 38.6141 97.2883 38.3917C97.3998 37.9468 98.7371 36.8345 98.96 36.1672C99.0715 36.0559 98.96 35.7223 98.96 35.4998C98.8486 35.1661 98.2913 34.61 97.957 34.4988H96.3967H94.8365C94.5021 34.61 93.9449 35.1661 93.8335 35.4998C93.8335 35.611 93.722 35.9447 93.8335 36.1672C94.0564 36.8345 95.3937 37.9468 95.5052 38.3917C95.5052 38.6141 94.6136 42.5071 94.8365 43.8418C94.8365 44.7316 96.0624 46.9561 96.3967 47.401Z" fill="white"/>
<path d="M61.7697 30.7891C70.1334 30.7891 76.9136 24.0224 76.9136 15.6751C76.9136 7.32791 70.1334 0.561157 61.7697 0.561157C53.4059 0.561157 46.6257 7.32791 46.6257 15.6751C46.6257 24.0224 53.4059 30.7891 61.7697 30.7891Z" fill="white"/>
<path d="M32.3521 68.4872H91.1871V50.9411C91.3612 42.9498 86.1391 39.8228 83.0059 37.9118C80.9171 36.6958 74.4766 35.6534 72.91 36.8695C69.7767 45.7294 64.0325 63.2755 61.9437 63.2755C59.8548 63.1018 54.6328 43.2973 50.9774 37.0432C49.7589 34.7848 42.2739 36.5221 40.1851 38.0856C37.5741 39.9965 33.2224 43.2973 32.5261 48.8564V68.4872H32.3521Z" fill="white"/>
<path d="M61.7701 55.632C62.1183 54.9371 64.033 51.4626 64.2071 50.0728C64.5552 47.9881 62.9886 41.9078 63.1627 41.5603C63.3368 40.8654 65.4256 39.1282 65.7737 38.0858C65.9478 37.9121 65.7737 37.3909 65.7737 37.0435C65.5996 36.5223 64.7293 35.6537 64.2071 35.48H61.7701H59.3332C58.811 35.6537 57.9406 36.5223 57.7666 37.0435C57.7666 37.2172 57.5925 37.7384 57.7666 38.0858C58.1147 39.1282 60.2035 40.8654 60.3776 41.5603C60.3776 41.9078 58.985 47.9881 59.3332 50.0728C59.3332 51.4626 61.2479 54.9371 61.7701 55.632Z" fill="white"/>
</svg>
