<svg width="76" height="55" viewBox="0 0 76 55" fill="none" xmlns="http://www.w3.org/2000/svg">
<path d="M75.9561 54.216C50.6273 54.216 25.4297 54.216 0.0571382 54.216C0.0571382 52.3106 -0.117846 50.3614 0.144628 48.4779C0.253993 47.6675 1.32577 47.0105 1.93821 46.2877C3.29433 44.667 4.67232 43.0901 5.94095 41.4037C6.31279 40.9 6.59714 40.1772 6.59714 39.564C6.64088 28.022 6.61901 16.5019 6.64088 4.95983C6.64088 4.21519 6.7065 3.40484 6.99085 2.72589C7.53767 1.41181 8.63132 0.929981 10.0531 0.951883C19.5678 0.973784 29.0825 0.973784 38.5972 0.973784C47.4557 0.973784 56.3142 1.01759 65.1728 0.951883C67.6007 0.929981 69.0005 2.09075 69.0005 4.82843C69.0005 13.3262 69.0005 21.8458 69.0005 30.3435C69.0005 33.4535 68.9568 36.5416 69.0224 39.6516C69.0443 40.3086 69.3067 41.0971 69.7223 41.6008C71.669 44.0319 73.7251 46.3753 75.7374 48.7626C75.8905 48.9597 75.9999 49.2663 75.9999 49.5072C75.978 51.0403 75.9561 52.5734 75.9561 54.216ZM37.7879 3.44864C29.8043 3.44864 21.8207 3.44864 13.8371 3.44864C11.5623 3.44864 10.5999 4.4123 10.5999 6.71194C10.5999 15.9762 10.5999 25.2405 10.5999 34.5267C10.5999 37.0891 11.5185 37.9871 14.0995 37.9871C17.4461 37.9871 20.8145 37.9871 24.1611 37.9871C36.6505 37.9871 49.1618 37.9871 61.6512 37.9871C63.9698 37.9871 64.9322 37.111 64.9322 34.8771C64.954 25.4157 64.954 15.9762 64.9322 6.51483C64.9322 4.3904 63.9479 3.47054 61.8262 3.47054C53.8207 3.44864 45.7934 3.44864 37.7879 3.44864ZM26.414 48.8721C34.0914 48.8721 41.5719 48.8721 49.1837 48.8721C48.1994 47.4266 47.4338 46.2877 45.4215 46.3534C40.3908 46.5286 35.36 46.5286 30.3292 46.3534C28.2732 46.2877 27.3764 47.3171 26.414 48.8721ZM37.7879 51.8507C39.4721 51.8507 41.1344 51.8945 42.8187 51.8069C43.2342 51.785 43.628 51.325 44.0435 51.0841C43.6498 50.8651 43.2561 50.4709 42.8405 50.4709C39.494 50.4271 36.1474 50.4271 32.8009 50.4709C32.3853 50.4709 31.9916 50.8651 31.5979 51.0841C31.9916 51.3469 32.3853 51.8069 32.8009 51.8288C34.4195 51.8945 36.1037 51.8507 37.7879 51.8507Z" fill="#0059B1"/>
<path d="M48.1555 29.643C47.215 30.5847 46.3401 31.4608 45.3996 32.3807C44.4372 31.7455 43.431 31.0885 42.4467 30.4314C41.4624 29.7963 40.7188 30.1029 40.4563 31.2418C40.2594 32.1616 40.0188 33.0815 39.9095 34.0233C39.8438 34.6584 39.5595 34.7898 38.9908 34.8117C35.9067 34.9431 35.9067 34.965 35.2724 31.9864C35.2068 31.7017 35.1412 31.417 35.0755 31.1323C34.8568 30.1905 34.0475 29.862 33.2163 30.3876C32.3852 30.9133 31.554 31.4389 30.7666 32.0083C30.3073 32.3369 29.9792 32.3588 29.5636 31.9426C28.8418 31.2418 28.0325 30.6066 27.245 29.9058C28.0762 28.6574 28.7543 27.6719 29.3886 26.6644C30.001 25.7007 29.6073 24.8685 28.4699 24.6495C27.5075 24.4743 26.5451 24.2772 25.6046 23.9924C25.364 23.9267 25.189 23.5325 24.9921 23.2916C24.9703 23.2697 24.9921 23.2259 24.9921 23.1821C25.014 22.1965 24.6859 20.9919 25.1452 20.313C25.5171 19.7436 26.8295 19.7874 27.7044 19.5465C28.0543 19.4589 28.4043 19.3493 28.7543 19.2617C29.5417 19.0427 29.9135 18.1886 29.4761 17.5096C28.9511 16.6336 28.3824 15.8013 27.7919 14.9691C27.4638 14.5091 27.4638 14.1806 27.8794 13.7426C29.9573 11.4649 29.9573 11.4649 32.5383 13.1732C32.8008 13.3484 33.0632 13.5674 33.3476 13.7426C34.0913 14.1587 34.8787 13.8083 35.0755 12.9541C35.2943 11.9686 35.5568 10.9611 35.688 9.95366C35.7755 9.29662 36.0817 9.0557 36.6941 9.09951C36.7379 9.09951 36.7598 9.09951 36.8035 9.09951C39.647 9.0338 39.647 9.0338 40.2376 11.7496C40.3032 12.0781 40.3688 12.3847 40.4563 12.7132C40.7406 13.9178 41.5062 14.2244 42.5123 13.5455C43.2998 13.0198 44.1091 12.5161 44.8746 11.9686C45.3558 11.6182 45.7277 11.662 46.0776 12.1C46.2307 12.2971 46.4276 12.4723 46.6026 12.6475C48.2868 14.312 48.3524 14.3558 46.8869 16.2613C45.159 18.539 45.7714 19.2179 48.3524 19.6122C50.6053 19.9407 50.6053 19.9845 50.6053 22.2403C50.6053 23.8829 50.6053 23.8829 49.0305 24.2333C48.3524 24.3867 47.6743 24.5181 46.9963 24.6495C46.0339 24.8247 45.6183 25.7226 46.1432 26.5549C46.7775 27.6281 47.4556 28.6136 48.1555 29.643ZM37.7659 26.4454C40.2594 26.4454 42.2499 24.5181 42.2499 22.0651C42.2717 19.656 40.0844 17.4658 37.7222 17.5315C35.3161 17.5972 33.282 19.656 33.3038 22.0432C33.3257 24.4962 35.2943 26.4454 37.7659 26.4454Z" fill="#0059B1"/>
</svg>
