<svg width="67" height="67" viewBox="0 0 67 67" fill="none" xmlns="http://www.w3.org/2000/svg">
<path d="M66.9669 8.32985C66.8753 8.32985 66.738 8.32985 66.6464 8.32985C61.2909 8.32985 55.9812 8.32985 50.6256 8.32985C50.5341 8.32985 50.3968 8.32985 50.2594 8.32985C50.2594 11.1221 50.2594 13.8685 50.2594 16.6607C49.344 16.6607 48.4285 16.6607 47.513 16.6607C47.513 16.5691 47.513 16.4776 47.513 16.386C47.5588 13.5938 47.6046 10.8474 47.6046 8.05521C47.6046 6.40736 47.925 4.80528 48.7031 3.34052C48.7947 3.2032 48.8405 3.0201 48.8862 2.88278C48.8862 2.88278 48.8862 2.83701 48.8862 2.79123C48.4743 2.79123 48.0623 2.79123 47.6503 2.79123C37.0766 2.79123 26.4571 2.79123 15.8834 2.83701C15.4714 2.83701 15.0594 3.0201 14.6932 3.2032C12.9996 3.98135 11.9011 5.30879 11.306 7.04819C11.2602 7.13974 11.2602 7.27706 11.2602 7.36861C11.2602 24.2591 11.2144 41.1496 11.2144 58.0401C11.2144 58.1317 11.2144 58.269 11.2144 58.4063C11.3975 58.4063 11.5349 58.4063 11.6722 58.4063C19.7284 58.4063 27.7845 58.4063 35.8407 58.4063C36.1611 58.4063 36.2527 58.4979 36.2985 58.8183C36.4816 60.1 36.8935 61.2443 37.7632 62.2056C40.0519 64.7231 43.8054 64.6316 46.094 62.0682C47.1011 60.9239 47.4215 59.5965 47.4215 58.1775C47.4672 55.2479 47.4673 52.3184 47.4673 49.3889C47.4673 47.9241 47.4673 46.5052 47.4673 45.0404C47.4673 44.9031 47.4673 44.8115 47.4673 44.6284C48.3827 44.6284 49.2982 44.6284 50.2137 44.6284C50.2137 44.7658 50.2137 44.8573 50.2137 44.9946C50.2137 49.2516 50.1679 53.4628 50.1221 57.7197C50.1221 58.6352 50.0764 59.5965 49.8475 60.5119C49.344 62.5717 48.1996 64.2654 46.3229 65.4555C44.9039 66.371 43.3018 66.7372 41.6082 66.7372C35.7492 66.7372 29.8444 66.7829 23.9853 66.7829C19.0875 66.7829 14.2355 66.7372 9.33772 66.6914C8.46802 66.6914 7.59832 66.7372 6.77439 66.5998C4.89767 66.2794 3.38714 65.3639 2.15124 63.945C0.915353 62.526 0.320294 60.8781 0.0914255 59.0472C0.0914255 58.9556 0.0456517 58.8641 -0.00012207 58.7725C-0.00012207 58.681 -0.00012207 58.5894 -0.00012207 58.4979C2.79208 58.4979 5.58427 58.4979 8.37647 58.4979C8.37647 58.3148 8.37647 58.1775 8.37647 58.0401C8.37647 44.6742 8.37647 31.3083 8.37647 17.9423C8.37647 14.6009 8.46802 11.2594 8.51379 7.91789C8.51379 6.91087 8.69689 5.90385 9.15463 4.98837C10.4821 2.28772 12.5877 0.68564 15.6087 0.273676C16.6615 0.136355 17.7601 0.182128 18.8587 0.182128C29.2951 0.182128 39.6857 0.182128 50.1221 0.182128C52.9143 0.182128 55.7065 0.227902 58.4987 0.273676C59.2769 0.273676 60.055 0.273676 60.7416 0.502545C63.7627 1.41802 65.731 3.43206 66.5549 6.54468C66.6922 7.09396 66.7838 7.68902 66.8753 8.23831C66.9669 8.14676 66.9669 8.23831 66.9669 8.32985Z" fill="white"/>
<path d="M49.4358 30.805C49.1154 30.4846 48.795 30.1642 48.4746 29.8438C51.0837 27.2347 53.647 24.6256 56.3019 21.9249C55.661 21.2383 55.0202 20.5517 54.3794 19.9109C54.2878 20.0024 54.1963 20.094 54.1047 20.1855C52.64 21.6045 51.1752 23.0693 49.7104 24.4883C49.5273 24.6714 49.2527 24.8544 49.0696 25.0375C48.3372 25.6326 47.2387 25.1291 47.1471 24.1221C47.1013 23.6186 47.1471 23.2066 47.6048 22.7946C50.0766 20.4144 52.5026 17.9884 54.9286 15.5624C55.1117 15.3793 55.2948 15.1504 55.5237 15.0131C55.9814 14.6927 56.485 14.6469 56.9427 14.9215C57.4004 15.1962 57.7666 15.5624 57.6293 16.1574C57.5378 16.5236 57.3547 16.844 57.1258 17.1645C56.8969 17.4849 56.5765 17.8053 56.3019 18.0799C56.9885 18.7665 57.6293 19.4074 58.3159 20.1398C58.7736 19.682 59.2314 19.1785 59.6891 18.7208C59.918 18.4919 60.1926 18.263 60.4215 18.0342C61.1539 17.3018 62.0694 17.3018 62.9848 17.4391C63.2137 17.4849 63.4426 17.5764 63.5799 17.7137C64.4954 18.5377 65.4108 19.4074 66.2348 20.2771C66.9671 21.0552 67.0587 22.0165 66.6925 22.9777C66.601 23.2066 66.4636 23.3897 66.3263 23.5728C63.8088 26.1819 61.2912 28.7452 58.7279 31.3085C57.3547 32.6818 55.9814 34.055 54.6082 35.4282C54.5167 35.5197 54.4709 35.6113 54.3794 35.7028C54.0132 35.3366 53.6928 35.0162 53.3266 34.6958C52.0449 36.0232 50.7632 37.3049 49.4358 38.6323C46.0943 41.9281 42.7071 45.2695 39.3198 48.5652C38.3586 49.5265 37.3058 50.3504 36.2072 51.1743C35.6579 51.5863 35.0171 51.9067 34.3762 52.1814C33.7354 52.456 33.1861 52.8222 32.6826 53.2799C32.2706 53.6461 31.8587 54.0123 31.4467 54.4243C30.8974 54.9278 30.0277 54.7447 29.6615 54.3785C29.2954 54.0123 29.1123 53.1426 29.6158 52.5933C30.0277 52.1356 30.4855 51.7236 30.8517 51.2201C31.2178 50.7624 31.5383 50.3046 31.7671 49.8011C32.5911 48.0617 33.7354 46.5054 35.1086 45.1322C39.686 40.5091 44.2634 35.8859 48.8407 31.2628C49.0696 31.1712 49.2527 30.9881 49.4358 30.805Z" fill="white"/>
<path d="M29.3414 30.347C23.0704 30.759 17.9895 25.5866 17.1198 20.4599C16.2043 15.379 17.8522 11.2136 21.9261 8.05523C24.3521 6.17851 27.19 5.35458 30.2569 5.62922C35.1547 6.13273 38.7708 8.60452 40.7391 13.1819C43.7144 20.048 40.0067 27.8295 32.8202 30.0266C32.4082 30.1639 31.9505 30.3013 31.4928 30.347C30.8062 30.3928 30.0738 30.347 29.3414 30.347ZM29.2956 27.7837C34.5596 27.8295 39.0912 23.481 39.0912 18.0339C39.0912 12.8157 34.8343 8.32987 29.2956 8.2841C24.4894 8.23832 19.5916 12.2664 19.5458 17.9424C19.5 23.5268 24.2147 27.8295 29.2956 27.7837Z" fill="white"/>
<path d="M14.0526 41.6533C14.0526 40.7378 14.0526 39.8681 14.0526 38.9526C19.5455 38.9526 25.0841 38.9526 30.5769 38.9526C30.5769 39.8223 30.5769 40.7378 30.5769 41.6533C25.1299 41.6533 19.5912 41.6533 14.0526 41.6533Z" fill="white"/>
<path d="M30.6229 44.5825C30.6229 45.4522 30.6229 46.2761 30.6229 47.1458C25.0842 47.1458 19.5914 47.1458 14.0528 47.1458C14.0528 46.2761 14.0528 45.4522 14.0528 44.5825C19.5914 44.5825 25.0842 44.5825 30.6229 44.5825Z" fill="white"/>
<path d="M29.3412 18.0798C29.3412 17.6678 29.3412 17.2559 29.3412 16.8897C29.3412 15.3791 29.387 13.9144 29.4327 12.4038C29.4327 11.9003 29.6616 11.5341 30.1193 11.351C30.6228 11.1222 31.1721 11.0764 31.5841 11.4426C31.7672 11.5799 31.9045 11.8546 31.9503 12.0834C32.0418 12.6327 32.0876 13.2278 32.0876 13.7771C32.0876 15.7453 32.0876 17.7136 32.0876 19.6819C32.0876 19.865 31.9045 20.0938 31.813 20.2769C31.5383 20.6889 31.1721 20.8262 30.6686 20.8262C28.3799 20.7804 26.0455 20.8262 23.7568 20.8262C23.5279 20.8262 23.2533 20.9178 23.0702 20.6889C22.7498 20.3227 22.4293 20.0023 22.4751 19.453C22.5209 18.7664 22.8413 18.3544 23.5279 18.2629C24.2603 18.1713 25.0384 18.1713 25.7708 18.1713C26.9152 18.0798 28.1053 18.0798 29.3412 18.0798Z" fill="white"/>
</svg>
