<svg width="127" height="43" viewBox="0 0 127 43" fill="none" xmlns="http://www.w3.org/2000/svg">
<path d="M47.0576 38.1018L48.0767 36.8457C49.0959 37.8174 50.3046 38.4574 51.8689 38.4574C53.4568 38.4574 54.2863 37.6278 54.2863 36.7035C54.2863 35.6133 53.3383 35.1867 51.3948 34.7601C49.0485 34.2149 47.4842 33.5039 47.4842 31.4183C47.4842 29.4985 49.167 28.0291 51.4659 28.0291C53.2435 28.0291 54.5707 28.6927 55.6847 29.6644L54.7129 30.9442C53.7412 30.0673 52.5799 29.5459 51.4185 29.5459C50.1387 29.5459 49.2144 30.3754 49.2144 31.2997C49.2144 32.3663 50.2098 32.7455 52.1059 33.1958C54.4048 33.7409 55.9928 34.4993 55.9928 36.5613C55.9928 38.5048 54.5233 39.9742 51.7978 39.9742C49.878 39.9505 48.2664 39.2869 47.0576 38.1018Z" fill="white"/>
<path d="M59.7846 29.8304V33.1248H65.8994V34.689H59.7846V38.1967H66.5393V39.7847H58.0781V28.2661H66.5393V29.8541H59.7846V29.8304Z" fill="white"/>
<path d="M74.8345 35.5896L77.7734 39.761H75.83L73.0096 35.7556H70.3551V39.761H68.6724V28.2424H73.5073C75.9485 28.2424 77.7734 29.8067 77.7734 31.9871C77.7734 33.7884 76.5647 35.1393 74.8345 35.5896ZM70.3551 34.1913H73.2703C74.9293 34.1913 76.0433 33.3618 76.0433 32.0108C76.0433 30.6599 74.9293 29.8304 73.2703 29.8304H70.3551V34.1913Z" fill="white"/>
<path d="M90.6669 28.2424L85.7135 39.761H83.8411L78.8877 28.2424H80.7601L84.7655 37.5805L88.7709 28.2424H90.6669Z" fill="white"/>
<path d="M92.3735 28.2424H94.0563V39.761H92.3735V28.2424Z" fill="white"/>
<path d="M96.1416 34.0019C96.1416 30.7549 98.8909 28.053 102.138 28.053C103.773 28.053 105.29 28.7403 106.38 29.8542L105.195 30.9919C104.413 30.1623 103.323 29.5935 102.138 29.5935C99.8389 29.5935 97.8955 31.6081 97.8955 33.9782C97.8955 36.3719 99.8389 38.3865 102.138 38.3865C103.323 38.3865 104.413 37.8414 105.195 36.9881L106.38 38.1258C105.29 39.2397 103.773 39.927 102.138 39.927C98.8909 39.9744 96.1416 37.2488 96.1416 34.0019Z" fill="white"/>
<path d="M109.793 29.8304V33.1248H115.908V34.689H109.793V38.1967H116.548V39.7847H108.087V28.2661H116.548V29.8541H109.793V29.8304Z" fill="white"/>
<path d="M118.065 38.1018L119.084 36.8457C120.103 37.8174 121.312 38.4574 122.876 38.4574C124.464 38.4574 125.294 37.6278 125.294 36.7035C125.294 35.6133 124.346 35.1867 122.402 34.7601C120.056 34.2149 118.492 33.5039 118.492 31.4183C118.492 29.4985 120.174 28.0291 122.473 28.0291C124.251 28.0291 125.578 28.6927 126.692 29.6644L125.72 30.9442C124.749 30.0673 123.587 29.5459 122.426 29.5459C121.146 29.5459 120.222 30.3754 120.222 31.2997C120.222 32.3663 121.217 32.7455 123.113 33.1958C125.412 33.7409 127 34.4993 127 36.5613C127 38.5048 125.531 39.9742 122.805 39.9742C120.862 39.9505 119.274 39.2869 118.065 38.1018Z" fill="white"/>
<path d="M47.5786 2.7168H52.4136L59.4053 15.4678L66.3733 2.7168H71.2319V25.2799H66.3733V11.2253L59.4053 23.9763L52.4136 11.2253V25.2799H47.5786V2.7168Z" fill="white"/>
<path d="M76.7305 2.7168H81.5654L88.5571 15.4678L95.5251 2.7168H100.384V25.2799H95.5251V11.2253L88.5571 23.9763L81.5654 11.2253V25.2799H76.7305V2.7168Z" fill="white"/>
<path d="M105.859 2.7168H113.941C121.525 2.7168 126.905 7.38583 126.905 13.9746C126.905 20.5871 121.525 25.2799 113.941 25.2799H105.859V2.7168ZM114.557 20.8715C118.871 20.8715 121.904 18.0037 121.904 13.9746C121.904 9.96921 118.847 7.10143 114.557 7.10143H110.67V20.8715H114.557Z" fill="white"/>
<path d="M43.9527 0.631104H42.0093V42.0599H43.9527V0.631104Z" fill="white"/>
<path d="M8.30717 10.5857C12.3126 8.07339 17.2897 8.45261 20.6789 11.2967L23.0253 8.95032C19.7072 6.10624 15.1567 4.9212 10.7957 5.91663C8.63898 6.39065 6.60072 7.48088 4.91797 8.97402L7.31174 11.3204C7.61985 11.0597 7.95166 10.8227 8.30717 10.5857Z" fill="white"/>
<path d="M14.0423 17.0796C15.3932 17.0796 16.5072 15.9657 16.5072 14.6148C16.5072 13.2638 15.3932 12.1499 14.0423 12.1499C12.6676 12.1499 11.5537 13.2638 11.5537 14.6148C11.5774 15.9657 12.6913 17.0796 14.0423 17.0796Z" fill="white"/>
<path d="M10.6768 19.5679V25.8486H17.4078V20.2789C17.4078 20.1604 17.4078 20.0182 17.4078 19.8997V19.5679C17.3367 18.525 16.8389 17.6955 15.9857 17.0793C15.7961 16.9371 15.6539 16.9371 15.4643 17.0556C14.6111 17.5296 13.7104 17.6007 12.8572 17.1267C12.4543 16.9134 12.2173 17.0082 11.9329 17.2689C11.1508 17.9088 10.819 18.7147 10.7242 19.5916H10.6768V19.5679Z" fill="white"/>
<path d="M18.024 19.26C18.0477 19.4496 18.1662 19.5681 18.3558 19.6392C19.4461 20.0658 20.6311 19.2837 20.6311 18.0987C20.6311 17.2691 20.1097 16.6055 19.3513 16.4633C18.5691 16.2974 17.8107 16.6766 17.4789 17.3639C17.4078 17.5298 17.3604 17.672 17.4789 17.8379C17.7633 18.2646 17.9529 18.7386 18.024 19.26Z" fill="white"/>
<path d="M6.55301 24.5689V25.8487H9.72891V21.156V20.0658C9.72891 19.9236 9.65781 19.8999 9.4682 19.971C8.94679 20.1606 8.40167 20.1132 7.92766 19.8288C7.73805 19.734 7.61955 19.7577 7.47735 19.8762C7.07444 20.1843 6.81372 20.5635 6.67152 20.9901C6.60042 21.2271 6.55301 21.4641 6.55301 21.7248C6.52931 22.341 6.55301 22.981 6.55301 23.5972C6.55301 23.9053 6.55301 24.2371 6.55301 24.5689Z" fill="white"/>
<path d="M10.2262 18.0274C10.4869 17.5297 10.4869 17.3638 10.084 16.9609C9.75219 16.6054 9.34927 16.4395 8.70936 16.4395C8.14054 16.4632 7.61913 16.7713 7.33472 17.4349C7.07401 18.0748 7.12141 18.7147 7.61912 19.2361C8.09314 19.7576 8.70935 19.8998 9.39667 19.6864C9.63368 19.6153 9.77589 19.4968 9.79959 19.2361C9.87069 18.7858 10.0129 18.4066 10.2262 18.0274Z" fill="white"/>
<path d="M20.9865 25.8486H21.105V25.8249C21.2472 25.7775 21.2709 25.6353 21.2709 25.422C21.2472 24.8058 21.2709 24.2133 21.2709 23.5971C21.2709 22.9335 21.2946 22.2698 21.2709 21.6062C21.2235 20.8715 20.9154 20.279 20.3229 19.8524C20.2044 19.7813 20.1096 19.7102 19.9674 19.805C19.4459 20.1131 18.9008 20.1368 18.332 19.9472C18.1661 19.8998 18.095 19.9235 18.1187 20.0894C18.1187 20.4212 18.1187 20.753 18.1187 21.0848V25.8486H20.9154C20.9154 25.8486 20.9628 25.8486 20.9865 25.8486Z" fill="white"/>
<path d="M21.9348 31.2525C22.314 30.9918 22.5036 31.0866 22.7643 31.371C23.9968 32.6034 25.2292 33.8359 26.4616 35.092C27.1015 35.7319 28.0496 35.9926 28.9028 35.6845C28.9739 35.6608 29.0213 35.6371 29.0924 35.6134C29.0924 35.6134 29.1161 35.6134 29.1161 35.5897C29.1161 35.5897 29.1398 35.5897 29.1398 35.566C29.1635 35.566 29.1872 35.5423 29.1872 35.5423C29.5427 35.329 30.467 34.618 29.9456 33.1485C29.7797 32.7219 29.519 32.319 29.1872 31.9872C28.0259 30.8259 26.8408 29.6408 25.6558 28.4795C25.3003 28.1477 25.2766 27.9107 25.5847 27.5315C26.2957 26.6072 26.7934 25.5643 27.1726 24.4741C27.8363 22.5306 28.097 20.5398 27.9074 18.5015C27.6704 15.7996 26.7223 13.3822 25.1107 11.2254C24.8737 10.9173 24.7315 10.8699 24.4471 11.178C23.9493 11.7231 23.4042 12.2682 22.8591 12.7659C22.4799 13.0978 22.4562 13.3348 22.7406 13.7851C26.2009 18.8807 24.7552 25.7776 19.2092 28.9535C13.4736 32.2479 6.60044 29.5934 4.15927 23.7157C2.68983 20.208 3.16384 16.8188 5.2732 13.6666C5.51021 13.3348 5.51021 13.1689 5.2021 12.8845C4.51478 12.2208 3.85116 11.5098 3.21124 10.8462C3.14014 10.8936 3.11644 10.8936 3.09274 10.9173C-1.41039 16.3448 -0.746779 24.3319 3.47194 29.0246C8.11728 34.0966 16.0096 35.3053 21.9348 31.2525Z" fill="white"/>
</svg>
