<svg width="15" height="15" viewBox="0 0 15 15" fill="none" xmlns="http://www.w3.org/2000/svg">
<path fill-rule="evenodd" clip-rule="evenodd" d="M13.5937 4.21872C14.3704 3.44207 14.3704 2.18287 13.5937 1.40622C12.8171 0.629567 11.5579 0.629568 10.7812 1.40622L7.49997 4.68747L4.21875 1.40625C3.4421 0.6296 2.1829 0.629599 1.40625 1.40625C0.6296 2.1829 0.629601 3.4421 1.40625 4.21875L4.68747 7.49997L1.40622 10.7812C0.629568 11.5579 0.629568 12.8171 1.40622 13.5937C2.18287 14.3704 3.44207 14.3704 4.21872 13.5937L7.49997 10.3125L10.7812 13.5937C11.5579 14.3704 12.8171 14.3704 13.5938 13.5937C14.3704 12.8171 14.3704 11.5579 13.5937 10.7812L10.3125 7.49997L13.5937 4.21872Z" fill="#C10601"/>
</svg>
