<svg width="66" height="62" viewBox="0 0 66 62" fill="none" xmlns="http://www.w3.org/2000/svg">
<path d="M18.9486 39.3401C23.5923 38.2338 27.0501 34.0384 27.0501 29.0242C27.0501 23.1766 22.3349 18.4209 16.5053 18.4209C10.6757 18.4209 5.96051 23.1622 5.96051 29.0242C5.96051 34.0384 9.41828 38.2338 14.062 39.3401C6.47489 40.5182 0.673828 47.1129 0.673828 55.0582C0.673828 63.8367 32.3082 63.8367 32.3082 55.0582C32.3368 47.0985 26.5357 40.5182 18.9486 39.3401Z" fill="white"/>
<path d="M53.2122 38.9809C57.6558 37.9177 60.9564 33.9091 60.9564 29.1247C60.9564 23.5358 56.4413 18.9956 50.8832 18.9956C45.325 18.9956 40.8099 23.5358 40.8099 29.1247C40.8099 33.9091 44.1105 37.9177 48.5542 38.9809C41.31 40.1015 35.7661 46.4089 35.7661 53.995C35.7661 62.3856 66.0002 62.3856 66.0002 53.995C66.0002 46.4089 60.4564 40.1159 53.2122 38.9809Z" fill="white"/>
<path d="M25.2212 20.0156C24.6925 20.0156 24.1353 19.9294 23.5352 19.7139C23.0208 19.5271 22.7493 18.9668 22.9208 18.4496C23.0779 17.9754 23.5494 17.7168 24.021 17.7887C24.0924 17.7599 24.321 17.6019 24.5925 16.9985C24.6782 16.826 24.7354 16.6536 24.7782 16.4812C23.278 15.3749 22.3778 13.8663 22.2206 12.1853C21.892 8.62217 24.9926 5.36074 29.4362 4.62799C29.9792 4.54179 30.4936 4.90098 30.5793 5.44694C30.665 5.99291 30.3078 6.51014 29.7649 6.59635C26.4071 7.15668 23.9638 9.52733 24.1924 11.9985C24.3067 13.2485 25.0926 14.3692 26.3785 15.1738C26.6929 15.3749 26.8786 15.7197 26.8501 16.0933C26.8072 16.6105 26.6643 17.1709 26.4357 17.7168C27.093 17.4007 27.5788 16.8691 27.8931 16.4669C28.1217 16.1651 28.4932 16.0215 28.8647 16.0933C29.6649 16.237 30.4793 16.2801 31.308 16.1939C33.0083 16.0358 34.58 15.4037 35.7374 14.4267C36.1517 14.0675 36.7804 14.1249 37.1376 14.556C37.4949 14.9726 37.4377 15.6048 37.0091 15.964C35.5374 17.1996 33.5799 17.9898 31.4938 18.191C30.6936 18.2772 29.8792 18.2628 29.079 18.1622C28.3932 18.895 27.0501 20.0156 25.2212 20.0156Z" fill="white"/>
<path d="M46.1538 18.2485C46.0395 18.2485 45.9109 18.2198 45.7966 18.1767C43.2819 17.4583 41.9388 17.056 41.0243 16.2514C40.0241 16.4238 39.0096 16.4669 37.9666 16.3951C32.237 16.0072 27.8076 12.0274 28.1077 7.51596C28.4077 3.00455 33.3229 -0.357456 39.0525 0.0304675C44.7821 0.418391 49.2115 4.3982 48.9115 8.90962C48.7686 10.9642 47.7112 12.8176 45.8823 14.2112C45.9538 14.4699 46.0538 14.7428 46.1967 15.0158C46.5967 15.8204 46.8111 16.2802 46.9254 16.5244C47.2683 17.2715 47.1683 17.8031 46.6253 18.1048C46.4824 18.2054 46.3253 18.2485 46.1538 18.2485ZM41.3672 14.1825C41.6673 14.1825 41.9388 14.3118 42.1388 14.5417C42.4817 14.9727 43.0675 15.2457 44.2963 15.648C44.0248 15.0302 43.8677 14.4411 43.8105 13.8664C43.7819 13.4929 43.9534 13.1337 44.2535 12.9325C45.868 11.8693 46.8254 10.3895 46.9254 8.78031C47.154 5.36083 43.5533 2.32928 38.9239 2.02756C34.2802 1.72584 30.3223 4.24016 30.0937 7.65964C29.8651 11.0791 33.4658 14.1107 38.0952 14.4124C39.1382 14.4842 40.167 14.4124 41.1529 14.1969C41.2243 14.1969 41.2958 14.1825 41.3672 14.1825Z" fill="white"/>
</svg>
