<svg width="74" height="54" viewBox="0 0 74 54" fill="none" xmlns="http://www.w3.org/2000/svg">
<path d="M26.0051 11.0065C24.04 11.0065 22.1969 11.0065 20.2589 11.0065C20.3402 10.758 20.3944 10.606 20.4622 10.4679C20.8416 9.69458 21.2346 8.93502 21.587 8.16166C21.7632 7.77498 22.0071 7.6645 22.4137 7.6645C25.1648 7.67831 27.9295 7.67831 30.6807 7.6645C31.0737 7.6645 31.4938 7.54021 31.8326 7.36068C34.6786 5.84157 37.6872 5.23393 40.8991 5.45489C43.4334 5.62061 45.778 6.62874 48.231 7.11209C49.8573 7.42973 51.5107 7.65069 53.164 7.84403C53.5706 7.89927 53.7875 8.02356 53.9636 8.39643C56.0778 12.9261 58.2191 17.4558 60.3468 21.9717C61.309 24.0156 62.2577 26.0733 63.2335 28.1172C63.4232 28.5177 63.4368 28.8491 63.2335 29.2496C62.8269 30.0921 62.4881 30.9621 62.0815 31.8045C61.9189 32.1498 61.9731 32.3845 62.2035 32.6745C63.2335 33.9865 63.6807 35.4642 63.5045 37.1628C63.2877 39.0824 61.6614 40.933 59.8183 41.3058C59.3981 41.3887 58.978 41.4716 58.5443 41.5268C58.2326 41.5682 58.1107 41.6925 58.0836 42.0378C58.0022 43.184 57.7854 44.3026 57.0129 45.2279C56.0507 46.4156 54.7361 46.8299 53.3131 46.8299C52.5813 46.8299 52.256 47.0232 52.0121 47.7689C51.7817 48.4871 51.3616 49.1914 50.8737 49.7852C49.6675 51.2629 48.0141 51.5805 45.9677 50.8348C45.385 50.6276 44.8564 50.31 44.2466 50.02C44.1111 50.2133 43.9755 50.4343 43.8265 50.6414C42.81 52.1467 41.4954 53.1272 39.6117 53.0306C38.541 52.9753 37.5788 52.5472 36.6844 51.9534C36.4811 51.8153 36.2642 51.691 36.0745 51.5391C35.7628 51.2767 35.5324 51.3458 35.3427 51.6634C35.3291 51.691 35.302 51.7186 35.2749 51.7601C34.2178 53.072 33.486 53.3344 32.1714 52.8372C30.7484 52.2986 29.7726 50.9729 29.7997 49.6057C29.7997 49.4123 29.8133 49.2328 29.8404 48.8876C28.6207 50.6138 27.1299 50.7243 25.4765 49.9095C24.6634 49.509 24.0535 48.8599 23.647 48.0313C23.2404 47.2027 23.1184 46.3465 23.4708 45.3246C21.6683 46.5537 20.1098 46.1946 18.6461 45.0069C17.3993 43.985 17.0199 42.6454 17.4129 40.7534C17.1554 40.9191 16.925 41.0849 16.6946 41.2092C15.1632 42.024 13.1574 41.4992 11.9648 39.9939C10.8535 38.5714 10.8535 36.6656 11.9648 35.2984C12.5747 34.5527 13.171 33.7932 13.8079 33.0612C14.0519 32.7712 14.0654 32.5779 13.8079 32.2879C13.0355 31.3764 12.3036 30.4373 11.5447 29.512C11.3143 29.2358 11.2872 29.0149 11.4498 28.6972C11.8428 27.9791 12.1817 27.2472 12.5882 26.4186C12.7644 26.6119 12.8864 26.7362 12.9948 26.8605C13.8893 27.9377 14.7973 29.0149 15.6782 30.0921C15.9086 30.3683 16.0712 30.4235 16.4236 30.244C17.9279 29.4292 19.7845 29.8159 20.9907 31.1278C22.1833 32.426 22.373 34.166 21.4921 35.7127C21.465 35.7542 21.465 35.8094 21.4379 35.9337C23.0507 35.0775 24.5008 35.4089 25.7747 36.5137C27.0622 37.6324 27.6043 39.0272 27.008 40.8777C28.6071 39.8558 30.0301 40.1458 31.3312 41.2092C32.6322 42.2587 33.2285 43.6259 32.6729 45.3522C34.6651 44.8274 35.8712 45.1865 36.8876 46.6641C37.4162 47.4375 37.6601 48.2661 37.3078 49.2052C37.2671 49.3157 37.2807 49.5366 37.362 49.5919C38.4326 50.4481 39.9911 50.8762 41.116 49.9095C41.3057 49.7438 41.4819 49.5228 41.6174 49.3019C41.902 48.8599 41.8749 48.4871 41.4006 48.128C39.3948 46.6227 37.4026 45.1036 35.4104 43.5707C34.7193 43.0459 34.7057 42.2587 35.3291 41.6649C35.7628 41.2506 36.2507 41.2092 36.8063 41.6096C39.0696 43.2116 41.3193 44.8274 43.569 46.4432C44.4905 47.1061 45.3985 47.7689 46.3336 48.4042C47.1739 48.9704 48.1497 48.8599 48.8544 48.1694C49.654 47.3823 49.8708 46.3465 49.3558 45.4765C49.1932 45.2003 48.9221 44.9517 48.6511 44.7584C45.3985 42.3416 42.1324 39.9386 38.8663 37.5357C38.4055 37.1904 38.0125 36.8314 38.0667 36.1961C38.1616 35.1327 39.2593 34.6632 40.1944 35.3123C41.4141 36.1685 42.6067 37.0523 43.8129 37.9224C46.5234 39.8972 49.2339 41.872 51.9579 43.8331C52.7981 44.4407 53.9365 44.4545 54.6277 43.8883C55.4002 43.2669 55.6983 42.1621 55.2918 41.2644C55.1562 40.9606 54.9259 40.6844 54.6684 40.491C51.8359 38.3919 48.9899 36.3204 46.1439 34.2351C44.6396 33.1303 43.1217 32.0393 41.6174 30.9483C41.5903 30.9207 41.5497 30.9068 41.5226 30.8792C40.8314 30.2992 40.6281 29.4568 41.0347 28.863C41.4277 28.2967 42.3492 28.2139 43.0675 28.7249C44.2195 29.5396 45.3579 30.3821 46.4963 31.2107C49.8979 33.6827 53.286 36.1685 56.6877 38.6267C57.8667 39.4829 59.4524 39.0686 60.4823 37.7152C61.2413 36.7209 61.0109 35.2846 59.9538 34.3594C56.5657 31.3488 53.1776 28.3382 49.7895 25.3276C47.1061 22.9522 44.4092 20.5769 41.7394 18.1878C41.3328 17.8287 40.9262 17.442 40.5874 17.0139C39.9776 16.2267 39.1644 15.8953 38.2429 15.702C36.4404 15.3015 34.7735 15.9091 33.7977 17.4973C33.4589 18.0497 33.4047 18.7816 33.2149 19.4307C32.3611 22.317 30.6807 24.4714 27.7533 25.2723C26.764 25.5485 25.6527 25.4242 24.5956 25.3414C23.7147 25.2723 23.0778 24.6647 22.6983 23.8913C22.5086 23.4908 22.4273 22.8418 22.617 22.4827C23.7012 20.4112 23.9451 18.1602 24.04 15.8953C24.0806 14.8319 24.4059 13.9343 24.9073 13.0504C25.2868 12.3461 25.5985 11.7385 26.0051 11.0065Z" fill="white"/>
<path d="M19.3646 4.12918C19.3239 4.26728 19.2697 4.52968 19.1613 4.76445C16.3559 10.758 13.5506 16.7378 10.7453 22.7313C9.99988 24.3333 9.25449 25.9353 8.50911 27.5373C8.04833 28.5178 7.3165 28.8492 6.32718 28.4211C4.70089 27.6892 3.10171 26.902 1.51609 26.0872C0.662286 25.6453 0.472553 24.7614 0.879124 23.8776C3.77933 17.6769 6.67954 11.49 9.57975 5.28923C10.2303 3.90822 10.8537 2.52722 11.5042 1.16002C11.9921 0.110452 12.8188 -0.20718 13.8623 0.289983C15.4073 1.00811 16.9387 1.76766 18.4701 2.52721C19.0664 2.80342 19.351 3.3282 19.3646 4.12918Z" fill="white"/>
<path d="M61.6614 0C62.4746 0.0552403 62.8947 0.538592 63.2064 1.20148C64.3041 3.563 65.4154 5.92452 66.5132 8.28604C68.4782 12.4843 70.4433 16.6964 72.4084 20.8946C72.8692 21.8751 73.3164 22.8557 73.7772 23.8362C74.2109 24.7753 74.0212 25.6177 73.1267 26.0872C71.5817 26.902 70.0097 27.6754 68.4105 28.3935C67.3534 28.863 66.6216 28.5316 66.1201 27.4544C63.9111 22.7314 61.7021 18.0221 59.493 13.2991C58.1649 10.4542 56.8368 7.62316 55.5086 4.77828C55.0478 3.77015 55.346 2.94154 56.3353 2.45819C57.7312 1.76769 59.1271 1.07719 60.5366 0.400492C60.916 0.207151 61.2955 0.124291 61.6614 0Z" fill="white"/>
</svg>
