<svg width="66" height="70" viewBox="0 0 66 70" fill="none" xmlns="http://www.w3.org/2000/svg">
<path d="M32.8561 23.7652C39.4067 23.7652 44.717 18.4654 44.717 11.9278C44.717 5.39014 39.4067 0.090332 32.8561 0.090332C26.3055 0.090332 20.9952 5.39014 20.9952 11.9278C20.9952 18.4654 26.3055 23.7652 32.8561 23.7652Z" fill="white"/>
<path d="M9.81593 53.2907H55.8963V39.5484C56.0326 33.2895 51.9426 30.8404 49.4886 29.3437C47.8527 28.3913 42.8084 27.5749 41.5814 28.5273C39.1274 35.4665 34.6284 49.2089 32.9924 49.2089C31.3564 49.0728 27.2665 33.5617 24.4035 28.6634C23.4492 26.8946 17.5869 28.2552 15.9509 29.4798C13.9059 30.9765 10.4976 33.5617 9.95226 37.9157V53.2907H9.81593Z" fill="white"/>
<path d="M32.8561 43.2221C33.1288 42.6779 34.6284 39.9566 34.7647 38.8681C35.0374 37.2353 33.8104 32.4732 33.9468 32.201C34.0831 31.6568 35.7191 30.2962 35.9917 29.4798C36.1281 29.3437 35.9917 28.9355 35.9917 28.6634C35.8554 28.2552 35.1737 27.5749 34.7647 27.4388H32.8561H30.9474C30.5384 27.5749 29.8568 28.2552 29.7205 28.6634C29.7205 28.7995 29.5841 29.2077 29.7205 29.4798C29.9931 30.2962 31.6291 31.6568 31.7654 32.201C31.7654 32.4732 30.6748 37.2353 30.9474 38.8681C30.9474 39.9566 32.4471 42.6779 32.8561 43.2221Z" fill="white"/>
<path d="M62.8492 69.7543H2.86298C1.22699 69.7543 0 68.5298 0 66.897V61.5906C0 59.9578 1.22699 58.7333 2.86298 58.7333H62.8492C64.4852 58.7333 65.7122 59.9578 65.7122 61.5906V66.897C65.7122 68.3937 64.3489 69.7543 62.8492 69.7543Z" fill="white"/>
</svg>
