<svg width="38" height="23" viewBox="0 0 38 23" fill="none" xmlns="http://www.w3.org/2000/svg">
<path d="M6.11366 10.0418C7.8519 10.0418 9.26102 8.63545 9.26102 6.90065C9.26102 5.16585 7.8519 3.75952 6.11366 3.75952C4.37543 3.75952 2.96631 5.16585 2.96631 6.90065C2.96631 8.63545 4.37543 10.0418 6.11366 10.0418Z" fill="#004181"/>
<path d="M0 17.8767H12.2277V14.2301C12.2638 12.5692 11.1785 11.9194 10.5274 11.5222C10.0932 11.2695 8.75471 11.0528 8.42912 11.3056C7.77794 13.1469 6.58412 16.7935 6.15 16.7935C5.71588 16.7574 4.63059 12.6415 3.87088 11.3417C3.61765 10.8723 2.06206 11.2334 1.62794 11.5583C1.08529 11.9555 0.180882 12.6415 0.0361763 13.7968V17.8767H0Z" fill="#004181"/>
<path d="M6.11376 15.2048C6.18612 15.0604 6.58406 14.3383 6.62023 14.0494C6.69259 13.6162 6.367 12.3525 6.40317 12.2803C6.43935 12.1359 6.87347 11.7748 6.94582 11.5582C6.982 11.5221 6.94582 11.4138 6.94582 11.3415C6.90964 11.2332 6.72876 11.0527 6.62023 11.0166H6.11376H5.60729C5.49876 11.0527 5.31788 11.2332 5.2817 11.3415C5.2817 11.3777 5.24553 11.486 5.2817 11.5582C5.35406 11.7748 5.78817 12.1359 5.82435 12.2803C5.82435 12.3525 5.53494 13.6162 5.60729 14.0494C5.60729 14.3383 6.00523 15.0604 6.11376 15.2048Z" fill="#004181"/>
<path d="M31.244 10.0418C32.9823 10.0418 34.3914 8.63545 34.3914 6.90065C34.3914 5.16585 32.9823 3.75952 31.244 3.75952C29.5058 3.75952 28.0967 5.16585 28.0967 6.90065C28.0967 8.63545 29.5058 10.0418 31.244 10.0418Z" fill="#004181"/>
<path d="M25.1304 17.8767H37.358V14.2301C37.3942 12.5692 36.3089 11.9194 35.6577 11.5222C35.2236 11.2695 33.8851 11.0528 33.5595 11.3056C32.9083 13.1469 31.7145 16.7935 31.2804 16.7935C30.8463 16.7574 29.761 12.6415 29.0013 11.3417C28.748 10.8723 27.1924 11.2334 26.7583 11.5583C26.2157 11.9555 25.3113 12.6415 25.1665 13.7968V17.8767H25.1304Z" fill="#004181"/>
<path d="M31.2441 15.2048C31.3165 15.0604 31.7144 14.3383 31.7506 14.0494C31.823 13.6162 31.4974 12.3525 31.5335 12.2803C31.5697 12.1359 32.0038 11.7748 32.0762 11.5582C32.1124 11.5221 32.0762 11.4138 32.0762 11.3415C32.04 11.2332 31.8591 11.0527 31.7506 11.0166H31.2441H30.7377C30.6291 11.0527 30.4483 11.2332 30.4121 11.3415C30.4121 11.3777 30.3759 11.486 30.4121 11.5582C30.4844 11.7748 30.9185 12.1359 30.9547 12.2803C30.9547 12.3525 30.6653 13.6162 30.7377 14.0494C30.7377 14.3383 31.1356 15.0604 31.2441 15.2048Z" fill="#004181"/>
<path d="M20.0042 9.81243C22.7192 9.81243 24.9201 7.61588 24.9201 4.90631C24.9201 2.19673 22.7192 0.000183105 20.0042 0.000183105C17.2893 0.000183105 15.0884 2.19673 15.0884 4.90631C15.0884 7.61588 17.2893 9.81243 20.0042 9.81243Z" fill="#004181"/>
<path d="M10.4551 22.0496H29.5534V16.354C29.6099 13.7599 27.9148 12.7449 26.8977 12.1246C26.2197 11.7298 24.129 11.3915 23.6205 11.7862C22.6034 14.6622 20.7388 20.3578 20.0608 20.3578C19.3827 20.3014 17.6876 13.8727 16.501 11.8426C16.1055 11.1095 13.6758 11.6734 12.9978 12.1809C12.1502 12.8013 10.7376 13.8727 10.5116 15.6773V22.0496H10.4551Z" fill="#004181"/>
<path d="M20.0044 17.8767C20.1174 17.6511 20.7389 16.5233 20.7954 16.0722C20.9085 15.3954 20.3999 13.4217 20.4564 13.3089C20.5129 13.0834 21.191 12.5194 21.304 12.1811C21.3605 12.1247 21.304 11.9555 21.304 11.8427C21.2475 11.6736 20.965 11.3916 20.7954 11.3352H20.0044H19.2133C19.0438 11.3916 18.7613 11.6736 18.7048 11.8427C18.7048 11.8991 18.6483 12.0683 18.7048 12.1811C18.8178 12.5194 19.4959 13.0834 19.5524 13.3089C19.5524 13.4217 19.1003 15.3954 19.2133 16.0722C19.2133 16.5233 19.8349 17.6511 20.0044 17.8767Z" fill="#004181"/>
</svg>
