<svg width="48" height="30" viewBox="0 0 48 30" fill="none" xmlns="http://www.w3.org/2000/svg">
<g clip-path="url(#clip0_716_588)">
<path fill-rule="evenodd" clip-rule="evenodd" d="M0.200195 0.199951H47.2002L25.0002 16.6C25.0002 16.6 24.4202 17.1 23.6002 17.1C22.7802 17.1 22.2002 16.5 22.2002 16.5L0.200195 0.199951Z" fill="white"/>
<path fill-rule="evenodd" clip-rule="evenodd" d="M0.1 2.19995L16.1 13.9L0.5 28.2C0.5 28.2 0 28.47 0 27.2C0 25.93 0.1 2.19995 0.1 2.19995Z" fill="white"/>
<path fill-rule="evenodd" clip-rule="evenodd" d="M17.5996 14.9999L23.6996 19.4999L29.9996 14.8999L45.3996 29.3999L44.6996 29.7999H2.69961L2.09961 29.3999L17.5996 14.9999Z" fill="white"/>
<path fill-rule="evenodd" clip-rule="evenodd" d="M31.7002 13.7999L47.3002 2.09985L47.4002 27.1999L47.0002 28.1999L31.7002 13.7999Z" fill="white"/>
</g>
<defs>
<clipPath id="clip0_716_588">
<rect width="48" height="30" fill="white"/>
</clipPath>
</defs>
</svg>
