<svg width="23" height="23" viewBox="0 0 23 23" fill="none" xmlns="http://www.w3.org/2000/svg">
<path d="M22.4253 9.38244C21.778 5.92846 19.9354 3.30579 16.9306 1.51267C15.4683 0.64002 13.8735 0.164137 12.1757 0.036015C12.1186 0.0318821 12.0627 0.0123989 12.0056 0C11.5348 0 11.0641 0 10.5933 0C10.1872 0.0560904 9.77882 0.100962 9.37453 0.171223C6.80639 0.618174 4.64901 1.82441 2.90357 3.75746C1.34586 5.48269 0.421941 7.51434 0.0982756 9.81936C0.0606127 10.088 0.0323665 10.3584 0 10.6282C0 11.1006 0 11.5729 0 12.0453C0.0553174 12.4532 0.0970993 12.8636 0.168894 13.2686C0.679109 16.1428 2.08853 18.4832 4.37184 20.2835C6.14612 21.6822 8.17167 22.4574 10.4226 22.6369C10.4797 22.6416 10.5356 22.6611 10.5921 22.6735C11.0629 22.6735 11.5337 22.6735 12.0045 22.6735C12.4252 22.6156 12.8495 22.5767 13.2662 22.4975C16.6482 21.854 19.2328 20.0449 21.0212 17.1017C21.931 15.6043 22.4283 13.9659 22.5607 12.2165C22.5648 12.1586 22.5848 12.1025 22.5971 12.0453C22.5971 11.5729 22.5971 11.1006 22.5971 10.6282C22.5412 10.2126 22.5024 9.79397 22.4253 9.38244ZM11.5978 5.30261C12.151 5.36165 12.7171 5.39825 13.2473 5.55117C15.5595 6.21776 17.2114 8.36986 17.3179 10.7847C17.3179 10.8508 17.3179 10.9175 17.3179 10.9837C17.319 11.2919 17.156 11.4914 16.8948 11.5015C16.6393 11.5109 16.4646 11.3202 16.4357 11.012C16.4063 10.6967 16.3928 10.3773 16.3322 10.0679C15.909 7.92173 14.0453 6.30751 11.8709 6.19178C11.7679 6.18647 11.6649 6.18588 11.5625 6.17407C11.3 6.14455 11.1288 5.96388 11.1329 5.7283C11.1376 5.48209 11.3306 5.27367 11.5978 5.30261ZM11.1347 8.1762C11.1559 7.91701 11.3624 7.757 11.6661 7.76409C13.395 7.80601 14.818 9.23601 14.8586 10.9736C14.8657 11.2753 14.7015 11.4832 14.4414 11.5009C14.1889 11.518 13.9894 11.3303 13.9794 11.0226C13.94 9.82172 13.0961 8.91541 12.0633 8.70463C11.9127 8.67393 11.7579 8.66448 11.6043 8.64913C11.3012 8.61902 11.1135 8.43186 11.1347 8.1762ZM17.8257 15.6333C17.6721 16.0235 17.4991 16.4067 17.3479 16.7982C17.0242 17.6342 16.3681 17.9507 15.5295 17.9749C14.7656 17.9967 14.0459 17.7913 13.3462 17.5079C11.629 16.8123 10.1684 15.7289 8.84136 14.4571C7.3731 13.0502 6.11787 11.4802 5.28222 9.60503C4.9409 8.83925 4.69786 8.0469 4.64019 7.19019C4.70139 6.88849 4.73905 6.57969 4.83027 6.28743C4.9562 5.88653 5.20866 5.56948 5.60294 5.39589C6.11375 5.17094 6.62396 4.94481 7.14477 4.74406C7.51669 4.60059 7.9198 4.74583 8.124 5.09005C8.5483 5.80565 8.96553 6.52656 9.36806 7.25514C9.58579 7.64895 9.44868 8.11185 9.07499 8.36396C9.03262 8.39289 8.98731 8.41769 8.94317 8.44425C8.13577 8.93136 7.95864 9.86068 8.52888 10.6088C9.53989 11.9354 10.7021 13.1122 12.0345 14.1123C12.2481 14.2729 12.5288 14.3922 12.7918 14.4276C13.3962 14.5091 13.8588 14.2387 14.1742 13.7162C14.5214 13.1399 14.9492 13.0271 15.5265 13.3601C16.1574 13.7238 16.7876 14.0875 17.4167 14.4542C17.8958 14.7323 18.0305 15.1137 17.8257 15.6333Z" fill="#004181"/>
</svg>
