<svg width="29" height="30" viewBox="0 0 29 30" fill="none" xmlns="http://www.w3.org/2000/svg">
<path d="M18.2062 29.5045C18.1615 29.5166 18.1166 29.529 18.0717 29.5406C18.1166 29.529 18.1615 29.5168 18.2062 29.5045Z" fill="white"/>
<path d="M29 15C29 6.717 22.5069 0 14.5 0C6.4931 0 0 6.717 0 15C0 23.283 6.4931 30 14.5 30C14.5852 30 14.6699 29.9982 14.7549 29.9966V18.3197H11.6396V14.564H14.7549V11.8002C14.7549 8.59497 16.6464 6.85043 19.4103 6.85043C20.7338 6.85043 21.8715 6.95251 22.2031 6.99806V10.348H20.2973C18.7936 10.348 18.5025 11.0873 18.5025 12.1719V14.564H22.0978L21.6292 18.3197H18.5025V29.4205C24.5632 27.6231 29 21.8468 29 15Z" fill="white"/>
</svg>
