<svg width="28" height="26" viewBox="0 0 28 26" fill="none" xmlns="http://www.w3.org/2000/svg">
<path d="M21.8433 7.54053C19.1295 4.8549 14.7262 4.8549 12.0124 7.54053C9.2986 10.2262 9.2986 14.5838 12.0124 17.2694C14.3816 19.614 18.0335 19.9124 20.7281 18.1694C20.5989 18.3967 20.6324 18.6904 20.8287 18.8846C21.0057 19.0598 21.2738 19.1025 21.4939 19.0125C21.5657 19.1546 21.6615 19.2825 21.7763 19.4009L25.3325 22.9201C25.9404 23.5217 26.9359 23.5217 27.5438 22.9201C28.1516 22.3186 28.1516 21.3334 27.5438 20.7318L23.9876 17.2126C23.8727 17.0989 23.7387 17.0042 23.5999 16.9331C23.6956 16.7152 23.6573 16.4453 23.4755 16.2653C23.2792 16.0711 22.9825 16.0427 22.7527 16.1658C24.5141 13.4991 24.2125 9.88513 21.8433 7.54053ZM20.6133 16.0569C18.5791 18.0699 15.2766 18.0699 13.2377 16.0569C11.1987 14.0438 11.2035 10.7756 13.2377 8.75782C15.2718 6.74479 18.5743 6.74479 20.6133 8.75782C22.6522 10.7709 22.6522 14.0391 20.6133 16.0569Z" fill="#004181"/>
<path d="M14.6451 11.2399V12.8029C14.6451 12.9403 14.6403 13.054 14.6259 13.1487C14.6164 13.2434 14.5876 13.3382 14.5446 13.4376C14.4776 13.6034 14.3627 13.7313 14.2047 13.8213C14.0468 13.9113 13.8554 13.9587 13.6304 13.9587C13.4246 13.9587 13.2571 13.9255 13.1183 13.8639C12.9843 13.8024 12.8742 13.6982 12.788 13.5561C12.7449 13.4803 12.7067 13.3903 12.6827 13.2956C12.654 13.1961 12.6396 13.1014 12.6396 13.0114C12.6396 12.9166 12.6684 12.8456 12.721 12.7935C12.7737 12.7414 12.8407 12.7177 12.9268 12.7177C13.0082 12.7177 13.0704 12.7414 13.1087 12.7887C13.1518 12.8361 13.1805 12.9072 13.2044 13.0066C13.2284 13.1108 13.2523 13.1961 13.2762 13.2577C13.3002 13.3192 13.3384 13.3713 13.3911 13.4187C13.4437 13.4613 13.5251 13.485 13.6256 13.485C13.8936 13.485 14.0324 13.2908 14.0324 12.8977V11.2494C14.0324 11.1262 14.0612 11.0362 14.1138 10.9746C14.1665 10.9131 14.243 10.8846 14.334 10.8846C14.4297 10.8846 14.5015 10.9131 14.5589 10.9746C14.6164 11.0362 14.6451 11.1167 14.6451 11.2399Z" fill="#004181"/>
<path d="M16.6315 10.8751C16.9426 10.8751 17.2106 10.9367 17.4356 11.0646C17.6605 11.1877 17.828 11.3677 17.9429 11.5998C18.0578 11.8319 18.1152 12.1019 18.1152 12.4145C18.1152 12.6466 18.0817 12.855 18.0195 13.0445C17.9573 13.2339 17.8616 13.395 17.7371 13.5371C17.6127 13.6744 17.4547 13.7834 17.2728 13.8544C17.091 13.9255 16.8804 13.9634 16.6411 13.9634C16.4065 13.9634 16.1959 13.9255 16.0093 13.8497C15.8226 13.7739 15.6695 13.6697 15.5402 13.5323C15.4158 13.395 15.3201 13.2292 15.2578 13.0397C15.1956 12.8455 15.1621 12.6371 15.1621 12.4145C15.1621 12.1871 15.1956 11.974 15.2626 11.7845C15.3296 11.5951 15.4254 11.4293 15.5498 11.2967C15.6742 11.1641 15.8274 11.0598 16.0093 10.9888C16.1959 10.9083 16.4017 10.8751 16.6315 10.8751ZM17.4978 12.405C17.4978 12.1871 17.4643 11.9977 17.3925 11.8366C17.3207 11.6756 17.2202 11.5572 17.0862 11.4719C16.9522 11.3914 16.8038 11.3488 16.6315 11.3488C16.5118 11.3488 16.397 11.3725 16.2917 11.4151C16.1864 11.4625 16.1002 11.5288 16.0236 11.614C15.9471 11.6993 15.8896 11.813 15.8465 11.9456C15.8035 12.0829 15.7795 12.2345 15.7795 12.4003C15.7795 12.5708 15.8035 12.7224 15.8465 12.8597C15.8896 12.9971 15.9518 13.1108 16.0284 13.2008C16.105 13.2908 16.1959 13.3571 16.3012 13.4044C16.4017 13.4471 16.5166 13.4708 16.6363 13.4708C16.7942 13.4708 16.9378 13.4329 17.067 13.3571C17.1963 13.2813 17.3016 13.1581 17.3781 12.9971C17.4595 12.8408 17.4978 12.6419 17.4978 12.405Z" fill="#004181"/>
<path d="M19.929 13.9066H19.01C18.876 13.9066 18.7803 13.8782 18.7229 13.8166C18.6654 13.7597 18.6367 13.665 18.6367 13.5371V11.292C18.6367 11.1594 18.6654 11.0646 18.7229 11.0078C18.7803 10.951 18.876 10.9225 19.0053 10.9225H19.9817C20.1252 10.9225 20.2497 10.932 20.355 10.951C20.4603 10.9699 20.556 11.0031 20.6374 11.0504C20.7092 11.0931 20.7714 11.1452 20.8288 11.2115C20.8815 11.2778 20.9245 11.3488 20.9533 11.4246C20.982 11.5004 20.9963 11.5857 20.9963 11.6709C20.9963 11.9693 20.8432 12.1872 20.5416 12.3246C20.9389 12.4477 21.1351 12.694 21.1351 13.054C21.1351 13.2198 21.0921 13.3713 21.0059 13.504C20.9198 13.6366 20.8049 13.7361 20.6565 13.7976C20.5656 13.8355 20.4603 13.864 20.3406 13.8782C20.221 13.8924 20.0869 13.9066 19.929 13.9066ZM19.2494 11.3773V12.1493H19.8093C19.9625 12.1493 20.0774 12.1351 20.1635 12.1067C20.2449 12.0783 20.3119 12.0262 20.355 11.9456C20.3885 11.8888 20.4076 11.8272 20.4076 11.7562C20.4076 11.6046 20.355 11.5051 20.2449 11.4578C20.1348 11.4104 19.9721 11.382 19.7471 11.382H19.2494V11.3773ZM19.8811 12.5803H19.2446V13.4519H19.9003C20.3119 13.4519 20.5177 13.305 20.5177 13.0114C20.5177 12.8598 20.4651 12.7509 20.355 12.6845C20.2545 12.6182 20.0965 12.5803 19.8811 12.5803Z" fill="#004181"/>
<path d="M19.8427 25.118H1.19075C0.879647 25.118 0.625977 24.8669 0.625977 24.5591V0.558914C0.625977 0.251038 0.879647 0 1.19075 0H19.8427C20.1538 0 20.4075 0.251038 20.4075 0.558914V3.61873C20.4075 3.92661 20.1538 4.17765 19.8427 4.17765C19.5316 4.17765 19.278 3.92661 19.278 3.61873V1.11783H1.75553V24.0049H19.278V21.935C19.278 21.6271 19.5316 21.3761 19.8427 21.3761C20.1538 21.3761 20.4075 21.6271 20.4075 21.935V24.5638C20.4075 24.8717 20.1538 25.118 19.8427 25.118Z" fill="#004181"/>
<path d="M16.3874 3.54298H3.8044C3.55551 3.54298 3.35449 3.34404 3.35449 3.09774C3.35449 2.85144 3.55073 2.64777 3.8044 2.64777H16.3922C16.6411 2.64777 16.8421 2.8467 16.8421 3.093C16.8421 3.3393 16.6363 3.54298 16.3874 3.54298Z" fill="#004181"/>
<path d="M12.8546 5.97751H3.67937C3.49749 5.97751 3.34912 5.77857 3.34912 5.53227C3.34912 5.28597 3.49749 5.08704 3.67937 5.08704H12.8546C13.0365 5.08704 13.1848 5.28597 13.1848 5.53227C13.1848 5.77857 13.0365 5.97751 12.8546 5.97751Z" fill="#004181"/>
<path d="M12.8546 19.8131H3.67937C3.49749 19.8131 3.34912 19.6141 3.34912 19.3678C3.34912 19.1215 3.49749 18.9226 3.67937 18.9226H12.8546C13.0365 18.9226 13.1848 19.1215 13.1848 19.3678C13.1848 19.6141 13.0365 19.8131 12.8546 19.8131Z" fill="#004181"/>
<path d="M9.12612 8.92838H3.55014C3.44006 8.92838 3.34912 8.72944 3.34912 8.48314C3.34912 8.23684 3.44006 8.0379 3.55014 8.0379H9.12612C9.2362 8.0379 9.32714 8.23684 9.32714 8.48314C9.32714 8.72944 9.2362 8.92838 9.12612 8.92838Z" fill="#004181"/>
<path d="M9.12612 12.8503H3.55014C3.44006 12.8503 3.34912 12.6514 3.34912 12.4051C3.34912 12.1588 3.44006 11.9598 3.55014 11.9598H9.12612C9.2362 11.9598 9.32714 12.1588 9.32714 12.4051C9.32714 12.6514 9.2362 12.8503 9.12612 12.8503Z" fill="#004181"/>
<path d="M9.12612 16.9994H3.55014C3.44006 16.9994 3.34912 16.8005 3.34912 16.5542C3.34912 16.3079 3.44006 16.1089 3.55014 16.1089H9.12612C9.2362 16.1089 9.32714 16.3079 9.32714 16.5542C9.32714 16.7957 9.2362 16.9994 9.12612 16.9994Z" fill="#004181"/>
<path d="M16.3874 22.6265H3.8044C3.55551 22.6265 3.35449 22.4276 3.35449 22.1813C3.35449 21.935 3.55551 21.736 3.8044 21.736H16.3922C16.6411 21.736 16.8421 21.935 16.8421 22.1813C16.8421 22.4276 16.6363 22.6265 16.3874 22.6265Z" fill="#004181"/>
</svg>
