<svg width="271" height="89" viewBox="0 0 271 89" fill="none" xmlns="http://www.w3.org/2000/svg">
<path d="M100.414 80.1557L102.589 77.4752C104.764 79.5488 107.343 80.9143 110.681 80.9143C114.069 80.9143 115.839 79.1442 115.839 77.1718C115.839 74.8454 113.816 73.9351 109.669 73.0247C104.662 71.8615 101.325 70.3443 101.325 65.8938C101.325 61.7973 104.915 58.6617 109.821 58.6617C113.614 58.6617 116.446 60.0778 118.823 62.1513L116.75 64.8823C114.676 63.0111 112.198 61.8985 109.72 61.8985C106.989 61.8985 105.016 63.6686 105.016 65.6409C105.016 67.9168 107.141 68.726 111.186 69.6869C116.092 70.8501 119.481 72.4684 119.481 76.8684C119.481 81.0154 116.345 84.151 110.529 84.151C106.432 84.1004 102.993 82.6844 100.414 80.1557Z" fill="#0059B1"/>
<path d="M127.572 62.5054V69.5351H140.62V72.873H127.572V80.358H141.986V83.7464H123.931V59.1675H141.986V62.5559H127.572V62.5054Z" fill="#0059B1"/>
<path d="M159.687 74.7949L165.958 83.6959H161.811L155.793 75.1489H150.128V83.6959H146.538V59.1169H156.855C162.064 59.1169 165.958 62.4548 165.958 67.1076C165.958 70.9512 163.379 73.834 159.687 74.7949ZM150.128 71.811H156.349C159.889 71.811 162.266 70.0409 162.266 67.1582C162.266 64.2755 159.889 62.5054 156.349 62.5054H150.128V71.811Z" fill="#0059B1"/>
<path d="M193.47 59.1169L182.9 83.6959H178.905L168.335 59.1169H172.33L180.877 79.0431L189.424 59.1169H193.47Z" fill="#0059B1"/>
<path d="M197.112 59.1169H200.702V83.6959H197.112V59.1169Z" fill="#0059B1"/>
<path d="M205.153 71.4063C205.153 64.4777 211.019 58.7123 217.948 58.7123C221.438 58.7123 224.674 60.1789 227.001 62.5559L224.472 64.9834C222.803 63.2134 220.477 61.9996 217.948 61.9996C213.042 61.9996 208.895 66.2984 208.895 71.3558C208.895 76.4637 213.042 80.7625 217.948 80.7625C220.477 80.7625 222.803 79.5993 224.472 77.7786L227.001 80.2062C224.674 82.5832 221.438 84.0498 217.948 84.0498C211.019 84.151 205.153 78.335 205.153 71.4063Z" fill="#0059B1"/>
<path d="M234.283 62.5054V69.5351H247.331V72.873H234.283V80.358H248.697V83.7464H230.642V59.1675H248.697V62.5559H234.283V62.5054Z" fill="#0059B1"/>
<path d="M251.934 80.1557L254.108 77.4752C256.283 79.5488 258.862 80.9143 262.2 80.9143C265.589 80.9143 267.359 79.1442 267.359 77.1718C267.359 74.8454 265.336 73.9351 261.189 73.0247C256.182 71.8615 252.844 70.3443 252.844 65.8938C252.844 61.7973 256.435 58.6617 261.34 58.6617C265.133 58.6617 267.966 60.0778 270.343 62.1513L268.269 64.8823C266.195 63.0111 263.717 61.8985 261.239 61.8985C258.508 61.8985 256.536 63.6686 256.536 65.6409C256.536 67.9168 258.66 68.726 262.706 69.6869C267.612 70.8501 271 72.4684 271 76.8684C271 81.0154 267.864 84.151 262.048 84.151C257.901 84.1004 254.513 82.6844 251.934 80.1557Z" fill="#0059B1"/>
<path d="M101.527 4.6488H111.844L126.763 31.8576L141.632 4.6488H152V52.7952H141.632V22.8048L126.763 50.0136L111.844 22.8048V52.7952H101.527V4.6488Z" fill="#0059B1"/>
<path d="M163.733 4.6488H174.05L188.969 31.8576L203.838 4.6488H214.205V52.7952H203.838V22.8048L188.969 50.0136L174.05 22.8048V52.7952H163.733V4.6488Z" fill="#0059B1"/>
<path d="M225.888 4.6488H243.134C259.317 4.6488 270.798 14.6119 270.798 28.6714C270.798 42.7815 259.317 52.7952 243.134 52.7952H225.888V4.6488ZM244.449 43.3884C253.653 43.3884 260.127 37.269 260.127 28.6714C260.127 20.1244 253.603 14.005 244.449 14.005H236.155V43.3884H244.449Z" fill="#0059B1"/>
<path d="M93.7889 0.198364H89.6418V88.6016H93.7889V0.198364Z" fill="#0059B1"/>
<path d="M17.7257 21.4394C26.2727 16.0785 36.8932 16.8877 44.1253 22.9566L49.1321 17.9498C42.0518 11.8809 32.3416 9.35221 23.036 11.4763C18.4338 12.4878 14.0844 14.8142 10.4937 18.0003L15.6016 23.0072C16.2591 22.4508 16.9671 21.9451 17.7257 21.4394Z" fill="#0059B1"/>
<path d="M29.9646 35.2966C32.8473 35.2966 35.2243 32.9196 35.2243 30.0369C35.2243 27.1542 32.8473 24.7772 29.9646 24.7772C27.0313 24.7772 24.6544 27.1542 24.6544 30.0369C24.7049 32.9196 27.0819 35.2966 29.9646 35.2966Z" fill="#0059B1"/>
<path d="M22.7831 40.6069V54.0089H37.1461V42.1241C37.1461 41.8712 37.1461 41.5678 37.1461 41.3149V40.6069C36.9944 38.3816 35.9324 36.6115 34.1117 35.2966C33.7071 34.9931 33.4037 34.9931 32.9991 35.246C31.1784 36.2575 29.2566 36.4092 27.4359 35.3977C26.5762 34.9426 26.0704 35.1449 25.4636 35.7012C23.7946 37.0667 23.0866 38.7862 22.8843 40.6574H22.7831V40.6069Z" fill="#0059B1"/>
<path d="M38.461 39.9495C38.5116 40.354 38.7645 40.6069 39.1691 40.7586C41.4955 41.669 44.0242 40 44.0242 37.4713C44.0242 35.7012 42.9115 34.2852 41.2932 33.9817C39.6242 33.6277 38.0059 34.4369 37.2978 35.9035C37.1461 36.2576 37.045 36.561 37.2978 36.915C37.9047 37.8253 38.3093 38.8368 38.461 39.9495Z" fill="#0059B1"/>
<path d="M13.9832 51.2779V54.0089H20.7601V43.9953V41.6689C20.7601 41.3655 20.6084 41.3149 20.2038 41.4666C19.0912 41.8712 17.928 41.77 16.9165 41.1632C16.5119 40.9609 16.2591 41.0114 15.9556 41.2643C15.0959 41.9218 14.5395 42.7309 14.2361 43.6413C14.0844 44.147 13.9832 44.6528 13.9832 45.2091C13.9327 46.524 13.9832 47.8895 13.9832 49.2044C13.9832 49.8619 13.9832 50.5699 13.9832 51.2779Z" fill="#0059B1"/>
<path d="M21.8222 37.3196C22.3785 36.2576 22.3785 35.9035 21.5187 35.0438C20.8107 34.2852 19.9509 33.9312 18.5855 33.9312C17.3717 33.9817 16.2591 34.6392 15.6522 36.0553C15.0959 37.4208 15.197 38.7863 16.259 39.8989C17.2705 41.0115 18.5854 41.3149 20.0521 40.8598C20.5578 40.7081 20.8613 40.4552 20.9119 39.8989C21.0636 38.938 21.367 38.1288 21.8222 37.3196Z" fill="#0059B1"/>
<path d="M44.7828 54.009H45.0357V53.9584C45.3391 53.8573 45.3897 53.5538 45.3897 53.0987C45.3391 51.7837 45.3897 50.5194 45.3897 49.2045C45.3897 47.7884 45.4403 46.3723 45.3897 44.9563C45.2885 43.3885 44.6311 42.1241 43.3667 41.2138C43.1139 41.0621 42.9116 40.9103 42.6081 41.1126C41.4955 41.7701 40.3323 41.8207 39.1185 41.4161C38.7645 41.3149 38.6128 41.3655 38.6634 41.7195C38.6634 42.4276 38.6634 43.1356 38.6634 43.8436V54.009H44.6311C44.6311 54.009 44.7322 54.009 44.7828 54.009Z" fill="#0059B1"/>
<path d="M46.8057 65.5399C47.6149 64.9836 48.0195 65.1859 48.5758 65.7927C51.2057 68.4226 53.8355 71.0524 56.4653 73.7329C57.8308 75.0983 59.8538 75.6547 61.6745 74.9972C61.8262 74.9466 61.9273 74.896 62.079 74.8455C62.079 74.8455 62.1296 74.8455 62.1296 74.7949C62.1296 74.7949 62.1802 74.7949 62.1802 74.7443C62.2308 74.7443 62.2813 74.6938 62.2813 74.6938C63.0399 74.2386 65.0123 72.7214 63.8997 69.5858C63.5457 68.6755 62.9894 67.8157 62.2813 67.1077C59.8032 64.6295 57.2745 62.1009 54.7458 59.6227C53.9872 58.9147 53.9367 58.409 54.5941 57.5998C56.1113 55.6274 57.1734 53.4021 57.9826 51.0757C59.3986 46.9287 59.9549 42.6805 59.5504 38.3311C59.0446 32.5657 57.0217 27.4071 53.5826 22.8049C53.0769 22.1475 52.7734 22.0463 52.1666 22.7038C51.1045 23.867 49.9413 25.0302 48.7781 26.0922C47.9689 26.8003 47.9184 27.306 48.5252 28.2669C55.909 39.1403 52.824 53.8573 40.9897 60.6342C28.7508 67.664 14.0844 61.9997 8.87529 49.4574C5.73971 41.9724 6.75118 34.7404 11.2523 28.014C11.758 27.306 11.758 26.952 11.1005 26.3451C9.6339 24.929 8.21783 23.4118 6.85234 21.9957C6.70062 22.0969 6.65004 22.0969 6.59947 22.1475C-3.00958 33.7289 -1.59352 50.7723 7.40864 60.7859C17.3211 71.6087 34.1623 74.188 46.8057 65.5399Z" fill="#0059B1"/>
</svg>
